<mxfile host="app.diagrams.net" modified="2022-01-28T09:07:21.726Z" agent="5.0 (Windows NT 10.0; WOW64) AppleWebKit/537.36 (KHTML, like Gecko) Chrome/97.0.4692.71 Safari/537.36" etag="vSYrIwmDvXHVNkjcb7d7" version="16.4.6" type="github">
  <diagram id="Nr6WQ1Xphbp917yLls0s" name="Page-1">
    <mxGraphModel dx="2249" dy="706" grid="1" gridSize="10" guides="1" tooltips="1" connect="1" arrows="1" fold="1" page="1" pageScale="1" pageWidth="827" pageHeight="1169" math="0" shadow="0">
      <root>
        <mxCell id="0" />
        <mxCell id="1" parent="0" />
        <mxCell id="yu0hHnk2PqovJGhBFxys-9" style="edgeStyle=orthogonalEdgeStyle;rounded=0;orthogonalLoop=1;jettySize=auto;html=1;exitX=0.5;exitY=1;exitDx=0;exitDy=0;exitPerimeter=0;entryX=0.5;entryY=0;entryDx=0;entryDy=0;entryPerimeter=0;" edge="1" parent="1" source="yu0hHnk2PqovJGhBFxys-3" target="yu0hHnk2PqovJGhBFxys-7">
          <mxGeometry relative="1" as="geometry">
            <mxPoint x="330" y="290" as="targetPoint" />
            <Array as="points">
              <mxPoint x="110" y="280" />
              <mxPoint x="330" y="280" />
            </Array>
          </mxGeometry>
        </mxCell>
        <mxCell id="yu0hHnk2PqovJGhBFxys-13" value="syn" style="edgeLabel;html=1;align=center;verticalAlign=middle;resizable=0;points=[];" vertex="1" connectable="0" parent="yu0hHnk2PqovJGhBFxys-9">
          <mxGeometry x="0.0138" relative="1" as="geometry">
            <mxPoint as="offset" />
          </mxGeometry>
        </mxCell>
        <mxCell id="yu0hHnk2PqovJGhBFxys-11" style="edgeStyle=orthogonalEdgeStyle;rounded=0;orthogonalLoop=1;jettySize=auto;html=1;entryX=0.5;entryY=0;entryDx=0;entryDy=0;entryPerimeter=0;" edge="1" parent="1" source="yu0hHnk2PqovJGhBFxys-3" target="yu0hHnk2PqovJGhBFxys-8">
          <mxGeometry relative="1" as="geometry">
            <Array as="points">
              <mxPoint x="110" y="260" />
              <mxPoint x="530" y="260" />
            </Array>
          </mxGeometry>
        </mxCell>
        <mxCell id="yu0hHnk2PqovJGhBFxys-12" value="syn" style="edgeLabel;html=1;align=center;verticalAlign=middle;resizable=0;points=[];" vertex="1" connectable="0" parent="yu0hHnk2PqovJGhBFxys-11">
          <mxGeometry x="0.049" y="3" relative="1" as="geometry">
            <mxPoint as="offset" />
          </mxGeometry>
        </mxCell>
        <mxCell id="yu0hHnk2PqovJGhBFxys-3" value="&lt;span&gt;mysql db master&lt;/span&gt;" style="shape=cylinder3;whiteSpace=wrap;html=1;boundedLbl=1;backgroundOutline=1;size=15;" vertex="1" parent="1">
          <mxGeometry x="80" y="150" width="60" height="80" as="geometry" />
        </mxCell>
        <mxCell id="yu0hHnk2PqovJGhBFxys-4" value="web server 1" style="rounded=0;whiteSpace=wrap;html=1;" vertex="1" parent="1">
          <mxGeometry x="230" y="20" width="120" height="60" as="geometry" />
        </mxCell>
        <mxCell id="yu0hHnk2PqovJGhBFxys-5" value="web server 2" style="rounded=0;whiteSpace=wrap;html=1;" vertex="1" parent="1">
          <mxGeometry x="400" y="20" width="120" height="60" as="geometry" />
        </mxCell>
        <mxCell id="yu0hHnk2PqovJGhBFxys-6" value="web server 3" style="rounded=0;whiteSpace=wrap;html=1;" vertex="1" parent="1">
          <mxGeometry x="570" y="20" width="120" height="60" as="geometry" />
        </mxCell>
        <mxCell id="yu0hHnk2PqovJGhBFxys-7" value="mysql da slave 1" style="shape=cylinder3;whiteSpace=wrap;html=1;boundedLbl=1;backgroundOutline=1;size=15;" vertex="1" parent="1">
          <mxGeometry x="300" y="300" width="60" height="80" as="geometry" />
        </mxCell>
        <mxCell id="yu0hHnk2PqovJGhBFxys-8" value="mysql da slave 2" style="shape=cylinder3;whiteSpace=wrap;html=1;boundedLbl=1;backgroundOutline=1;size=15;" vertex="1" parent="1">
          <mxGeometry x="500" y="300" width="60" height="80" as="geometry" />
        </mxCell>
        <mxCell id="yu0hHnk2PqovJGhBFxys-14" value="" style="endArrow=classic;html=1;rounded=0;entryX=0.717;entryY=-0.012;entryDx=0;entryDy=0;entryPerimeter=0;exitX=0.358;exitY=1.017;exitDx=0;exitDy=0;exitPerimeter=0;" edge="1" parent="1" source="yu0hHnk2PqovJGhBFxys-4" target="yu0hHnk2PqovJGhBFxys-3">
          <mxGeometry width="50" height="50" relative="1" as="geometry">
            <mxPoint x="280" y="120" as="sourcePoint" />
            <mxPoint x="330" y="70" as="targetPoint" />
          </mxGeometry>
        </mxCell>
        <mxCell id="yu0hHnk2PqovJGhBFxys-18" value="" style="shape=image;verticalLabelPosition=bottom;labelBackgroundColor=default;verticalAlign=top;aspect=fixed;imageAspect=0;image=data:image/png,iVBORw0KGgoAAAANSUhEUgAAAggAAAG1CAYAAACcQAxVAAAAAXNSR0IArs4c6QAAIABJREFUeF7svQd43MW59n3vrlZdsoqLbLn3XjBudBx6DZCEkgbJSeWQvC9JTno76ckJJG9y8pGcdBIOECAU00LHNrYBN9yLbMtyl63eV7v7Xb9Zj1nLsr2SV9JKO+Nrr7V25z/lmdl57nmqJxwOh+WKo4CjgKOAo4CjgKOAo0AUBTwOILj94CjgKOAo4CjgKOAo0JYCDiC4PeEo4CjgKOAo4CjgKHACBRxAcJvCUcBRwFHAUcBRwFHAAQS3BxwFHAUcBRwFHAUcBU5PASdBOD2NXA1HAUcBRwFHAUeBpKOAAwhJt+Ruwo4CjgKOAo4CjgKnp4ADCKenkavhKOAo4CjgKOAokHQUcAAh6ZbcTdhRwFHAUcBRwFHg9BRwAOH0NHI1HAUcBRwFHAUcBZKOAg4gJN2Suwk7CjgKOAo4CjgKnJ4CDiCcnkauhqOAo4CjgKOAo0DSUcABhKRbcjdhRwFHAUcBRwFHgdNTwAGE09PI1XAUcBRwFHAUcBRIOgo4gJB0S+4m7CjgKOAo4CjgKHB6CjiAcHoauRqOAo4CjgKOAo4CSUcBBxCSbsndhB0FHAUcBRwFHAVOTwEHEE5Poz5VIxgMavPmzRo+fLj279+vgoIC1dfXKzU1VaFQyLx8Pp+oFw6Hzdz5LD09XU1NTcrMzFRDQ4MyMjIUCATk9XpN/draWg0YMEClpaUaP368NmzYoEmTJmnr1q0aO3as9uzZo0GDBqmyslLZ2dlqbm6W3+9XS0uLeaftrKwsVVVVmTEdPHhQQ4cO1b59+1RcXGzGOnDgQNXU1CgtLc2Mi3Hn5+ervLzctE1d6hw+fFiFhYWqq6sz47V9MCfGSt+Mv7q62tQvKyvTqFGjtH79ep111llas2aNZs2aZeg0bNgwVVRUmHagQ2tr67HxWppAA77zeDxmbPTHu50jn/MZ8z5w4IDpC/rMnDlTb775pmbPnq2NGzdqwoQJ2r1797F50ic0Zsy8p6SkmDb5HDoyR0sn2i0qKjK06NevnxknL9sntGRtRo4cqR07dph5QVPoBh2o19jYaNaZvtgP0C83N1dHjhzRkCFDzHPjxo0zdGLsdo137dplxszzzJXxskdYT9rg3e4xxsT3vKAZtLN7DJoxFvYRa0Jf77zzjlmLt99+WzNmzNC2bdsM/Zg386RPu3dtO4yBfmiP/ZKXl2foRbu88xzjYd/xog7fQXvaZp7QiXlBt0OHDhlas8ehPWtg15m+aQs6sU+gJ+3wfElJiZkDdGcPQ0eeZ3yMO3q/s+9pg7HYPhgbv0G7v/ib53JyckxbrDdt0wdrMW3aNEMvfneMge9pl/agR3RbtEG7rDvjccVRoD0KOICQRPsCJszBwuFhD5FopsuBDROFEXGg2MJnHDIcThwoHJQcbhyUHPTU5yCCiQAIpk+fbg50DvZ169ZpypQp2rlzpzkkYd7RBztt2EOWz/meMQEoRo8ebQ5p3jkIaZ9+YGIcapaZAAxgeNS1YILD0TI+5s2BzpwYq50HB/rgwYPNQQ49YNbnnXeeli1bpnPPPdcABfqG6XKgWqbLeC1Ioi0LqBgTYwMMWPBAXT5nnjAA5gWAWrlypenj5Zdf1vnnn69Vq1YZBrh9+3YzB8ZGn7RF+xbk2LFbULR3714zRtY0GvTB5HnRJ8yWOjBXQAhgZMyYMeYZ6MaesEwzmgHCrABgMOMRI0Zo06ZNmjp1qlnbBQsWmHfAzZYtWwwdoQlzhcYWXLAGlvGxBhboWIDAO4zLglAYOG1BBxje8uXLDX1effVVnXPOOWY/MQfoaEEg7fI8xYJA6AUItEDKMlT2F3NifKwNTJc9ZfucOHGimSdrxLwADBZIUY/9z35ifS1Q4Pdg6QQ9GbsFycwhGtRYhgytLKPv37+/WQPaoA/727LAxwIEu+9YK9aEvmibPt566y3NmzfP0AuQy+d2bWnP/p5pi3EzB2jPvrcgLYmOQjfVGCngAEKMhOoL1WCgTzzxhD72sY+ZwzP6Zm1vERzW/N9KD5g3/7dMMPrd3prtjY0DzEoZ7M2RgxCmw+d8b2+Q9vZo27CSC3tD5xCLPoQtkIAB0B8vC2aib+z00VZiYPuyc7N/05cdM/SwTI0Dn8Obm6G9UVtGZm9h9B0tObBtW9pFfxdNQwseaJs+YMK2r/boFD1m2rZ0srf8tnSifRg0z9l1s/RhDZgnICP6Btx2TWyflr62L55jjIwdRsc7zKftLd6uTds9Y2lj18/2Y+kDzaLXhL5Yk2g6sZ8sCGOedv/Y32fbNY4GvIABCxLb7iMrxbL0iYVOdh+1pZMFEJZeFqBaaZCVdFjJEH1b4BS9r6IZd/Tt3z7X9vfGmtjfXdvfW/TvmXED3Nh7ACPo64qjgJMgJPke4Na5du1aXXLJJUlOCTd9R4HkpgCSFVQnqFZQ6bniKOAAQpLvAW4NSBEQZbviKOAokLwUQPpjJWVIgVxxFHAAIcn3ADcGDMwWLlyY5JRw03cUSG4KIE3EfgW7Hmx+XHEUcAAhyfcA+lsOBgzO+moJhcMqr21QSXm1ctL9Gl6Qq9z0iKGgK44CYYVVF2rR/eFN+vPOJaqtrtZRZ50uJU6616cRaYWanzNCVxZM1uTMwfJ7vD22L7FLsbYS2DK44ijgAEKS7wFuDG+88Ybe//7391lKVDc268WNu/XOnnJlpftV1dCsqcWFmlRUoEG5WeqfnaHUFF+fmj8GaNFuqT01OUAYhnWJahXfEg7qtfAe3RtepSXeA2rYXKbwkQascI+RzOfxanhqns7KHKrClEx5FHHDjKUEFdKhQK1W1u/R/tZahcIRz4pI8ciLC6g8KkjJ1G0DZusLQxeqKDW3R0ACZwGeRbhj4srpiqOAAwhJvgewlEaKgJtUXy0trUG9tnWPVpcd0ofnTVJ9S0DbD1XpYE2DNh2okN/r1Y2zxmna0P5K8cV++CcivdAhP/vss3rmmWeMKx4goScL1vW4aF599dW65pprjsWr6Mkx0TdSg22hSt0TWqnHvDtV4W1WSGFp4wGpop4KpsC8F2SN1M8HXa3DWw8oMz1No4cXKxbhk9+fqpJdZWpoblZoWKb+o/xZrW88EOmnnZLpTdXN/WfpF2NuVE5KereTCE8G6/GRqICu24niOjyBAs7NMYk2BQaK+JPffvvtfXrWdU0temFjqQ7VNeq2uRO1v7pePq9HxXnZWltWrifWlhjVw9XTR2lIv2zzXW8rAL0vfOELevzxx3Xrrbdqzpw5xmWzJ1UpuFwuWbJEjz76qN73vvfpF7/4hXG57KnCjb483KgHQpv0P9qg7d4aBT1HGXYIgLBfqmo8BhD88urG1rG6pWm8KqvqDYDMzsqMafgw2SOVVQqHQ8rJy9Z/Z72jZb79CihainB8UxMzBuqhiXdoWvaQmPqIZyViYBArgXgYSBFccRRwEoQk3wNIELBeJrJcXy87D1drWck+jRuUr6H52cI2oSg3Sz6vVzWNzfrn6u3afqhaHzh7vCYNKVDK0Yh+vYUuBPP5zGc+Y4zMfvjDHybMIQ8Ive222wwZibmBG11PlIZQi15u2aV7g6u0zHNATd6gjokCWkNSZYNUViW1vit18QbDGrGkSZmvpyincKx8Kb4OKBgiswR+VB9ao/L3pqt8UqqCp9Bmjc0YoL9P+LDm5HS/TRDSJhtUCsmPK44CDiAk+R4g+tzixYvNjTNeJTrYTbzajEc7qBqQIpTXNhoQkJGacux2zZgDrUE9u2GXXtmyR584f5omFhX0KkkC3iif/exnTRjr7373uyZqXiIUbqYf+tCHTLAqAAKhh3uirKvZo+9sW6SXKrYo5AmrJdWjQLpXYbRKwbAUCB6THNjxGYCwtEmZSwuUOWimUv0+pfsJCx0JzBVLQYJwcMdLOnhVWOWT/AqeQoDSkwCB6KPYIGCw7GwQYlnZ5KzjVAxJtO6IgG3+gVNNGwaKCNtGb7PR7RAX21sHz3No2vCzPS3ebm8+SBGwRxhVmKvzxhUb6UF0aQ2G9NflG7WjvFqfvmCaivNzYmYEPb1tHEA49QqsrizVdzY+oVcqtqgp3aOg36MwqqRTMHoLEDKWFihjwIxIXgmvR2mpXvlTfErxeZSR6lNGeor5vKEpoIZmdPnvjqW3AAQAnA0V7bwYevrXnLj9O4CQuGsT95FhyEa+geuvv/6UbXN4EHERNyjAgQUV+EujorAx9YnAxi2R3AvowG0SpbgPvJMNIkV4Zv1ONbW06oazximtHe+FhpaA7n74db1n4jBdO2O00v09pzPvyDQdQDg1tVZWl+rr257Qi3XbFDoNMGgrQYgGCPY7f4pH/XNTdd70gTp70kABLpevP6BVWyvVFOh9AIGYKEgRXByEjvzqkq+uAwhJtOYwdw4GEtCcqqCKICscls4cIsS+txbq9jOAA0lmqAcw+MQnPmGS8iRSqWlq0dLte5WV6teCMYMjiYTaSBGQkiBl+N83t+hLl8/WmAF5vUKK4ADCqXfaW7W79dWdT+rlqq2nlBpEt9KeBAFM6fdJKV6PJo/qp/ctHKMh/bP19qYDeuOdA9p1sFGtoXclU71FgoCE0EZSJOeFK44C7VHAAYQk2heAAyQDl1566UlnDcMkdewrr7xisuWRIRCQgCqBzH0ABZuREbDAQcNr/vz5JqZ7rLra7iA7ro1v7zpwLPaB3+fVhKJ8+dsYZTUFWvWfi5arMDtDnzhvqnIzIumkE7k4gBADQNj1VAQgxFiibRCyi2aqMNev0YNSNTA7pOrGsEYPL9J75g5XelqKtu2u0gtv7dX6HVUKht+1T+gtAIFsoWSERCrI79wVRwEHEJJ8D5C9jdS/pF8+WQEgcHCsXr3auKghHThw4IDRV2KRTiRGVBVkgKMe2eNIJQzowGAukQAC3gpIB+qbA1q377BaWkP69AXTNXpAv+PGyZw37T+ie19arffOGKNRA/ppaH6OctJwG0zMTeMAQtcAhJFLmzRwVX9Nm3qWLpyer3MmZcvXWq/Hl1ford1+3XLZOBXmpunvz2/VOyU18nhJd+41NgmRbJW9w0gR6QGgn5goiSb5S8xfXHKOykkQkmjdyTm/ceNGnX/++acECLiqrVixwhwe3C4AAqSkBQDwPGoFErwgSZg8ebJRWZDLfsKECQkVRQ898dKSfVqxc79qGlvU0NKqiyYM1QXjitUvM13RvD8UCuut0gNaU1YuJA0jCnNN3IThBTnKTPUn3C5xACG+AIG9kBvy6aKtqZpfOVCXzB2rscVZam0N6+2SBv19aaNqA6l630UjVJCbpodf2qENpXUmOiIAgeic2CkAKHuDFwPggN8vv29+u644CjgJQpLvAYwNcW2aOXPmKQECQIJ6gALUCNw2uGUDBPgOVzYOGG5MgALqIKok6EoiSRAwLq+oa9TK0oMmXM2Ighwdrms08RAAAG1DLpuQxeGwDlTV64VNpSb6IiqJy6eMTDiQ4ABC/ABCuryalJKl81LydWNogCZl5CrNn6LqhrDWlAb19NqA1u4OKivdq4nDc5We5tPmXdUqr8E6MQIzkSD4U/B28OhI6cs6dLUS2s0RaSJqBsBBX46smuRH/hlP30kQzpiEvacBDoStW7cae4FTqRgwZmxsbDSiRxMh7sgRo1bA4pkgS9ghACAwbkKSUFJSckyKQIC6iNF4+7J5mDBuYXzdXWCCIEkURlTXHBA2B1lpfmX4342NYOmB58PDK7dqX1WdctPT1Nwa1EfmT1R+VkZCLbQFCACzz33ucxo8eHBCjA97lS9+8Ytmj/RkHARjpBiDDUK+J0VXpw7Ue9MGaUFqvrI9PrMvG1vCWro1oIdWBLSzPCT2NYETPOwiD+kb+ODEPU707rp9r+nIdQCE1ISNg8Blgd81dkPJEDgtIX4cvXAQDiD0wkXr7JC59cPYZ82a1dkmjj0XHSCJ/zcGWo2+/3Bdkwqy0nXhuGJlp7+bJc5EmGtsNqGO91TVakB2hqYVD9DgfrHmog8r2FSjYGWJgo0VJ4zfk5KulIKx8qblKlhTpmDdQYWDgcgZftRPnTq+3GJ5MgcpWLNHodoypQ6aLl9G4TFLdwDCH5eu15u7DurcMUN07tghGjOg3wmGjWdMwDNswAIEpDsXXnjhGeuRIwzvzEEbN9N//vOfBrAkOkDI8/j18fRifTxjmIb4IionC1qbWsJ6eWOL7nu5RXXNsS8WNgj1+19T1Xu9CQ0QnAQh9jVN5poOICTR6nNjQIKwYMGCuM+a7In/dv+LamxpNTfzuy+ZpVvmTjzWT3MgqFe3luln/1qp/TX1BiB89sIZet9Z4+SNIRdCqLVJdWv+rObdS+TvP1Ee//E3em9qjlKHzFWouVoNGx42DD8lb4TkPWo/EAyotbpMHn+6sqbcrJYDq9W49Sn1O//rShsyW/K8G24WKcPrgJ3aRg3Jy9LU4v4qihnIxJ207TaIpwmhlmHs5D04E0t0vFAI3Uxb06ZNO6N4Fuyx3/zmN+ZmSp6InoqkGIsE4da0wfrP7HEa6E07QZoFXtp2oFU/ebpJO8vbT7jU3sL0FoDgbBC653fa23txAKG3r2AHxs+hUFpaqhkzZnTgqdiqErb4pvue0vxRRdpTWWcM/P7+8Ss1JC/bMJ5dR2r0g2fe1Ctbyozh3+aDlfo/C2fp9gWTtfNIjRH5E4MgM/XdQEXltQ1at/eIBuZkaGw/qeqxmxWs3qPCG/8qX3obwypviuTxqmHjI6p/52/KnHSDMqfcLA+fI0QItqj+nQfUuP1Z5c69S601ZWrY+A/lX/n/lD78fGONHl0Y85H6Jh2orjdjG1nYM2l5T0Z97EAItYyo+Fvf+pYJVtXZxEjcJkmyxJwvvvhiozrqTCE2Bt4vd999twnh++CDD/aYfvt0AAFpwR9zpum69EHye9rP6rn7cFA/f7ZJ6/acPOFSWzr1FoDgvBg6s8OT7xkHEJJozXFRxAsBkXS8CxELb/rtIt2xYLLJkPjzF1fpG1fO0efeM8u4Fz6+Zru+9/QKzR1ZpLED+um3i9fp3xfO1Plji/XHpRs0ojBHHz93qnEvNAw9HNayHfv0g2ffMqL+O88do9bXvqbmvcuVM/cu+TIiAAGtsDc126gXPCmZqlv1OzVueVI5c+5U1szb382/EAqqdtX/qH7V75U96+MK1h9Uw6ZHlX/lr9oFCJY+jKMpEDQx+bvLZiKWtSHK5cMPP2xu6Ria8Yo1ba9RCTU2mnwJgAHsBbBP4XOCX/E53xMgi1es88ZYFQkCgOP973+/kWx0FrTEQoNT1TkdQAAS/CN3lham9ZfvJPYyOw+16qeLarVpXwfSaBOm/OBSVd2QktAqBhcH4Ux3WHI87wBCcqyzmSW3TW6eiJHjXSxA+PT503TnRTN02x+eMz7hf/ro5SYHwtceX2IkC9+9dr7KKmv1vUUrdOfCmZoxdIC+//QKTSzK19evmmekCBYgPL+xVJ9+4GVdNWWkfnj9fGXWblXLgbUKAwuOqg5CLbVq3rNMvsyBypr8PjWWPK/GLU8oe86dyp4ZldY6HFLdqt+rbtUflD3rYwrWH1DDpsdOCxDiTad4tsd6btmyxdiVYFgKg46l4N6GnQDvt9xyywmRNdesWaMnn3xS48aN0xVXXBGzGxxAAsNWvF1wf+2sJCKWOZyuTmwA4SwtTC+Urx1jQ1QMeysCemBplQ5WRcVSPlnHHu+xmBktjfu0bHatSoa0qNV7cvVETyZrQoLA/sGDgZgmrjgKtEcBBxCSaF8Qz4BIipdddlncZ30MIFwwTT+54Tz9dfkmfe3xpbrl7AnGyO+XL6/RjbPG6mtXztUjq7bqP59arjsvnqnpQ/vr+8+8qfGD8vWNq+Zq3MCjkoFwWNEA4Uc3nKt+6akKtzYp1NoohSPMMFhfrurXv6dg9W7lzL9bgcMbDOPPnv2piK3B/lVqrdwh/4DJBkjUr3tAOWd98ihAeFT5l/6X0kcvPAY44k6YbmiQNN6I92MpBLx66aWX9I1vfENTp07Vz3/+8xNSMm/bts1kiCQexne+8x1dcMEFxuU1FkkCEgNesdSNZbydrfN27W595RReDBEJwikAgserxnC2yuqzTVKm0xUSHiGJwWNmR3O5fhhYqk2eCgWthWw7DfQkQAAc4plUVFTUYym5T0dT933PU8ABhJ5fg24bAVEPORS4Gca7ABDe99tF+tQF03TP+y7U3qo63f2P17WkZJ/6Z6WbcMc/u+l8TS0u1F+WbdR/PrXCqBiunDpS97ywUtvLq3X+2CHGZsEwF6IbHqjQQyu36ebZ4/WDa2YqZfujCjfXHTd0JAhNu16RL3OAcs/9sgKHN6n2zV/LlztcqUNmK1hdqsChDfKk5SocqJOCAeWe8x8KK6S6lb+TL3uw/P0nyOM7PryyJzVbacMWKAwYkUdpRbNijukfb9rGoz3UB0gZXnvtNf3iF78w6oSvf/3rRt3UVjWBiuH555/Xvffea26YGEOec845xqW1pxl/rLR4p36fvrLzST1fualdFm1VDBenFSqlHRsEVFet3kzVhbJNanDotcfTrFWeejV5TpTU+Lw+EXG5orVB7zTt17LG3aoNNZ8CHkgTMgbqfyferpnZxbFOK271bC6G7Oxss66uOAo4CUKS74GulCBsO1iph1Zu1ZwRg0xgIaIY4tnwzPpdCims+SOLdOGEYSagDK6Or27Zo3mjijRr+EBtP1SlzQcqjKuk8SyP4AOt3VOu+1ds1gcMQJil1N3PKxxoOHEVfWnGs8Hff5LxYsBDIViz92hDQSN1CDYcUXPZUnn9mco95wvyD5iiQOV2BavLjAGjlUgca9yfpfSh8xRqqZNam5Q6aEavAwhIC4h6iXQBmwLAwVNPPWXCZn/oQx8y3iwny8AJmHzjjTf0yCOPGFXBddddZ+Jn8H9uy6ipEjlN8JFAvX64+3n9/sByw6jbK/dmTdSHMoYq1RMJk9y2BMNSc6vUEmhVa2tIL4UqdG+oTJVqX1qDMqE51Kq6cIsC4VPbLaR5UnR5/kT9dtzNGpTa/UnOkCAQQh0JAnYnrjgKOICQ5HuAGyQggdwJ8S4twaDqmgLGmM+GJm4NhUyIY25f2Wl+E53OHKKBoAED6Sk+VTQ0aVnJPuPJQAyCo+74JqLh8h37DUhALfGxcyYrPfyuauHY+DnYvX55U9IlPBEIxBRqUTjQhOvC0WoehVqbFTi0ToHKnfL3H6+0wbMjrpLBFoVDgQgiiS7olP2ZEeAQCp7gVhlv+nVFezCAr371qwYQABL4u7KyUtwai4uLT8vgeY7MnoAL3BYJyoT6AJDw4x//OKEZSzAc0vr6ffrVvtf1xJF15mbf1hpgsjdL9+ZO1jx/ngmZ3F5BZYBtB++PNx/UVxu2qjx8epXDqdYzw5OiS/Mn6u7ihVqQO1L+Nh40XbEX2rbJWQAIdBKE7qB27+3DqRh679p1eOQ2CROGZ4lQOLD3VNRq8fa92lN1vOoAhk1OhNH98zRvdJEG5mSe9BCPdS7h1mYjTQBIeAEHUbEPYm2jN9VDVbBjxw4FgxEReXQwpFhVBe09h64dkJnIEgTWKRAKal9Ltd6qLdVr1SVaW79XB1pq1BQKGLCAY+v3ssfr+rRBat/R8d3VRqnwfMth/aB+u44AKDtYUjw+DfRna1LGIF2cP07n5ozWsPR8pR11w+1gc2dcHW8Tm83RSRDOmJx9tgEHEPrs0p44MSyXuUV2hQ1CZ8mIKgJpAtKGtgXvh7QUn1J9uBh2tofkfs6CgnhTIVaAEe9+O9oeHi/NoaDqg80GGATCKLz4Fyn9vX5le96NvXGq9uvDQVWEAqc0PDzZ82xfQEK6N0XZvjTzbsI291BBeoAXA14nzouhhxahF3TrAEIvWKR4DfHQoUNGJ33JJZfEq0nXjqOAo0AvpACqJuwQkB64bI69cAG7acgOIHQToROhG24MZWVlxr3NFUcBR4HkpQBRVVEzEKLbJWtK3n1wupk7gHA6CvWh74metn37ds2dO7cPzcpNxVHAUaCjFHAqho5SLDnrO4CQROuOSHHz5s0677zzkmjWbqqOAo4CbSngAiW5PRELBRxAiIVKfaQOt4Z9+/Zp/PjxfWRGbhqOAo4CnaEAuTxwX83IyDD5NlxxFGiPAg4gJNG+wINh1apVuuqqq5Jo1m6qjgKOAm0pwFmAPdKwYcNMsCRXHAUcQEjyPUDMfpL7kEgHH3n82Hknzj7f8Y7PvIkpHwqZELz2nc/5m3eC5VCf5wmmww2EGwnvtj2ew8XOPkObBOvhPboP6y4X/c6ztj590QcR/+iDGw9hYgnWY/tkLNSjXduOde87zvc/HJRHIQVDks+fdmwctg5jtfOytyub1dCOwc7P0sHShTbo2/7NXBkT75ZOzIHneedzG+I4mqaWtvZZOy/oQaEP25elk107Sw/GDH2gE2F07RwsnWxSJzte3u0604dtn/fovcB31IteE7sW7dGJebelj6V19L6ya233Ic9Z+tl9RB07z7Z71+6r6Dmcik5t95Nda7u24WBACrVKvlSFwjq2h+3vIXqPtd2/do2YN/OxfbWlk+0rep6039Yttb3fYfTe4HvGYNfS9tl2z/F5NJ2YM39joGj3VpIfj2767VDASRCSaFsQPe0Pf/iDPvjBD4qMfTNnzjRuj3g1bNiwQZMmTTJxEoYMGWLS/+IfzTMwZaye+ZtcDtw6SOgzffp0LV++3CTzWbZsmS6++GKtXLlSY8eONfU5vHgGtQZR+MgkSduknca1irgMNr4/BxiFdw5Tvrc3HKQe8+bN06uvvmqkH4899phuvPFGvfjii7rooovM2MeMGWOssm3oYMbNoQnT5ODlEExrLld20x4drGxQ0YQ52l/ZqCEjxqimptbUIVogAIp5Pffcc7r88stNTgLmtXTpUmPcCb34Hjq0pRN9o9vl0GXsZDXE5gM6r1jbPTZsAAAgAElEQVSxwtCJuZDXgH5wMWOM0IPIhsyDGBXr1q3ThAkTTLKkwYMHm+iH1IWeMH6YDnRjjbj9bdq0ydRfvHixFi5cqGeffVY33HCDHnzwQd16660mORN0YizFxUPUWFulUGtAaTkFwvWVcePhwjpTYF6sG+vDukFL6ytPKueRI0fqzTffNPP4xz/+YdI6E8IZ99klS5aYtSKtOPuJ9gcMGGBSQFvQwhqzVuR5YG8MHz7cGM+yD5nLlClTVFpaavrhOYCBnSfglr5nzJhh1oJ5U5fvoRNW+TA+2xd+/tCX76E59d966y0TZprQ04yZNb7i8su0cvkSzZg4XPX7tyq1+Yiaiuapqslj9iLrzXjZ19CePlgPC/aISAgooPA9vyNUeYSrZt3tnmVfkf/CzoFMnMzf/r5YW8vkaQu1ILRnbtCRdocOHWroxv5j3Wz4a76D5rQ9e/Zs85s8++yzDZ3YV+zJQYMGmWcACPw2+J6xu+Io4CQIbg+YQ4xDh0MVBsYBNWLECMO8OXjsIQtzsLd0biMWKMCUOKg4oCwDtAc7jJODnoOLPrgNwXR4hsMV5gkTtochhxQHLEySWxEFRs4hyaHFwU5fJSUl5rBdv379sYMP5gTIIScAc4GRwkxsdD/asMyO9mk3taVS6WUvKrB7hTILh+ugp0gF4xaowZsrb2aBsnP7ae/evYYxrV69WrNmzTIMnT5gXIwBps330Im5ME8rQaFvywhhgDBXQhUTdRDmBJ2YC4c4hzXMC2DCgQ1j4zPmQR8ABgukLJOAnpYh8c4awbzog/owZcbKmMmb8PrrrxtmRAZPPqdeYb8shfa+LTUeUXjcNaZvaA8os7SD+bFurA/rBi0teKAe8wIgTpw40QAn1gKmBBBiDDBh9hNAkrWmDdqyEivmzJzYX3Y/wYBhlNCA/QiwgJnRH+OxgJE6W7duNWvAujNv6vK9pZNl3DBA+mBNLJ3Y4zzP2DesX68Z0yZr1ZIXNHv8EJW8+YxGZxyRL9QiDT5L1cOuVEOrz+xFxmlBB7S30Smt1I09YCUzfM+8GZsFPDBrQAlrwz5gDPx+iGbIHre/Lyvl4Z1ipUGsNcCTcQAWrYsi9KE/1pA9yfxYGwAzew6wzn7iN2nBK30BmHiubaIud0Q6CkRTwEkQ3H7oEQpEqyBg4DABy8hPNaC2onCrdrDPwEStqsGKpfmMg5y6xK5LCzfKs3+VVPqa1FQp9Z8okYwpu0jKHiSlZkvtZPjrEUKdQadWJM/8Ld1aG2vl3/eGdGi9wgu+cEwNFN0Nz9m14J2/7XrxN7TsvYwlbDJ6qrFSajisUFWpwnvflq9qu1pyRig86hKlFE2XJz3HZHFknla6ZfcWn/Fiz1qpAfTjs0RIdX0GW8Y96ihwHAUcQHAbokcoEB3JDZEstx5umtyATlW4LXKT4h1ROLdsbpMc1NwS7ecwMm743B6px62LPmB0iKnpyyRoqt4t7XxJ2r9aSu8nDZgi9Rsu9RsmZQ2USALVSwuqCubKbZabp7ldbt6g6bmV0o4XVH/Ot82tG4kA9OJmyU2VujA7JBzQlJs6zNFG3uNmz+e9JdyyWb5QUGqulmr3S7X7pCNbpYrtKtu7RxW5MzXtmju1fPVGMy/mjkQHKRl7E/qwb5C2ADKRhLAHoQc3eGvDAJBAwuHSJ/fSH4wb9gkUcADBbYoeoQCiV8TTqCUQq6PLRgyKjQGHMOJPq/tGxM0hDLPnhY76n//8p9EL8yyMCoaPXhpRNwyMZwAIAAcYHjc71Ckc8tdee60RMR8rAAXSOh9aL5W+LtWXS7nFUt4IKW+k1G+ElFHQ69I9k6oZsTa2CahOsEd45aUXdeXkTGVue0Tbp37DiLgRdcPUAFuoI5C8oPeG+aHLxn4CMTs6e1QWiK1RtyS8cRvrSnrwuv1SVWkEDFbtkoLNEanR0Pn685NLVFq2V//xH/+hr33ta7rtttv09ttvm1ghqDvYN+wxaAFgsKoXK8oHfPI56gTogQ0I+9gVR4G+QAEHEPrCKvbCOaCDxViMGxfMHJ0/TOncc881B7M9gLkBY2sA08dI8bLLLjOgAsM7QAafcwvmYIbJ8Rn6dg5uROO0DRMEGCC1oGCYho72hAJDIb1zQ7lU9kZEqoCqIQ+Jwggpd5jUb6iUktkrwAKgAOYOaOJGjLGcz+dVySt/1dzWxXpl4F0aMHDgMQNNGBxrAm0AAVZXD8DgVo1BKoaaGLYBsBITIISl1map/pBUvUeqKZOqy6TGw1LOEKl4ntR/gpSWq9q6et13331GIkCGU/7/iU98wtjRMH+kUexJ9hU6f6QoSBPQ6bPvkEhhGAhQ5W/q0Q5gwRVHgb5AAQcQ+sIq9sI5wHxgYBQYOJIBbqUwdBg7wADrawDEokWLjKU8VvkABL6DkfEMBzeicEABDItDGyM3RMIc2IiBuRmjYuCmR/swSuqctuDqdmhDBCwgls7Ik7KKpNyhUuHYiArCG/G+SMSCjvynP/2pMRqERngx4Jnxj198UR8YWqaX+31MYyZMMtIX60ZqjeqQvLAOMEpu1DyPBT7gCgbI5wkFEFgr7AqqdkakBXUHpMYKyZ8uDZwmDZkjZRYeZ1uCx4UFAYBSgOgdd9xh9hz7BiCAtAraYHxpvRfYt9CU/YRkgZTaPAPNzj//fCdBSMQfgxtTpyjgAEKnyOYeOlMKcPNChYDqwFqEcwBzW+VQ5gBGJYB1OAACEfejjz6qj370o8Y6ngMdxoUuGEZIfaQGMC+b357PYYowAcTEMDwYIN4JHYomif664ZB0cF0EMLQ2RQwZAQiIqvNHSWk5RCk4U7LE/fnHH3/cuB0CmLCkv/TSS7Xhpb9pauNiHZr1FVXWB4xKB5CAqoZ1waoejwes9rkZIz2AAeIii3cEqhvUEj0OEKwKAbUBNgW1e6WW+oh0B4nPoOkRFZE/4r7ZtuDlAbBk3z3zzDNmP6KGQVJgpU3sJQABqhfogo0G9EKNAE35HgkNtguAhTlz5rjAQ3Hfxa7BnqKAAwg9Rfkk79eCAksGDmUYuXVpRJRrDcJgXBy+HOLXX3/9MfsE6tq4Bxze1AEgRAcg4tAHONiAQ9z6cPGifscLOu3GiC77wBqpZk+kidSciL1C4YSIGDslreNNd9ETloY0b4M0hQA6a/6i0IIvKZSebxidNVJE2gKQsp4M6NwBCUgQYITWEA/69YyR4lEVAhKC8s2RtWipiRicZg2QBkyNSHdSc3ErOCVVra0L8wCosgcBRRTrsmjdUHHbtJ4L1ANUAFoBqEgQkEwBmHBptTEjumhJXbOOAt1GAQcQuo3UrqPTUQCxLozcxgdoW5/bLcyqZxhTm9HAkHCRRKJweIvUXBWRIGDMOPKiiFQhUQvMdc9yadTFUlq/U44yOhIlFdv+3a1TNCqf9ZGxY1RqwFm2VDBOGjhFyhrUK2xDupVmrjNHgTOggAMIZ0C83vhotE98dEjdWOcSHcK2bVjY6JC9bUPERvdl22jbZ9vwuDb07On6jA493PaZk82rvb7ajtn+3XaeJ7SJVAFpghFz75N36BypcLwJ1WsMHtPzJV9aRP9df1DyZ0V05bZ4fAojgfBnHRfm+GTzbvv5yf6mefNdKChv/QEpp1hqqTXufUb0jkEmthW2+DMVzhqksD/ruJDObel7qrU91ufR0NMno50JD4yNANIWVACVOyMqGxg+QAs68T2gwJZQq0JVu+WpP6hw1mB5BkxUOKdYHn+Gwu0s9OnoFP1I9N491X7qzN492T461b4+1e+xvXl1dO9akJ0QYDvWw8fV63YKOIDQ7STvuQ45+BAdo+fHJRCDPhs90UaCQ29vY+LbkfKMDbtsw83yN2JVGDJW4Nz+iUeArhbXuldeecUYA2L5jl4WIy/Er1h8Y1GP6B/1gI2miCcCelykBKgJENsScdDmjuAdvTf9WDEwemJ0wRiTYTSHvQF98Dc6cxvBEdUD87N5FuiLeWDbwJhthEY8I66++upI6N0rrjBhcrGHQAdNfZ6HPoybNhAzMw+rvoDhZvmCGjNmlDz43Bsx+CYpp0jKKJQGTpdKnosYzO18WRowURHO5lEwZ4jqlGPGYiPsQQ/E4LRvVQXMxYYoZu2w08Bok7WEBojCUc+gTrCuniXbt+n8qcWSN0Xav0Y6uFYaf7XkS5cqtkZcOhmHx6vDgQwdavAei4CJKgF7D2w8iAKIFwNri7Ejbo+sMcZ9GH2in4fhsB+IvYCtAkakzIO1smvA/mJOYwdlyadgxONg92Ipf4xUPJdEGRFDQ4CM9SIJh9VSe1hryho1Zuocbd+9X0WDhxhDVbt3LfhF1A+9rJEq9GBfMUYb9pvx8ZwNj813xI0466yzTLhwfh/sZfYg+wm7F+bCvo/O08FetGGQ2Sd4gNAOz2Mjg80G9GGNoqNnsn9QT9jQ5tb2g/2NBM3uWZtvg33HeHkOumIjwnpjyEsfL7/8srEveeGFF4yhJJ/zPXucMdvQ0NDd5oGwKpHeG/Sq587SZOnZAYRkWWnJHHAc8hjswRg5PDi8YXIc6hxG0QfSsYtbKGQOJxtyl8ML3TQM0+Y5gDnATGBQHEw2PwB2AjA8Dma+52BGd2tjztvDyh7ouCPagEcwf5vzgLFiEEY/0fkWOGRtWGPq0geHLCDEhvONTrBkQzkzfpiLNUKDQQBiONhh0hiv2bDRjJn62E3YJDxWf211z8fC7KamamDGUaPGyh1SzV7Jnxm5uY++NOKTXzRLWvpTaejcCIl96QoNP1/NYb85+KNzF0BjGxHSJkmyTAlGgc0AdII+qF+sVwcMgRdM8tCBvRqfdiii/ti6KGJQWTRTaqqO2FIMnBwBCLnFqssYoZrmSORJG4cCBojdBowSAAYQI1ww7zasMvQ2kSqPhs22iaKigZRNwsR8fF6PBoYPyquQdPCdiC0BQapwQYRGBWOluoPSvpVS7mADolpTcrTbM1IDiwYbexUbwpmxAg7syybdsuGoYbjsK9aauVgGzHO82FOMH9qzDyzAtLlDbIhwG1bbJouygBM60SaA1IbXBqAC3gAMth2+Zx9BI/YN68i42MO8w8htHzbkMnOySaJsNFCbh4P1BnTQh/U+IZ8HBrjMhbFYAGVtfixtrN0JINMBhCRiAh2cqgMIHSRYb67OQUUin09+8pOJocfvzcQ81dibqqTKXZGbeqA+cnP3Hw3fbPT+uZEwz+j/w0GpokSa/iHJG8nYGPcSCkhlyyM3881PROwjBk6NjAlmzHgAMEg5Bk2LqEa6vIQj0gxsCfa9HYlyiDsi4zq0ThpzmRRsiRgiQhdLpxkfcXYGZ7g2gA4kFoB2AAJAwxVHgfYo4ABCEu0LbsLcigl040oXUoBAPagQ0J83HIlY0+PhADMec3nE0K61MRL+l9C/AIrZn4gwxNSs+A+MccCEkRg0Hon0N2ByJIw0fZpogwcixn5D50UATVcW3ESRrBDECPsNaMHfhLhm/jmDI/QCQLQ2SI1VEaAF0AEguHLGFEDCg7QCaZ5V2Z1xo66BPkcBBxD63JKefEKIn9Hlk33PlS6kAMmAEJkDDridY3jHDR2JAfYIeD/gBQHDO7QxYsSY1V9a/kupaIY04sKI22S8CsaIVWURTwtiBKTnRVoGIKDjBzQAVGxYaerEuzBfDDb3rJD2rogkTEKaglsoQAk6mbFURAw807IjgY+MIeXeCC2xUYgnXeI9x17UHqopJAioG1FFuOIo0B4FHEBIon2B/hWbACdB6OJFNyGbg5GQv4jrEZET/996MtjubaAfRP8wTNz30MdXbJEy+ktjrzBphyOBfs6QadM+Y6IwjgOrpV2vSgvujgAVvjdjjaf04GjcCAw1S56PeCogJQAE5Y0+GrY6PQKWUlIj74wDz4bobJpIORijATRdpIbp4i2RaM1jaGntQ5wEIdFWJ3HG4wBC4qxFl48EFQMGWDNnzuzyvlwHHaXAUebYXBO5aRNfAcCAOoD8ASORKoyMn30ASanW/V265rcdHejp68PQiW5YujgiLSAc9bD5ERsDUmojSWkLAk7fqqsRRwpgeIlRb+eDhsVxMK6phKWAAwgJuzTxHxhiRaycL7roovg37lqMHwW4SaOnBxxUl0aAAt4Gmf0jxnu4Alo1QUd7xR6BmA2bH5e2PClNfK9UOC4irTgjKUVYaq6Tdr5iUkmruTYS6hibBhOKul9EEhItGejo2F39uFHApva2yaji1rBrqE9RwAGEPrWcp54MhwLucLiqudJLKABDt2ABr4jtz0cMCoedI024NpJzoCNqAdrCk2HRJyPtZg+W5v67dM4XOgcQkBYc3ixtfFQqWxZRH4y+JGIEmZEfUQt0ZHy9ZFl6+zBxucRVFJdaXDxdcRRojwIOICTRvsAoiXj6733ve5No1n1lqhg1BiNeB6QvRqePDQFMeNIN0tBzIlKF6Bs6kogTDA7D0t63pIc/INWURsT+C78vTbiufULRBiW6HT5DhVDyr0jgJyQPE66PAANiLWBTYVw2z9Buoq8sXQLOg/gIqByJwUAMB1ccBRxASPI9QIAXArJ0LlFRkhMvoaaPEWRIaqqJGBtufEQ6sl0afq409eaIygBjvsU/lCa8NxIIKboQufCNn0tv/DQSvOmqX0c8B9oWJAwrfycNO08aPDOSKbH0VWn9gxGvgmHnSuOvjbSPlMCpDxJql5xqMAAEjJYBCASccsVRwAGEJN8DBEp69dVX9ZGPHO9LbqOqRS6KnmMJeSy54hWv3YZ6JuIekRmjI+DZvqKTATEuIs61jeeP3pQ2ADvWRcuOEVdOgsDwOf8nbDOR52ykQ5vZkb55xkaDtLHsbTv0SSQ8IuIRaY+ohUSjo1++s6Fr7fiIZhgvOnV4m+KdUHdI2vqUtOEhKb1AmvIB6dHbpIw86fo/SmOvigrEFJZ2vCQ9fFOEwV//p8it/91FiMQoeO0/I+1NuikinUDyQFKkqbdEwkXjvtkVLpEdJoB7oKMUQMWAupHfiVMxdJR6yVPfqRiSZ60NM8QOgVsDBUaHJfOiRYvMZ0RUI/cAN4u33nrLhPgl9DDhdG0YW5Nk5yiIiA4DS3vUh4nyHp0ul89Qb6xYscL0zwumDaO3eRnQh1qAwu2Gzwm5jCsWQV1sKt4nn3xS9913n+6//37zOYwbESlpoDHCfOSRR0weh1mzZpmY+YydaHEAAsABRpr0zWeAB2LYE/62tLTUMH3aIx4/Vt58R9hoxka4aGhEPXI08De0IfAUYYeJf99jACF6D4dC0t43pVe+HgnWREnJkC7+nnT2J99NhkQY6CU/iYRdvuy/3m0Bm4c9y6TXviftfFUKByKhoi/4pjTrY1LmAAcK+sCZ4QIl9YFF7IYpOIDQDUROlC6Iz75kyRLdcsstxwACt+Snn35at99+u8lBAGDg1kyMdxgp8fMBDTBqG5OemPYwSg4ZGC3tUmCUNmkQjJNnyfnArRumD8N+5plnjJEkzxL3nqBNBG+iP2LCjxs37lisf5LfcNPheQpR3/7617/qmmuuMfVJgEMMeoAE8ecBOISStsZXjJn2AAa8ACoAAIABCXQYL5+TUApJAADggx/8oEkk9Le//c2AAPscgIWEPSQoWrZsmaER+Rr4njnwd08ABCPNCIUVCIYUsvYCEOvvV0llS40qwqOwvP5MeabfKl3wLbWmF0ZiDux7K6KimP2pCDjDvmHbMyZPRBg3S2NC4ImoDm56IGJj0I7BIfP2GeAo+X1eeZ1UIVF+8icdB78RGyjJhVpO+OXqsQE6gNBjpO/+jmGC0WJ5K0Z/7rnn9JnPfMZkLSSQEhIAMtqhBiARDMwRQMA7DBnGijSAW/OLL75ossjBjHkepo8qA0AA06YNGDNgA1H90qVLTXIhxsL7ueeea7JLwmRgwDBwkibRB+0RxIXnKUgKfvCDH+hnP/uZkRSQUdBmpnz00Ud1xx136LHHHjMMHtBA37NnzzbSA6uuAIwgVkWSQJZJMjdyQJL9jrEj3QB4AIqQFCB14Vnasxn/yNIHyAEoocbAbXT69OldnvQGc8HQUTDQ1Nqq+uZWVTe2aOeRWq3de0QV9c3vggQ8FRoOy9Napww1K9fTpH6+VrUOnK4dQ98XSSIZaJAnUK8wUgFJqbWl8pUtUXNtuUJkesQDAemDP10afHYkBPJROwOf1yufRwYMpPp9GpSTodw0vy6eMERD+nVBuOju/7n06R75/QHY+Y3wcsVRoD0KOICQRPuirReDBQiI7T/60Y8aEIAEAcZnM/ehp4RBYtgIIwUQILanHjdnRP233nqrYfAPP/ywkU786le/0oc+9CEDKP7yl78YKQNpgv/+97+bGz3W00gLOKRgrEgIABiEfeUmvnXrVsOgyRYIw7Z6f0DGP/7xD6NiQFJAmwACUjMjBUHNwOe0ifQC6Qhz4abP3AEKSC64PQGE5s2bZ55jfAAGJAaAmiuvvNJkvQQEISEAMNE3kgfaBeQwPiQOzIXAU3yHqqIry5H6JpUeqVPJ4Rqt21ehNXuOaOP+KpXXNxopQncUhAopXq9y0v3K8vuUkeoXYGV3ZZ3yM9L19Gcv14xi5zbXHWtxJn1gp4MUjr3P784VRwEHEJJ8D8Bs0dMj9qcAEDgkYLIwRpg8N2NuzatXrzYifW703MgBBPYmTR30/NzOuU3DwHkGRmxTAL/++uu66aabjKgeUED79INkAKaKhIEXEgT6QLoAw4UZ0wZMnhv8BRdccCzdMWP+8Y9/rG9961umDs/YVMzYM9A/TB0piU0pzbhoF3AAyIGJc2Nat26dCTmNygIpCeCIw5K5AjSYF2oSAALP0D5t8hl9QkOi0NEXY0Uq0dU3sb+9uU1/WLZFFQ0tamk9GjY5xj2dmZqiotwMowrYW92ghpbWGJ88vhoAYVBuhrYfqhGApTkYOlZhcG6mAwidomr3P8RvFgmC/T10/whcj72BAk6C0BtWKU5jRBqA7h3RvC3WMp+/uR3DIPkMxgiA4DNu2xjwwUBhktz+qUNd6nDY8FlaWpqRCvDOZ9gPEHeB/mCk3MqROsCsARyoEjAC5DZOscCEZ/kMkAIIoR8kDIwdgAPgYC6ADRi1VY2gMuB7xgCYoQ52E4ATwANjpC6SBZg7KgNAC4ydcXGrQgVx3XXXGUkJqgZABXMFEGG8Sd/WSBGJA+NC6gGw6ery7adX6vvPrT6hGxizP8VrQEN5XZOCbaQJqAHGDcjVly6drqKcTP3fR5dpW3nNCe2kpfiUm+5XRmqK6poCqm5qOaEtAMLwgmztqaxXMNrmQZIDCF29A+LXvpMgxI+WfbklBxD68uq2mRs3dkTtEydO7NCsOUwoiOth1rEUmCpie24piPI7WgAe0a6H0a6O8TQGZJwAh2j3zni239F5n6r+yQDCLbNHqyArXU2BVr1VWq7qxoAqGprVGgoJyUFOml/9s9L1mfMn66zhhbr1jy+rqTWoxkBQ9c0B+bwe9ctINQx+TP8cDczJMOqLt0oPqyFwvKTBAYR4rmjPtcXv0noTdbVqrOdm6Xo+Uwo4gHCmFOxFz3Ob5taO2N6V3keBkwGEyUV5SvF5DYMvzEpTQWaaao8yfj4bUZht7APGD+ynvMxULd95yHx/sKZBe6rqhcAh1edVRUOT9tc0GvXD7oo67a/BvfR4OjmA0Pv2TXsj5izgsoAkzaV77htr2hWzcAChK6iaoG0i5sf4EP99V3ofBQAIP/7XGiMtwJ6gpimghpbAcRMBEPyfi6fqwnGDNSgnUyk+64J4Ythj3CJbgiHjCbGk5IB+v3SzVu85clzso4HZEcPLg7WNRiqBF4VTMfS+vdN2xDZZEypDXq44CrRHAQcQkmhfYBOAjn3BggVJNOu+M1UAwj0vr9PEQf00f9Qg7a6o1f7qhuMmOGVIge65cb7yM9M6NHFAwv8s3awHV5bIG4Ul5owYIOwQ395dro0HqoydgwMIHSJtQlZ2yZoSclkSblAOICTcknTdgLC+x9iOSIGu9A4KYByKOJjYEv/9Vpke2lZtDAmLcjNV14wE4V0bAfh6cV6Wvn3VWZo5tNCoDfIy00ysAl42fhFqAxtgqTHQqtqmgHGb/J83NmvFzkORGAlHC/ENAqGQibEQiwThnx+/WINTg0Z0Hau9Su9Yib41SusBRB4Gl6ypb61tPGfjAEI8qZngbRHUhxgDToKQ2AuFcSbeEXhbEMCJoFV4hmzOHa9FB06MdzBraKExRszPTFVTIGhUEIAI4hUMy89SbnqqcjP8mja4QIXZ6Xpp815jfAgwKK9rVH1L0ICNivomE08B1UNJeY3K2vFUOJUNAqDl/pvP1qbFL5gYGNi6ABQwAnUlsSjAZQGPHwyPCQLmiqNAexRwACGJ9gWHAkyHPAWuJCYFCORE6GfyQKxdu9Z4gsBgP/e5z2l30Uzdu3jrCQO/fvoI9Uv3m3ow9tKKOu2trjcuigCH7DS/hudn6bMXTDZBjD78l1d0uL7ZSB94ER4Zm4ZRhTnmHUCxds8RrdlboeY28RZOZ6T44IfP0ZoXF+m3v/2t3vOe95ggVvPnzz+W/yMxqZ58o7LZHAEHToKQfOsf64wdQIiVUn2gHqJqQiUTItmVxKQAxmMPPvig7r77bhMIihgNRKr85je/qT9tOKIftBMHYUi/TBH6uL4loKqGluNzMpgMndLQvGx97qIpRqLwfx9dfoLtAtSwERKz01LU0BI0xou4SkYXAMKwU8RBWPTpy+St3GciaaLOIp4FobgJPgUwdWqHxNh3XBY4D2xStMQYlRtFolHAAYREW5EuHA9eDEQMJPKfK4lJAVQLDzzwgL785S+bSJMEcCJ6JO+/eGW9fvXqhhMHTk4EImOa6JjtfO2RMvwpmlSUZ6QF6/ZWqP4kkRStgeLJIjfzPZKKXRW1JwRRsoGSRman6He/+52+8pWvGFsHgmHxf0ADgaQ4NvwAACAASURBVLdc6XkKOBuEnl+D3jACBxB6wyrFaYzkICDEMKJfVxKLAjBSLMsff/xxkxET0S8qBkJRf+ITnzCM9cf/Wqt7Xn7nuIGjDrho3GAT4GhxyUGjGsCo8Phbv0dD8zJ16cShSvN7tWjdbpVV1Z9AAFwaLxo/WHnpqVqy46C2lVebLJFtJQj0WVpZd1KAMH1IgUkX/uEPf9gAUlQMAB4iajp7hMTYd86LITHWIdFH4QBCoq9QHMfH7ZTgKIQediVxKIBRIl4Kf/zjH00YapJFke8CQIeVuU2m016gpAy/Tx+ZO143zBihbz29UivLDp8YHtkjDcnN1Fcvn6Wpg/N04/+8YPI5tC0YNhJDAUnAbxZv0sYDlR0OtfzMZy/X9OJCYwD3v//7v8bmhSydhM8mlXZPpcVOnNVOjJHYOAjkGCERmSuOAu1RwAGEJNoX5CbgVnrZZZcl0awTe6q4MZIYiqRWqH7Q15Mjgpu2DS9tQz+3BxCyUlN0x/wJ+sBZo/SVJ97SitJD7QKEYfnZ+s5VszV7WH9d8qunTc6GtgVDxy9fNkODc7P0y1fWa/3+ihOyRLY1UrSulVMG52veyAH67PmTNSAnw+SvIHcFeTH4P+m5AUKABJc9sOf3JACOywJr4SIp9vx6JOoIHEBI1JXpgnFxawAkcDt1pecpYBknKapvuOEGYzxKZsuTlfYAAh4KN84YqfkjB+rPK7ZqVdmREw0LjZFilm6fP96EYUZVQWTEtoV8DbeePUb9s9P1yOod2nSgul0jxREF2cpMS9FZQ/tr1rD+mj4k38RfoG1cLMntEF0ABkTwRKKQmZmpj3zkI8Y4zpWeo4DL5thztO9NPTuA0JtW6wzHStIlMiQiwnal5yiAZACw9stf/tJkl8TGgARap0uas6rssEmiFF0IgJSXkWoyMFY2RFwX2ysYJ8LAqY/0oK13As/gxUBb5HWoamw2MRXaK4AN3CFpLzcjTZmpPvPsqQpgCHUDIIEMmbfccotzfey5LWiyqaLWQv0zZMiQHhyJ6zqRKeAAQiKvTpzHhg0CBwMpi13pGQoADjDc+853vmMkOR//+MeNmDcW4z0MBtsaDcY6C1QZMAQkFF6vRzt37jIulDt27tDIESNNAC1UGxMmTDgtUAFspHiJzHhifodTjQdJwubNm3X//fdr0qRJuummm5z+O9YFjHM90rnb1OzOsyTOxO1DzTmA0IcW83RTQb1AZD703K50PwUABytWrNC3vvUt3X777UaS011R7GDOgEOiMpKsa/HixSZGAUGZ8C4g/S+ubwCIrjRiRZKAJ82f//xn46FBfATHoLp/L2J/gEQHUDh06NDuH4DrsVdQwAGEXrFM8RkkfvV79uzR5MmT49OgayVmCnBj4+aMG+P3vvc9c4MmfHJ3FgACEQ4xFETdRBa/pUuXmtwcpAEnXsHMmTO7XPQPSEDV9Ze//MWAVQBKd9OiO+meiH0FAgHxwmuGlyuOAu1RwAGEJNoX+D4jSsYv3ZXuowBR677//e+b/ArEA7BeCt03gkhPSAnefPNNETCLWBjsBQDCVVddZW7xVtXRUdVBZ+YBSECKQVCo2267zRho+ny+zjTlnukEBZwNQieIloSPOICQRIvukjV172KjUkCMSxTBOXPmGHsDVArdwYBPNlPc21ArXHvttSYgE5IDRP3cIom50J0F+jz//PN66KGH9NnPflZnn312j9KmO+fe030h0QIwYofipDc9vRqJ278DCIm7NnEfGTpmrOaxmHel8xSAscHk28YpaNsih/AzzzxjMubNnj37tMZ/nR9R730SGj766KP617/+pbvuusvYRcRisNl7Z5wYI3dxEBJjHRJ9FA4gJPoKxXF86J0JlITO15XOUQCQRYRDXMPwCqBg1AdgQKeLtwAMjtf27dtNciJUCvE2xIvuh/9jhEifiOkZB39zO6TY7xkDDJnvGS91+Y7C/3kh+rd/827rMw/a51nq2UBO/E3pzPws0MKann0JTVFz2HFYlQNjsvOLnmfnVtA9BQVws8UmiUiK2KK44ijQHgUcQEiifUEqYTK4Ee7WlY5TAOYE00dEDw3R4eOqyK23qKhI0Jf0zAAxwtei6+c7ItUhxuV5Po+HiuHVV181Puz0/+KLLwo7BzwQyJj4xhtvqKSkxKSIhgkvWbLEZFbEcwI1E4GZeBZmjA0C8RfGjBlj1CB4GDA+3B1RO8BEFi1aZNQQzPmll17SqFGjzKusrMzQAkkJho8duflDKwtUSG0NnZiLBQd4W2BMCzAhAyk3XuInoDsvLi7WtGnTOtRfx1e7bz9BlEvOAqRb3eVJ07cp2jdn5wBC31zXdmeFaxNGau9973uTaNbxmyrMFgYFwyUiIDdbItIhIYC5YQQKQ4PBAgrQ8cPMyLEAQ0XygB1CPGLfw0DpAxe1//qv/zIuk3/961/1pS99yRz4AAiblAvAcs899+inP/2pYbTr1683XhS4vQImAAuMmzYYI4wbZoxUAAkD3hcXXHCBmSNeMNw+iaXx61//2syH4EdER+yILhvbB9piDMwBA05sEIiwSJ9/+MMfzOfccAEvSBmY89y5c7VmzRpdccUV5jtXOkcBwCtgEVCZl5fXuUbcU32eAg4g9PklfneCToJwZosNICDQD7du3PO4ecNwAQvc2AEIMN4tW7aYmzw3NMTm5FkglDJW+9y04yHSxU0QJg4AWbVqlWHs2Dt885vfNKCFm/4dd9xhJgzz/e53v6sf/ehHJkgTAAFAwO2RuAy5ublGYrBgwQLDNJAIwKit2gDggQQBgMB8uX3iEgkw+fd//3eTZ4HIiB0BCNDGjgVGD3iF6UNDpAiAK4ABkgU+w6Bu2bJlZr78H/p3pL8zW/m+9zSqMtYRcMD6u+Io4FQMSb4HuP2Shve6665Lckp0bvpIELiNI66HeXELhtHBXLmRoUIg4RJi+pEjI9EJOXyffvppE5wIyQIuhdY2oHOjiDzFbRqAQj8AP1QBjIs4Bk899ZQWLlxoVAKABdQPxD/4/Oc/b8bA+AA1fAcj5qZOG4wNAEBbVoIAkPjnP/9pxP2AH4xcYSxIRJBG0T9SCCQIHXFTJEEVkggkA6hnUN3gfvu73/3OSLi42dpxwMz4P8ALNQigi7nHQ1VzJmvQm58FdFm1zanyf/TmObqxnzkFnAThzGnYa1qACXAoIBJ3peMUAABAP0ABt15UDTAqROPcvLkF4yoIQ0NHjo4fUEFAIJgvKoGO6OlPNULACWAFUT83fpg23in0h3QBaQexBajDuBgTkgsADIwWNQfAAENLRPowXWwOEPnzGdIFwAEAxz5PQCVADxIJ1BjMEQkERprU7wjDBqxaSQHgAHrOmzdPf//73410gJstY4aGgBIkJIwfyczpclZ0fGWT7wnWENDF+sZDopV8FEyOGTuAkBzrbGbJ4Y/+1nkxnNmiw7i4ASPanzp1qi6++OKTWvFbqUO0yP7Meu8bTwM6UBHYtNCAC2wh2J+ABcAKthB8BqBBeuFsDuK39gBazoNBgwa5zJrxI2ufa8kBhD63pCefEIyNgxmRuCsdp4CVILz++uvmlo7a4Oqrr3Y3sI6TMuYnsDcgNDX2D+9///u7PZhTzAPtZRWdm2MvW7AeGq4DCD1E+J7oFjEtbnjceF3pGAUQwxMVkch/iO0vu+wyI8LviFi9Yz262pYC0Pvb3/628WAAJDijujPfG6jJoCv2H6iHXHEUaI8CDiAk0b7AkG7Xrl3m5utK7BTAkA6JAfEGEH1jRGeDI8Xeiqt5JhTAmBK3SmwQbr31VufBcCbElIz9AcarzovhDAnZxx93AKGPL3D09NA74qaHy5orsVEAtQyBfPD+wGIfd0XsCVzpXgpgq4B7Ji6XeDKQJtoZK3Z+DTBqRaKIt4rzYug8Hfv6kw4g9PUVjpqfkyDEvtgYF+Kx8Nhjj5mAPsQIwLq+MyGFY+/V1TwVBVDzYMSIp8M555xj3HVdLITO7RkkCIAEvFGcyqZzNEyGpxxASIZVPjpHfJ+xCIfZuXJyCgAOEGkTQZCYBQTwQbQdLxdFR/vOUwCXTsI7E1sCkHDNNdd0KP5C53vuW0+iXkCiiDTMRVLsW2sbz9k4gBBPaiZ4W0gQMLQjmI4r7VOAW+prr71m8g9gZ4CXgstdkVi7Bc8Golmi+rnwwgtNSGliNrgSOwVcqOXYaZXMNR1ASKLV58ZA4pvzzjsviWYd+1RhPIivoRFSFnITxCNvQuwjcDVjpQBBvwByuJyi+gEodCSSY6z99NV6AAQkitgfENzLFUeB9ijgAEIS7QsM7tCnE3TGlXcpYJMw3XfffYbJcCMl7K+7lSb2LmE/v/DCCybsNGAOlYNTA8W2Zg4gxEanZK/lAEIS7QCslteuXWtuXK5EKEDwIzwUyEhIAiKiTJJnwTGa3rFD0KX/61//Mh4OuJ9iK+JiU5x+7ZwNwulp5GpIDiAk0S4g/jrBUWCErsiE8n3yySeNmJrbJwmOOppTwNGx5ymAqByjRQxLCaRE+GsHEk69Li6bY8/v294wAgcQesMqxWmMhFkmh0CyZ3NEpYCI9U9/+pMBTIinSbiEvYFjLHHabN3YDOtJZEBcUskvcNtttzkQfBr6A6psHAQX16MbN2sv68oBhF62YGcyXIzwOBiKi4vPpJle/yxMhKh8pDy+9tprjbeCi2/Qu5cVkADDe/jhh00a6Q9+8IMm0ZMr7VMAI08kioBiZ4jrdsnJKOAAQhLtDSQI+JDfeOONCTdrdKK4rq1bt06ENu7KgjcHKYZJd0ws+q6yfudmhk0DiYa6qo+upFNva9tmzvzzn/9sbEg+8pGPmHTRrpxIAcAUBstcFsjo6IqjQHsUcAAhifYFjJcIaoRXTaRC7IHHHn9C/++5XdrSOkxBT1qXDg/DxFAoKK/PJ6/H20V9hZUROKIbRhzR1+78kIYMGdJF/fSuZrETeOqpRdq4eYtaAoG4D95KEg6XH9bgwUUqKCyQ5Il7P7ZBn9er4iGDdcvNHzDeQb0FCGJ/w3mA5MxJz7pse/T6hh1A6PVLGPsEuDG88cYb+sAHPhD7Q91Qs6mpSff+6j7d+2aKDufPU7gLD/RumM7RLsLyBpt1Ts1D+sMP7jJqjGQv5FP4wwOP6QdP7dbBnLMU9nZNcCNAQigUNvYkXm/XgYPIeoaVW79dnzrboztvvaLXSCw4C3bs2KFRo0Y5VUyy/zBPMX8HEJJoc8CIMc5LNJEi4/rZL/5bv3g7TRWFfScMtCfYorlH7tdffvx5TZgwIYl2WvtTJUzyr+5/St9/rkJV+bMkT1cz7+4heUqgStflrtEPP3NNr1lnpGgANlQxvUXq0T2r6XqJpoADCEm0H/bu3WtsEG666aaEmnVnAUJmqkfzRmVp3Z4mzRiWoZc213ZoXgVZKfIorOK8VG092KSm1nC7z3MJzcvwKTvdq90VsYvFHUA4npwWIHzv+UpVAxD6SEkJ1OjqrLf14zuv1cSJE3vFrEpLS01elnHjxhkpgiuOAu1RwAGEJNoXWHeToZC0xYlUOgsQinL9+ulNQ7R0e72eWFutuuagBuX6Vd0YVH1zUANy/AoEw2oJhpSXkaKW1pCO1AWVm+FVZqpX/TJ9qmsKqjVEwKSw9la1qjjfr/3VAY0ZkKYjta2qaAhqVP9UDemXohSfRy9trouZdA4gxAcg9M/yKd3vFYCuNRTSpv3NRvgQPornrCCCP61MIhSWrHbhrOGZqmoI6kBNQI2BsIJG/WC0A0YFwd+UVJ9Hkwena3dlQBX1rTGvc28ECBE7nJCRILigYDEvddJVdAAhiZYccEDEuYsvvjihZt1ZgDA0z69/fGq0fvLcQb28tVbnjsnU6MJ01TQFVXK4WQtGZ6msMqApQzJU3RBUKBzWytJ6NbeGdeOsfL29u15bDzTpljkFys9M0fef2a87Lx6gfZUt2lPZqjkjM/XrVw/p9nP6a09Fi/ZVtziAcAY7p7MShFGFqRo3KE1Th2TovtfLzVqNG5imbYea1RQIadLgdFXWB1XbHNS4Aek6XN+qXUdaNCzfr9QUj2YMzTASopLyFmWn+bSvOmAAH+BxYlGGVu2uV31LWOePzdLwglQ9v6FWuytbYp5pbwQIeDTt2rVLI0aMSHq355gXOgkrOoCQRIuOKyHZHAlHm0ilswABCcI97y/WmrJGPb2uWhdNyDGSAZgDjGPhxBytLWvQ4Dy/th9qNpICbpKDclJ03thsvbq1VlsONunGWXnauL9JtU0h7TjcrC9fVqR39jaYW+ZT71SrMCtFXDJz0716eYuTIHR273QWIIzun6qvXVWke188pMN1rfry5UV6bWutphZn6KVNNUJCwJqjBkJqVN3UqoaWsDbvb9QH5xUo0+/VcxtrtLuiRZdP7qf1+xq1r6rFAL/HVlfquul5Wl3WoPK6gOaPytZfl1X0eYDAWvC7S0tLMy9XHAWciiHJ90BlZaWxXJ49e3ZCUaKzACEv06f3nZWnV7fU6YJx2Vq1u8Ewi037m1TR0KoFo7O183Czxg5MN7dJbpwwhxGFqZowKF3Ld9SrrKJFC8Zk6ZUttfrk+QP0s38d1IRBaZo1PEOlFQGtLG3Qpy8YoF1HmrXpQJPe2dMYM+2ciiE+KoYRBakqyk3RpZNz9cSaKn3lyiIt2V5npAYAvtkjMrVyd4PSUjwGzDUGQsauZH91ixZOzDXqJgAke2HeqGzNGp6pe148qG9cVaR1e5t0qDZg1BfLd9Rp7sgsPbu+Vnuq+rYEAWkiUgTiRAwcODDmPe0qJhcFnAQhidabAEGbN2/Wueeem1Cz7ixAiGUSqJqRJLSGwnpta+y3/1jaPl0dBxDiAxDyM71KS/EaI9GB2X41B8Manp+qzQeaVNcS0vxRmUY6wHdzRmXq+Y01OlTTatQF2JJgT7BhX6OO1AcNiOCzN3c1aFpxukYUpGlVWYOxX3nPxFzVNgb1+rY6VTUGT7e8x77vjSoG7JHIx5CTk+MiKca80slX0QGEJFpzgiTh/zx58uSEmnVXAgQM1XLSvcagLRiWWoMYqUkpPhnDNxhGfXNI9S2hY0Zv8SLOyQBCQAE1qlFpR//Fqz8b+Ib2oKktuLH5/X7zGbEB+D8FMTMGavzdHYZqnVUxxEIf1EHTizOUlebVGyX1sTwStzq9ESC4XAxxW/4+3ZADCH16eY+fHOFVCWX8nve8J6Fm3ZUAISvVq9EDUtXSGtag3BQdqGk1QMDv9Wh8UZp8Ho827G80BmwYrcWzRAOEkRNGql71qlWtDuqgdmu3ztbZGqn4eZS89tprJukU/u0k5YIJEE4a4DBnzhyTFpnQ0uSgIBYGaa4RLyNmjmfeAgBQtaqVrWwDgTxHfQu6EiDggeD3eYwbA1Ij1Az9MlKMdwqGioBB7BcaAYLxXGRJvREgcFnAJikvL0+5ublxpohrrq9QwAGEvrKSMcwjGSUI/TJ8mjksw+iqJxWla39NQGP6pxnjRGwNdh5uMXYFlY14OcRAxA5UASBc0von/eib16hlTK5KtEe7tEuHdEjNatZNukmjNfoYA4WRWmbamf//+ju/1s033WySFq1Zs0YPPPCAvvGNb+iRRx7Rz3/+c330ox81mQ43bdqk66+/Xr/85S81d+5c5Rbk6tbbbzUza9t/e39Hf9YeOZjfM3rGgJ9iFatABcpVrtQi/fr+ReqKOAgDc1LEC2CAS+veqoDOGp5hQF9GqlfpKR4t2V5vXB3jvc69ESAADlA5ki8EkOCKo0B7FHAAIYn2BYZJSBAWLlyYULPuSgkCAGHWsAyjh/b7vBrcz6+h+X7jwZCT5tO04gztPNKsZTsajOdDPIsn1KIP5P5Wd/6fLO0d1qISeXRYqWpQJNjSHM0xzDMaDHj1bm4I+3msoMG7wqtNb20SQXA+9alP6ZZbbtFPfvIT/e1vf9OPfvQj3XHHHfq3f/s3bdiwQZdeeql++9vf6oorrlB9Rr1mXD9D3PxPB0zafm9BhR0jf5erXI/oEfnkU77yDQgaq+Ea1lKgB+9frR8/H4p7oKTiPL+G5PlVcqhZ80ZnGcmQzys1tITk83rM2uLtQoyMOOPAXilBIKIqAKGgoMABhHj+6PtYWw4g9LEFPdV0OBTKyso0derUhJp1VwKEnDSv5o/OMrYGmw406/wx2SqratFbu+pV1M9vrN5hLhi24eYYz4IE4dyav+gP3z9Pw8Yf0Q7t1XaNUpkCKtcR3apbNUIjFD76LyTE35F/nfl/UbBId33qLmNb8Jvf/EYXXXSRPv/5zxt1wyc/+Unzf/JwoHKYMmWK/vSnP+muu+7SwEkDdTjnsJFqRPdtx8B79P9tnXZvHPKoSlVarMUGbGQoRQVq0Qi1akrLWD17v0c/e75/lwAE1nF7ebPmjMgy9ghr9jRo3d5GAwqJuInx4ZaDzccCI8VrrXujBIGzAK+m/Px89evXL16kcO30MQo4gNDHFvRU0zl8+LDxYjjvvPMSatZdCRDQS+PSODgvRZv3N6swy2cC6RyqbTVR87JSfSopx9WtNe6i5+ONFEmpu1atGqkjCmi3ntAYXacCjY1rtsHf//735lZ43XXXGanBF7/4RT311FMmRwDptEn1vXjxYpOCuqSkpNOJuwAJFAtoov/er/36Xz2g/spTkeo0XIc0TIOV3jJJ/33/Xn3v+XDcAcKAnBRNHJRugmFhdEpwLDwb1u1rNC6SqJVwU8V11UZOjNePoLcCBCdBiNcO6LvtOIDQd9f2hJn1tUBJib50J3oxWOF2jcJ6SFK6PBotaZqk+NzikA5Yz4SGhgZlZGQYo0UbWpfUvqTXxpuBz+IfJKdVDdqpUr2tIp2jHFUpRRWSpqqlJUe/uv/pLrFBQEI0rCBVg3L82lvZotZwWM2BsImuOKowzRgpbi+PBMOKd3EAId4Ude0lCgUcQEiUleiGcWDVvm3bNs2bN68beou9i1glCNwExw9KN6JiLNPnj8oyt0VuhnzXPztFR+pbtaO8RYXZKca9cU9lQKT/HVGYZiIhEnoZYzYC4xA4B6+GrDSPJhVlmGh6eDtQuI36fNLGfU2mHaL24f1AxEVE1hi7Yfh4qnLyOAj0cVDS25KOSJoi6SycEyVlxk64hKoJ4z1gpCSRufUnAoWkjKOj9BjVB9kcu8JIsSdJ0VsBAucB0ianYujJ3ZPYfTuAkNjrE9fR9XaAMGZAqr559RDd/uddxtDwovE5OlLXaizWiZYHeOifk6K/La8wCZZIvLS2rEkDc1M09mjAnIM1Ac0YlmnABHkYVpc1KjPNq7suHqh7Xjh4LEDOeWOydM7YbP3s+YPGtx4dNsaOf11eYaIs7qsKmCh8nQMI9ikAxl5JvGNJvsjctCXiVPSW8LeAHaJL+iS9IKlaUrGkSZIGSFFGl7ECBOwHguGwNh9oVkGmT9OHZphEWa9uqdW0oRnKSPGaSIeEVx6C0WleqomkSJhtXFpDIamyIWiAIK8N+5u0p7LFBEhi3fFaIe4F5ZzRWVq/v9FIFlBFGfCY6dOr2+o0bUgEFOIGS3snK70RIHAWYLQ8YMAAAxJccRRojwIOICTRvsAoafv27cYnPpFKrBKE7DSvnrpzjC6+Z5tJtnPdjDxjlc7hvXhbnXFnxPDw0VVVRqKAVTtMBEkDUfXI0kjI5DkjszSyIFUvbKo1EfXQn//kxqH67qL9x7L4De6Xoq9eUaTPPbTHZAXkecI5P7q6SlMGpxsR/Yqdpw7IE3skRZgsUR5fMT4AESnC2ZLGJdIytRkLYz4k6U1JDZJukFQiqfCo9OBdbwz7YKwAASA2bmC6Hl9bpUsm5hhrBwDe31ZUmPW10qJHVlVpclG6Ca/9yKpKk3jp7BGZWrunwQTDAiwACl7eXKtVuxtFTocrpubqobcrdbAmkq3xPRNztO1Qk8oqAmaNeZHk6/97rVwTitJNdlAkTUiO+hJAcHEQEvinlUBDcwAhgRajq4fS2yUIKV7pX58fp4X3bjMqhjkjMs2tjxtgfVPIHO6oCVAbcFOEye+pCmjuiCz1z/YZSQAqB0L29s9KMRbtMPmGQEj/9b6h+v7TAITITTEr1aMf3VBsAEKG32syO2LICLMgfkJGqi+OAIEeYYMwoZ1HGS02CQC55qP2CTaRcVfvkljaZ6xIO0olcfscI2nuaY0tYwUIhZk+XT411wA9bvHDC/0a1T9Nf1lWYeIcXDYpx6zjW6UNJqsj8Q4WvVOtC8blGO8FmLnHK+HBghsrCbeW76w36Zw/eUF/Pfx2lQGLFIAH0griYeAOedawDOPxsrSk/pj3w5u76o2Uqi8BBM6CgwcPmkBZxEJwxVHASRCSfA/0dgkCt8VPXdBfT75TbZL1nD8u24iTsUG4eEK2YQCI/fkblzduk9gKkNSHeAi8tpU3GzHygOwUE8vfCMhbQrr57Hyt39ekFzfVKCvNZxIAcZN8aRO3zwajYlhSUmcyBtpb7dulDSYB1MlK7BKE6BYYEZIJwAJtv2aMGaX5koqOE9l373ZmXNhLMCY8Mp47Ki3AyPJ4VcLJxhUrQEBCcNXUfvrnmirjWTKxKE03z87XD549oAvH56i2KWgkPw0tQY3un2bcWAEBpHUeOyDdhNMuzPYZpo8UgQBJqCDSU6RPXTDQtAvQY+9MHoKhqLT1ULO8Ho/ufs9A/ea1cnm9Hl05Jddk92T9SRHelwBCXV2dcHXE/iA7O7t7t5LrrddQwEkQes1SnflA8WIgm+NZ/z975wFdV3Wl/0+99+oiyb33XjDN9DZAEkoaMEkmw6RnViY9/5kJE5IJmYSQZFompBCSmRQIEMCYahtcwLj3JltWs3ovT+W/fue8axRbxu9J70nvSfespaV277nn7HPe3d/Z5duLCIgLneari4HAwsykKHm6eo1lAP8zRXaaO6jeZ+sLcMLECsCpH6sBL3bcEFgc3ijvFwAAIABJREFUoiMjTIwBBEkJsRGqae5WfEyEUUL0S8PUTGokaXMAjvauHpU3dCktIfJsvwQpkk7nuDcCCxD69obp/qikfV7XA8GlWBXON98HbzVRjLg9tnrHwhhwfzC2FG/sgW9P9xUgAMxQ9PBV7DzVamI+2j29JnbgPYvSVdXcZVIYAQqxUZGmGid8B1ApT8yKNXEDZp3jo8y6UsGTgFKsBfPHJ6qyqcvwYPC3K6anGIvBwcp2Aygo7LV+f6MJYr1lfpqOVXUY0AnR1kgCCK4Fwbc9O9qvcgHCKNoB5D1DsxuKPAjfe/gn+v6bsarJ4qQcSub0gW8QLAgr6n6tnz/4aU2bNm2AHeHyqJNU7A1k5PReLylD0lCc/AiiXOcNmpwumbRMAir9Bym+AgSUMyCN7BPiSyjrjTKHvwDXEQ3gB40yYADLEEyJAEWAH3+DQRGXEqCQTBdgDjEssdGRZnfVt3WZjBWyXWBdJGixub3b0DJzL0GRkGjxzMb27rPZLf0tYjgGKboWhAF+HEfZbS5AGEULTnnX0tJSzZgxI6Rm7fF49OgvHtP3XqpRcewc9UbFBnV8vb2oCL56FRERaOJd79ApCNVZrRtSdumhL/+NioqKBjknxwfe6FXYnOov9WYL4IIIVEMeAJDN3mwEiknxe5IXGFgFPZDGOj/yy6f0zXW1qs8ILSvWQObj3BPdWa9b03fpgb+9SdOnDxQIDmYE/t+Lu5GaHW4Wg/+yG013uABhFK02QUk7duww/Puh1Dgpnjx5Sn9a95q27z2i9s5On4cXFdmjrKw6JSVF6kQxp+p3b93dvTpxIl6lp8cpNbVC06a3KCnRWwLwYjf78/9eKTszTe+74TKtXLZY8fGBUuKYukkl3C9pi5dDAaAQCGsCQIA+d3jjDKj6WeAFU4O36kDY9LNf/14PPrFPVQkz1RsB2Bh8v/4sS8Cv7e1RYssJfeKKXN3//htN0F84NDeLIRxWafjH6AKE4V+DIRsBzHq4GQJZ2jdQg0d5MD7iEQAMvrd6RUf/VpGR16qzc+JFb2ts7NaDD57RmDFJKitrUW1tp+64I0OXXJKi+PjAKquoqCilpKQoJibGpEUGtgGiCBokdoK0yE2SFkpCQfn7LAIiAR64MQ57sxKweAA6Bm4xOHe+rOupktN6ZdNWHT5+Sp2dF84MGIis2DXV1d3au6dXlZWxmjipW3Nm9xrw6F/rliJqFRGRrN4eh+ip/x4io6I0Pj9b11xxiaZMmqDo6MDJy78x+3c1AYrEIVCLwa3m6J/sRtPVLkAYRat9+vRpvfHGGwPm3w89UaESjkt6RNKDfVj7LjzShoZufeUrpbr55jQtWZKo3bvb9Jvf1Kqnp1f33putZcuSFBfnr0IZLsk4QArl/pykl6D+kXSt1x3wbuNyuBcIPnxd0mJJ13iBAi6e4Cg66J2JRYDu2T8g2P9curp6VVXVpW3bWrR+faPKyjyaPj1eeXmxSkqK0FVXpWjiRH9Jp8jUgBESGV2cdRRQAIU1gDBcGi4GiJKys7NdoqRwWbRhGKcLEIZB6MP1SHj6CU4aOXnPnKIhFyqTdJ9PYgUgfPWrpbr99gxdeWWKUDCtrT3asqVZP/tZjeLiIvTxj2drxYpkk+oWPo3TOBaFp70uiM94rQv9gR1YBA9Jeswb7IjLCVImfxXp8EjH4+lRaalHW7e26OWXm3TmjEdTp8ab9Zw7N0EZGdHatatVhw61GcvQlCn+uneQT4mkDZI+MKCAzOGRjO9PbWlpETFJWLiSkogvcZsrgfMl4AKEUbQrTp48qVdffVX33HPPCJk1J2eIhTCFj/FpTucCBOcmcuI7Orq1YUOz/uM/qoy74R/+YYwWLgy32gjIxElB/HtJ75W00ut2AFA55EaAH2onUE2SFNHQBkN4nSorPVq/vkHPPdeo2touLViQqGuuSdXs2QnKzIxWVFSEIr146M03W7RvHwAheQAAgV2BbJ6S9CGfLFM+bb4QuogARQKWx44dq7w8MmPc5krABQijeg/g58fHP3JODCg80gDf3U/cd9EvBBCcazB7ezy95mT6ve9VqrAwVp/7XK6mT09QdHSEAh5KENQdCXj6D0lYF66W9KpXVh/zZigE9eGD6hxA0NHRo6oqQEGTnn22QadPe7R2bYpxD82bl6CEhMgLxnYMHiBQgXKjpMsDVmlzUAIJ8M24efiimicxMm5zJdCfBFwLwijaFyUlJdq0aZPuvvvuETBrTspPeE3kV/k8n4sBhL4dtbf36M9/btDPf16tKVPi9MEPZpnTamxs5NmTqs8PHvILMZMDoIgl+JGkU97TsONKCK0MAiw4ZJgACo4f79Dmzc169dVm1dV1a+XKJF13Xaqx5iB7X9rgAQJPIQaBL9+e6cu4QuWasrIyFRcXm/TbceMoruU2VwKuBWFU7wFiEIheDpdUrHdfLFL9Pu8NUPTdDeAPQDAqoldqbOzSs8826qmn6k3A2513ZhizdUICJu1QM81jUaG6ItkImMi/IgmwQAAdf3/SG4iIRYGMh+GJO0CuAILOTgsKTpzo0Ouvt+i115qMq4AA0quvTtW0aXHvaim40B4ZPEBAZnBNEItAdkj4BCD68pIjSBReCqwH4ZJ54cu83GsCKwHXghBYeYZ0b5watm3bpltvvTWkx+nb4Igy/5Wkh3y73HuVvwDB6Zwsh7q6Lj3zTIPWrWvUnDkJuummNBUWxik5OdK4H4a3odA46e6U9Ky3nsMdkub1iS9wSJBe8HIdXOLNXAguMZUjF0AB7pu2th6RblpS0qm33moxwYa4bggMBRQUFcWaYNHBpIYOHiAgK9I+CVREjr67sYZ3H/j2dOIPTpw4oQkTJmj8+PG+3eReNeok4AKEUbTkRC5DljRpEnS54dxQhkTrF3pPd77PZaAAoa+SI1gOawKZD7NmJejyy1M0eXKcUlOjzOk3oM1kMvbKFIygRUVK3b02ptA8yiF5ghKZokk/lzTfm7Z4oVRF5EcQ3impe5bUihUhQorznpJjo6TObom5dPXYZ1JKcwANUICVoLm52wQWnjzZYVJLDx3qMG4a3AYEEiK/QKaXDh4gMNlKL0CAiGpkBfIRf4BFkRgEUjTd5kqgPwm4AGEU7Qsil3fv3q2rrvLdZx+a4oHYhy//igUxl8ECBEcemMdLSzv13HMNRuHNnBmvVauSNWFCnNLSAgQUmjqk+nYpM0GqbJFaPVJBqlTeLOHaoDwhLS5aytogRcOBkOpfRkJVi7TuqPVCTM+yYKAoTTpaKyXHSowhI0Ean0oNbPvcizSbEdJjZE0MQUmJBQVHj3aY7JDFi5O0dGmiioqs+yAYLTAAAVrr3V7gBYXyxecejLkEo8+KigqdOnXKkKaNGeNbBlAwxuH2GdoScAFCaK9PQEcHvSqBirNnzw5ov0PbGSdp6gRwWibgzr8WKIDgPBXXw8mTnXrmmXodOdJhXA+ciolVyMgYJFDYcFJ69YR011xpV6V0pEZaNEZ68bgFC1Mz7ckevXXHLCkXwORnO1wj/Xib1NghLRlrbwYQHKyWPN1SYZoFBfPypIVj3gEl5zwGUNDaipWg2xAXlZV16uDBdhUXdyo2NsIEGkJCNW4cPm+yD/wcp5+XBwYgkP1BHALoaWSZ4clmamtrU0JCQgBpwP1cJPfykJeACxBCfokCN0Bolg8fPqyVK8mLD9dG9gL5/Z/y5vD7N49AAwTn6VgUiL4nHa+kxKMpU2JNnv60afFKT48eWNbD9jLp1WJpapYFAp4eq6CfPSJ1dknLx9mT/Y4K6e659md/27E66ec7pLYu6ZICa6kYkyJVNEu1bdLsHBvIPz5FmpV7HkDAdVBR4VF5uceAgpMnPeb3xMRILVqUpEWLElRQAMtgkBHBOfMODECgUzJBWryWmZETqFhdXa3y8nLl5+ebgk1ucyXQnwRcgDCK9gX0qsePH9fixdDqhmsrl/R1Sf85oMjyYAEER5oE4R092m5ofysqujRpUpxmz47XjBnxxvXgV9ZDc6d0oMqe5qtabRzCnFxp/TF7yl+Yb2MFatqkW6ZLuQNgxNtTKa0/Lo1Jlho6pE0nLRDIiLdgAFCCq4FnTc5UV2Skmpt7VF7eqTNnugyjIS4EQEFubozmz0/QvHmJys2Ffjg47gNfdm7gAMIZb2GsBT7QV/systC4hngkLIowKSYnB6LQV2jMyx1FYCXgAoTAyjOkewMgHDt2TEuWLAnpcb774KBWrpN0+4DmYIs1VejGG9NMcFywGhaFAwfaTcZDfX2XJkyI1YwZCSZWASrgi5vYO6WWFqmi17oXsBpg7r9hqvTMYWlCurUgnGyQ8pKkmTkXNP9fcI4Ajt2V0t4z0oJ86VSDtOmUNCtHykqQEmOk9i4Te9Cbl6SqhHYdPB6l4uJoYzGoqelWVlaUlixJMm6V9PQoM6/BZB8Eaj0CBxAgTCIzBD/9zEANb9j7oVATtRjccs/DvhQhPQAXIIT08gR2cLwUjhw5ouXLL16AJrBPHmBvnI5jIqWmTnuKxRfeuk1KnCF5kiVSC99F08KKiLLiu/MzlaRff73ZEB/BkhjsRq2H/fvb9OKLjWpq6lFOTrQ5YS9YkKDk5P5M1rhQyDA4JNVGSIen2UBFggkToqWcJOlIrZQSa10BKHBO+sQmICN/GgAB60N5k1eO3myJ9i51R0WqprFXxcc7VFPTpYxx8YooOqD9R0+rra1Ic+cu1IwZqcrOBuwMrfvAlykeO9Zu0igBZfn5g2EKxMUAFwIcEsTuhN5cfZHHuddQh4EDA5UcU1MH4JoayEPde8JOAi5ACLslG/iAeSEcPXpUS5cuHXgnQ3Xn1tNSdJQ0OcNG2eOHH5siPXfEmtkJ0uOEi8LkNH1OAxBwQsKUChkMBFGkc+FzpZHmBZMcaV580ah2uWbNmqAQxxDVv39/uzZtalJ9fY85eRPQuHhxorccMY5+SI6InH+xj0I6Z60IHGz1ggInLfEia0IFRdJbKdIFQQ6NyoN8keqGjNgbkU4hA0nHjiXqxIkYA2rgeMBVsmRJmbKydiourlWRkdmSyIYJnhXGl60GfTjBdqw3awr5D2bzyMhYNTQ0i+rLLS2NZp4OkEEpZmZmXrj6Immklc1SdavNGmlulXLipJ44qd1j4zW4JifRgrMQBEgXkx3rTRwC1Rwp+ew2VwL9ScAFCKNoX4SVBeGfXpXGp0lTMqQD1VJSjDV9f/Z56faZ9rTM3xJipdtmnLeKKArAEKlcKAeIYRITE7V69WqR7pmWlqbXX3/dgAcUCq21tVV33XVXUPPCcT3s3NmmDRua1NLSrexsShI3afLkEkVEECwGt8N+ScyJF/fgT6zIAoIsfM0AJQADChKwhFxohw4dOlvlk+srKgoUFzdWM2cmaOrUOANiLH4AxByU9Lakv/KyMgJqGPfQB/EBeNjXkICx1oAdChBNmTLFrDMgiCJlXOfUIOH/06ZNu/A6Y5V5+YQESCVzo80jTc+W6tqsNYeASwAC+3Fihv+unRB45xB/AEgAHLgWhBBYkBAdggsQQnRhgjEsshhQBKtWkS8f4u33+6WyJik+ygKFk/U2ov4zz0v3LJDyk6SYKKmuXfroovMmw2kSzgeUBkriwIEDhjEO9woKAwXB/3lRYllAgfA/uOn7nqSDJSXIg/bsKdeOHc9p4cJWnToVrdzcxVq4cInJAAhU42SN9eDll182oGDv3r3mxE2gKjJAFqS6AZYcAi2q+82cOdsojz5GhXOGhMmdMsqY32FmxKKAtWNoef2ZC6m7fLHWgDyog6dPn24sQ1hNtmzZYkAi88GKsGjRIhUWFl7YggAgwFL12knpyolSd48UG20BAu6dOTlSWrwFqbNzpXR/y0kHanUH3k99fb2xsLkWhIHLcDTc6QKE0bDK3jnyUoBedeFCuOVDvBEwd7xWOtUoHayy/vZrJksffUr63rXW907yfWq89b+f0zglv/LKK9q5c6dR+gAEvgMSUIAEZwEQkAkNRQpw4nQZXJ86J3Ai47PU29uozs516ugo0IsvjtGBA0mKi4vS8uWJJkWQU/tgG/OCFOdHP/qRUYzEoHDivvTSSw1BDnLg1H3w4EFjVQEcISMUqG8MewCFHd6y2/AGUP1wgrfI0eCtHxebP4ofkAPwBQBj/QAYYC2aPHmymcf+/fvNHJkPbqQrr7zSrPMFgWBDu/ToDmstgP+B1E/iNYrSLVDFrQA4hYdibp7/sR8Xm9QQ/J8YBPY+a+5aEIZA4GH6CBcghOnCDWTYvEBRlJdcAgd/CDdextvL7YntULX9eV6udEmh9M0N0hdW2ZQ8TnaTMu1L/JyGYsSszsmYUxKuhPj4eAMEOD2jGJEHCgaZNDc365prrjGn7OAABGIMMOe/6QUI7/MyQTaptzdD7e1YFNrMF1TOKSmRuuqqVGPiH2hrbe3RqVMdSkvr1D/90xd13XXXGWuCAwIAUShLAASWFNwPmJ2xLGCi970MMHMjs+Sol1CIoMB9koKfGsh64kravHmzsRwABAA+WI0mTpxolB+AiFgF5kkWz80332xAUL/rzFRO1UsPbLDuBTAOZFJYC26aJp1pkYrrbQzMmiJpbq6UMjwFrwa6L7gPmbAXKNyGlcVtrgT6k4ALEEbRvggbJkUI/Eub7EsYc29rg5SQKEXHWhMvZl3AAY2X8wUIgngJohQ4UeJ/R5m0t3tUX5+soqIUk27I3/BfY6r2/dQ8kE1D4CEVFnkZF3nrJfyl8mfaxCUcOmQj8KlPQCAjiswJLmQNUYQXOvXZrIl2bd/eYr6np0fq3nvTtWvXq0YZ4E7gCxcMJ2rmDDjidwATZmcU6wUV6EWn7lRBXEdUhxckABSCY4YH5BBshxWB+QACAQfIDBAIGHKCGB0XxIIFCy58amYRCE7EvTDWG4CJG4vARNxaCTFSi8fuP7gjcH/5mz1yURkG/wJcMVgR+Fw4sRnBf6r7hHCTgAsQwm3FBjFeXv74oK+44opB9DLUt3Kk+z9Ji6TOCVJPnxoEPgwFBUJDUQAGIPn58Y+rtHZtipYuHQCxkA/PtJfwXIr9EHCIS4fURVLmoOzN9FZe7L8zp5ZBaWmZGhvPGEXHyZfx81JHgaP0OC2j7Pk7lpBDhybp8OEIJSVFafz4GFNpMjvbZkv09nYY8zumd5QnP6NQ+5rZ+ZtTAth360F/c8DVAKEVFoXTXpfDaq/b4UIFpHwW7HkXYh0A4CAHAAJg6tgxyJt6jQXGSXOEXph27rzP65ACVbiwnGYqTrVLnjYpiYBWLCS9tm4FmSR8D7PGuwBgjLVlZJR/D7MFCJPhugAhTBYqEMMMGwvCX0wWH/eXvfTKKNfB+bWDzaRoeYkBA1sknfRG91/pdSegSHwbP0qPwDuosQEDxA5gCQHwLFu2zPjc+TsvdxTj1KlTdfhwvlJS4jV2LOmc0crJiRnGDDzkACCilgHzJtYDtwOVJqkmGnig0HfbvEOUlGI4LwbfAHxYRGjDm9o5+LnYjB0sR1gQAI1ucyXQnwRcgDCK9kV4WhBgsXtW0ickpQ16tYILEFAinDzXS2rypioWeCl6/UsBBCAQYEl8BBX3Nm7caEAAJ37cAvDoEy/AC56X/dq1a5WSkqekpGjDWxB6rdobf4FFBS4KrFgElwZnrIFjUuwryUNewLMi6AAn2OuH6w0AiivJreYYbGmHb/8uQAjftfN75ASh8VKYM2eO3/cOzw0o3N96izJhph8MI56dQeABAmOs8VaYpKgPpnRcF5yaMUcP/KT85ptvat26dcalQCAeEedwNpCuh5kcCwKAAbcAACG0i+4gJ+SD22WvNw4DrgcAAgyQgTXTBwcgMG7SOi/1rvHwfCoC8VRcUuwfXDJ8uc2VgGtBGOV7gKA9TNPhVc2RkycKl5fY4E+bgQUIKDxcCXxxGoZfYqKkgZu0KR9NueQTJzpUXX1MJSVvmIA6QAEuBmIRAHh84VrYvn27Sd274YYbFBOTYbIf/CoINeSfCcdUj0WFE/nrkqZL4lQeONN9cAAC4IBAU8qMQwwVvg0SKfbNuHHjTNqv21wJuABhlO+BsGJSNL78A5LwjxJ7MPCTeN9lHzxAYFzNXkpkLATEGQBccCWg4PxzJaDkaRSRevnlJr3ySpNOnerU8uVJuuWWZI0da4PlOOURXAjAAzBMmDDB/M4pkKC8uLhE/e3flmju3ATde2+2yV4ITrpmID9ExJcck/SS1yVzmxcsDH6tgwMQGC8Mklg7wrlkukTAJq4pJ6slkKvq9jVyJOC6GEbOWl50JgQpkuoVHi4GCIW+KelWSXP9VrwXEsbAAQKKnLiCrZJe9Vb2u9MLDgAI/gGDri7qI3Rp48Zmvfxyo06e7DRVES+7LMWUTCYTISEhQlFRttiUo+wBA/xMKt+5Df6Exx6r1bp1Dbr++jTdc0+WMjMHr2wvurEGdQHrTHaBE5sAI2ODl5lx4GMPDkBgDzBWvod3YJ+bxTCoTTtqbnYBwqhZahlu+l27dunqq68O4Vl3eBUxqXI/k/RBr796cEPGdH/6tMeY7p00xxtuSDMpcDExvrguYD981GvJuF7SZL9dCYwBIPDaa81at67epFzOn5+oK69MMamIaWlRJsAQUDDQBoVzaWmnfvvbWr30UpNuvz1dH/hAptLSBq5sBzoW/+7D9cC8ief4obcOxXu91iPf5UGti7featGf/lSv0lKPyWC49dZ0U9XRt3W+2KixHuH2IiuDdFWsW4GNn7jYCALxf1JkSZklpsXlQQiEREdmHy5AGJnr2u+sMCviZoBmNnQbft4feE33lNf9mCTGO7iXMIrju9+t0COPVBkff2xshL71rbHGHJ+a2t/pn1Mi5v3tXirhj3pPtlSO5PqLKy1bZloqL/fo2Wcb9OST9Wpr69GaNcm66aY0TZ2aYJ5NMcBAFwSES+H06Q79139V6bnnGvXJT+bq/e/PNPMOfdcDlprXJP3Oa0HCitRX3tYt098aIO/vfKdC//zP5Wpv7zF1Lf7rvwp1xx2Zg8zuALju8WaowPHA3rhFEmDbP+tRKHz2eA9gRSCwFfZQt7kS6E8CLkAYRfuCoKRNmzaZioWh205I+hdJpDfSYOHD1XB+vQV/5oCy3rChWV/6Uqm2bGlRenqUfve7SbryylRFRmLmJl+faoq87PkdSmQyKIgr+LCkaX/xOBTRuUqdv2ElaG3tNtYKJ6agrq5LV1yRqr/6qzTNmpUwKAuBP3N2rq2q8hil+fbbbfrwhzN1yy3pSk+PfpdCTAN5SjDugUeBrAcKQJE6SiAj7JOsFRYmGCnPB2qPP16rb3yjzJAlLViQoB/+sEBr1tiKnYNrZDFA2sWYeO7tXoBwcbA4uOcG/m6HVpvgV7Jj3OZKwAUIo3wPYEEgDiG0mdNg33tQ0i6vwv5/kpYEJEjxzBmPPvWpEv3ud3XmFP/jHxdqzhxM75xWfynpnyTlekECY6Bewqy/sF4AAKqru0y6JObr3l5YCXvU0tKj4uJOE1OwbVuzPJ5eLVuWpCuuSDGgICFhcBaQwW5dLChQOP/ylzVmnLfdlq61a1MNUApN3oS+Mwaw/Yek4969AFgAyH3FCxL+UranT3fqK18pNfEYX/vaGH32s7kBisUg/uAVSX/2Ph+AQMpj+AEEt1jTYD9Ro+N+14IwOtbZzBIOBCwId999dwjP+qCk73ij2z8r6bqABYShtB94oFw/+UmVPv3pHH3iE+nKzNws6WEvNTBxBfdKusYbiPaO6diw7Xb2mPoGP/hBpVC4Dz1UoLIyjzZubNIbb7QYi8Ill9hAw8mT4w0oCLTrYLALhwz27GnVr35Va1wfuB1WrUpSSkqUYmNDb7zvzJcYhSOSvu91+7A2yyV90Uu89A5IYI7f/Ga5Hn74jB56aJzuuy87gCAIC9efvAW3cH1Q4jr8AIJTrAkXA8XM3OZKwLUgjPI9ADkKFoTQJtSBjheFTa75fd5o9sAt3PPPN+jBByv0pS+l6vrrKVPMybTM+5LHnfC/XitCH9XktRrgMvjWt8q1Z0+7xo2L0aJFieYEvmpVsq66KkUTJ8YNuftgoJKhqBOVI3/xixoTF3H99alavDhJOTnRiosLVaBAxUhot9kjxAAACpZJ+ow3zfQdQPf739fp6afrdd99WbrsstQAAjWsGYBK9g5skOFCOvaXO8WlWh7oJ2d03edaEEbRelOcZevWrbrtNvLNQ6s5BYc8nrfV3Y3J/yovg2JgT2fV1R79z/9U6pprdmrhwj96/ckwNELGxEkKCwJxD/a5PT0RqqyM1k9/WqtHH61WXR0KQkpOpkpimr761QzFx/fvPqDqInnm/aUkhor0KQlNSuCf/9xgrCJOmmVeXkxQgIKtqNl+triS73Jw+CeoiskpHlBHZgncBIAEwCSVMu26HT3abvgkZs6MN5kqgQ3MJAYCVxhxMRPOlhIP5XU+V85umqPvO280X+kChFG0+pDqUBoXbv9QaiiNmppabd2xV8dKdqq1rVtdXQSVBT46vKfbFqrJyNym3t56dXURmMiLPsObtghjo6PwKbMco+3bJ2j9C+3qVbeJOUAJRUdFaNHiFl13HWl55zcUUlZ6itYsnadpUyYaJRLKjRiKrVubDVAgHfDSS4mdiFdubkzAXCWmtHZ5hTZv361jJZXyePpUTPRLOE4hKEvdHBlxRoooUE8PRaBs6+riq9fMpR/KCL+e1t/FkZFtUm+kFJGgcbkZWrNsgYoKx4c0GOw7D5coadBbYFR04AKEUbHMdpIUaHn77bcNLW8oNch/fveHJ/T9p/braGeeeiLh5g/31qvYzjq9Z1qHvv6Z+0I8tfQdWeNu2LSpWS+80GCAwZIliSbIcvz42AtaSnxdKQpQ/fzx3+s7v9+hqtjJ6o0MPAD0dSwBu663VwmtJfrUtRP1sbtuVE5OePjzKyvYp/+SAAAgAElEQVQrz1It5+dTPMttrgTOl4ALEEbRriByGTfD9Olw34dOIzbi33747/q3bTGqzlg+IFKASK8ngmBCzpeGW4BQQ+/vwzHbiO4OrW74rf7nXz6padP+Mk1yOMbjzzPr67v1xhtNBiwkJUVq7txEzZ6doIKCWHMqH0jwZWdnp370q6f0zedrVZ+52J/hmGuN7ca7zj1eKoSz6+5da787DcANMZ11ujVzjx74+I1hs85ODAIkSS5RUgA2wQjtwgUII3Rh+5tWqJZ7xtz53R/8WD94K061Wf5x3KMwspKidcnkJFW3dKulo1unaj0qyIhRbkq0qlu6dORMp5rabezAULaI7k4tq/mVfvHtz4QcKPNVDvX1lg769deblZERbdwO+PULC+MM6ZI/DYDwyK+e1jfX1akhg+qcvjeAwISsWE3JjVNrZ69Zz8pGjxYUJKqzq1c1LV3aW9aubgc5+N71oK+M9jTqxqS39O1P3KwZM6hQGfrNjUEI/TUKhRG6ACEUVmGIxgA5CrUY5s6ltkHotMEAhKjICC2fkKifvL9Qv9pSo4zEaB2qbNfE7FjNGZeggxXteuVQk2qauxUfE6myhk6lJ0SZn0/WdCozKVoZSVEqr/eoo6tHGUnRio+OVGl9p/JTY3SytlPj0mO0v5wceP/aSAAIzowpJgV18/btLUpNjTRpnPPmJWry5Fifq0cOBiDEREXoA8sydPn0FO0ra1dOcrS2n2rVJy7P0ZHKDpU1eMz6ZyVHy9Pda35PiYtSRmKUjld3mHXOTIrSsaoOAyirm7sM4Ojs7lVJHXsiWnWtXapt8R9IhiNAcKmW/fssj9arXYAwila+pqZGBw8e1OrVq0Nq1oMFCEuLEvXl6/J13y+LddeSDC0qTDIgYXxGrFH0Xd29iouOMKAARb9iUpJqmrv0p531umtZphrbu5UQHamnd9frY2sIWpQefqlSX7wuX0+8XW8YB5/YSQEh/9pIAgjOzCGJ2rChyXApJCREqago1hBC8f1iZaYHCxDetyhd8bGRem5voz6+Jlttnh4DGN462WrW+ER1h1ZOSlZTR7d2lrRqUnacEmIitW5foxZPSFRaQpQOV7QLI8PY9BjlpERrf1m7EmIjDVh49I0aHTkDpbJ/LRwBAjwI1GYh5Tkri+wPt7kSOF8CLkAYRbuivr5excXFWrCANL7QaYMFCMsmJOrBW8fpm8+Wa3FRolEWSXGRmj0mwZwe+Z2sAxpWg6tnpeiPO+q1/kCTfnx3gbEwXDs7VV99okz/+aEiUz3xxkeO6ld/PUENbT36/O9KVN3s/8lyJAKEd4CCx1BX79rVZlI+AQiLFyeqqCjOkBJRC4K0SX524gYGCxAAf5Ny4rTleIsunZpsrAH3rMrS0TMdqmzyqLLBo8VFSWru6Nbhyg5NyYnTrtNt2lHSqpvnp6m9k8CFXgMS71ySYawID60/o0fvmaCG1i596OfFaumAkMm/Fo4AwWVS9G+NR+vVLkAYRSuPBeHw4cNaudI/P3+wRTQYgIBvenJOnD52SbZRBpwqOT0uGJ+o8RkxKm3waHx6jPJSY4xC4LQ5Iz9Obxa3GkVx99JMRUVKzR09OlDepkumpigvJVo/fPmMPnFFjsamxur+x0+ZwEd/20gGCI4samq69MorjTpypMOQRI0fH6MVK5JNYCM1LyZNijOVKgEJgwEIuJJWTUrS0gmJqmzsMut8qKJdty9KV1VTl840dRmX0GXTkvX6sWbtLGlTQUasAYQHKtoNKMxOitbu0jbjdsANMWtMvH77Vp3+8PHJ+ummavM1kHUOR4DAYYGUZ6wH1GNwmyuB/iTgAoRRtC+IQcCCMH/+/JCa9WAAAhPBfZCbEiNPd4/q4VDollITIpUYG6nG9h7NH5+grKQo7TjVZhRJfEyE2j09avNYS0NqfJTqWrqM+ZogN2IQenp79eGVmdp4pMWAioG00QAQkAsWF2ibt21rMQWSOjp6TW2KdesaDdvkpz6VozlzEuXxDDxIEfsPa0WMSWd3j4kVABxmJ9sy1gQtrp6SrGm58frd9joTtIjrwNPVq5bOHuNeSIiJUG1rt1nvxrZuE6+Aa+H2hen63vozqmikAJT/LRwBAoyquBncYk3+r/dousMFCKNotTkxHDhwQGvWrAmpWQ8WIJw7GU6bSbERxtfc0dWr/NRoY/KubOpS1zlR7gSuNbX3mCqMKBRMzJwiAR3T8+O1r6xN3f5bnc2QRgtAcOSPS6GiwqMXX2zUQw9Vat++dmVkROk978kwIGHatGj96LGBZTH0t2FjoyOUGh9prD8ACGJOsAycqu00a9+3EaRIhgsxCTHREQZgAAaLMmMNYMQlMRDrAc8IR4CABQGLIqWeXQtCSL0OQ2owLkAIqeUI7mBGYhZDfxIjvfHmeWlGWWwrbjWuhoPl7Tpdf/4J8UvX5evJHXVaUJioGXnx+va6SmNdCEQbbQDBWhOkXbtadeedx3X0aIcBZllZUbr11nT9zd+ka8Pul/TAC/6nOfa3HtPy4vTxNTkmJqG80aNJ2bH6v+11avecr+o/f3WeXjvcZLIfVk9O1s9erzYZKoHIigxHgIAFoa6uzoCD1NTUQGx3t48RKAEXIIzARb3QlIha3r17t666ijoHodMCbUHAbPzR1dkmUn1febsxJx+rajduCP723L5GJcZEaklRou6/PEf3P3ZSaYnR+udbxuqq7x8xWQ2BaAYg1D6mnz/4ac0IMXKqQMyvvz4ACFVVHq1f36TKSo+xKJSWdhqXw4KFMaruekOPHWrxmwehv2eRjfLIXQVav79RHZ5eJcdH6tfbak38SXSktPFos7EqTM+L11+vztJXnywzQaus87+uq9Du023qHqjZoM+ADEBI3q4H779JM2eGBw8C4AAuBCo5YkVwmyuB/iTgAoRRtC+am5tVXl6uqVOplBg6LRgA4aa5aUY5YE1AKZBH39zerZyUGG042qQrpqWYVMgPr8jS5/6vxFgXnv7EVF35b4cDBxB6OrUy6m199P23avXscSpIleJjwrE4sH97BZBAyWXKYzc396iytlt7S3pU1eLR7t3r9Mf9jQEDCF+6Lk8v7G/UHYsztft0q+FIwGIUFx1pglan58eZIMbbFqTrW89VmHgEYg4eeeWMSuo8xuIx2AZAuHp8o/7hjuVaMSNf8TYsIqQb7wKsCFgPkpOpYuo2VwLnS8AFCKNoV8C/Ti2G66+/PqRmHQyAcNWMFNW0dGvuuARDdAQYwLxcmBWr32yrNVwI0ZGRumFuqu5/7JTmjE8wXAp/9/gpY2EIhOLAgrC8Y73ufP+H5UmdoJxEaXq2NDNHSqcm1AhuyK+xQzpULZ1qkBJipPyETj39zNP6wSuBcTGwhp+8PEcPv3TGBJRGR0UadwNpr6S1vgD/QVGiiS25bGqy/uXZct04N90EoH77+Qodrw6ci2FtVomuW3u5Fs0s1KIxUnKIlxMhHon3QV5enrEiuM2VgGtBGOV7AP51zIpFRUUhJYlAAwSyF7KTo0zAYUp8lIlgr27qMiyJRMIfr+ow3wlQzEyMNnnyWBvGpMWY1Lnims4BB6z1Fax1MfxaP/jGp9WZPk0bTxL8aMFBXrI0P08amypjDh8pjYDO2jZpT6VU1iTlJUkFaVJWohQf2an/fPxpPTAAquX+5EO64sSsWB2s7DBrlxQbqTNNHpPuSFolFoLMxCi7BxKjzNoWZcWauIj95W0mODUABgQTpHh98tv6zAdvUmvadBMwuapASk+QybQIxcZnDjbFxMREU5Lcba4EXIAwyvcA7oW33npLN998c0hJItAAwSnq47z8naJNpoBTBCQ+vcbOz8s7QhHq7u1VlLe6U29Pb0D80gi4b5DihMnTjcJ85YTU2iVNy5SqvdmTWBWmZkqpYWxV8HRLJQ3Srko4JaQJGVJRupQRb60HgKDB8CD0+/LyriGgxK6lTNChUcoRMkDAWXP7v15FeteZDIZAWIkYlxOk+K2/u1njJs7QjgqptEFaXWjBETwbodao7FpSUqLx48drzBjKnbvNlcD5EnBdDKNoV2BBwLRYWFgYUrP2BSCgYMamxajEm4mwuCDRvPzh4ycXnkC0Y9UdKvP+H1rl+OgIw6qH0qA2A9YC2PcwOU/MjlNJbYdK623qIwok15Apec6mNdI/VobG1h4lxkVq1eQko1QoErSntF0p8ZFGCTVcIKjx3CwGxoHZndP19jJp8Vh7sj5eK51pkcakSPOwKqQMqKDlsKwpnBO7K+2cYqKlmdnSuBQpJU7GF9+36qMvAIGUQ+oiVDV3GX6F1VOSVNXYpUNnOlSYEWssAG+fajWpjTS4DbAGkbaIW2FiVpxioyLMOkOlXJAZayxGcBwgfwg1x6bHmt/JcjFATjKkSqUNncbatHxikjct1qPSOo8pEFXe4DGkS/1ZHM7NYmj1SEdqpK2npRUF0uyc0AMJrAVVVOPiKLoV4v6QYdnZ7kPNZ6OXT6HbRoUEwtWCgJL5zm3jDBHOVf92WPMKEnX/Zdkqb+jS8/sazIt++YQkTcuLNzEEEOBAy0tRnp+8dkbzxidqxcREw7O//WSbPrYmy7zoUSDffeGMMT3fvTRDn7wiV7f9+1Gdaeo2io04hr+7PEd/+9gpw6ewdmaKoe+FaOfPexsMCyMBck/v7r9Ow4XSHDu6pIpmaf0xKTtRWlMkdXRLx2qlI7VSTKSMH3typhQXFXpggTdGU6cFObsqrKUAYEOMRUKstRb0Z1n3BSB86do8TciO05efKNV9K7OUGIfCTtRf/7JYa6YkqzAjToWZsfr870+bWgtfvj5PbZ29+uqTpVozNVmXTUsxa1Lf2qWrZ6YqPy3G7BPSH6nVQHGne1Zk6c6fnjC/0x74q7G6cW6aLnvokAlmvWpWqhaMT1BJbac2HWs2cQu4Kh54tkINbednuPSX5tgF70az9NwRqTBdunyCXdeBlMkOxsvp9OnTOnHihCZMmKCCgoJgPMLtcwRIwAUII2ARfZ0CPkcCkyZNmuTrLUNynS8WBOiPN35huhZ884CumJFslDMc/Cj6f32hUmsmJ+nOpZn6yC9PGhPz5dNStKggwVDp3r0swygLotp//3adrp+TpoXjE7SrtE3/saHaWB2wOGz94nRd98MjKm/sMvPmNPnwnQX6yhOnzd8g1Xnv4nTtKmnT9pOtpn4Dz//tm3X9yundeBA4zbZ5ZOISTtRJ10yxiqTdI51utKb6+nZpWpY0L1fKTBx+fzYH7rJG6c1SO0aCLRfmSynxVvldzN/uC0AYkxatf755rL78RJm+855xJisBTouP/LJYVc3dumFOqgk8/dqfygQhFkGm71mYoS/8vkS3LcjQHUsy9NLBJr18qFE3zE7TNbNTTeojgakErRKf8srnp+mDPztxtjBTclykDv7zbM35x32GeRMrxTduGqP/91SZKhoBGilm/3z9qTITt3BuuxAPggOk1h2VWjql98yylpVQaN3d3fJ4PIqOjjZfbnMl0J8EXIAwivZFOPMgJMdG6u2vzTQAAZ/uXUtt4Z4jVR3afKxZn7oi10SzH6q0p0JOm1R55OR49zJbb4EsBngRFhYkGFAwNS9eD71QebaU886vztD1jxw9CxBwRZBn/40/lZq/LSlM1N9fnacPPVps2PdQGrD5DQQgONuu02s5eLXYZjisKbTmaLiaalqkvWesVSErQVo6TipMk2KihnbTMsajtdLmU1JXr7RwjDQ9y0bq++Nf9wUgpCVE6ru3j9dXnixTdJR0y/x03bsyS3f+93ETfOjwGUCZTGMNPrA8U//whxJdPSvVuCGIM8HN0OqxFMuNbT36w9t1Olpl98bmL07Xhx8t/ovKjae/M9cAhObOXq2elKQPLs801iisUncuzdAzuxv1ZnGLTy6Gc1ens0vaWiq9VSa9b5Y0LnX4LQlYEI4fP66JEye6FoSh/TiF1dNcgBBWyzW4wcKkSGDSnDlzBtdRgO++mAWBk+mP7i4Q3AZP7a43Sv3bt49Xe0ePvvhkqb54bb5R+usPWHM/PmTcDDfPTdNPX6/RiaoOAyg6u3v16621umZWqlZMTNKu0616fFut8UmjCD5zZa7xb//1L07qU1fkaE95m6kSuelok770xzLdNM9yK3zvxUqTNvfVG/KNNeHfXjyj0n5YGn1lUsSa0NAurT8u1bdJt0y3WQ6YozmFtvTxaXOKXzLWnt5TYoOnaHguwZS7yqVtZVJavHRJgQUosQN0e/gCEL59+zhdNytVDzxbbsz5H1mdpbKGLv3j02V65pNTzN92nm7VH7bXqSAzzoADii7998ZqY1H6mzXZpljXn/c2GuvCZVNT9MSOehXXdmp/WZvZB/euzDasir/YXGtiVO5dlaU7FmcY18Rn/++0PrM2R68ebjJxJvetyjK8CZQG/8+N1aa6p68WhHOvO1ItPXlIunKCBVmUER+uhgWhq6vLWA+iooYYcQ7XpN3n+i0BFyD4LbLwvQH2tGPHjmnJkiUhNYmLAYSQGqwfg/EVIJy1JnRJ+6qkLSXSorHSgnwplkA/7wUAidMN9jSKf3tihjQnV8pPkWID4N8GFGAhqGqRdpbbmAii8JePl3KT/LMW9CcmXwCCH+INmUt9pVrGHVXdIj1xUIY067IJUmLM8EyDLIZTp04Z64GbxTA8axAOT3UBQjisUoDGSHEWijVdcsklAeoxMN0AEL73w5/o+9tiVZO5YsRQDUZ2d2hF3W/06IOf1rRp03wSFkq6vEnacNIG+11aJGWhnPtE/XFNXbt1PxyskhJjpbm5FjCgcDD7+5p+j9IiE4MgydJGaUe5jX3A3QH4IE0xUCddByA88HyN6jMW+T5InyQ3fBdFdzbolrSd+tb9N2m6D5TaTR3Si8dtvMnVU6yM/XHVBGKmLg9CIKQ48vtwAcLIX+OzM4RetbS01KeX2FCKhWCpx37zv/r+SzUqjpmt7ohIqQcfc3gn2MR2NeqmjAP61t/f67efl6C2t72neNIhp2SenzZoTvw90vE6m1FAZgGxATOy30kzvJDiwRoBd0Fzp3SywYIN/kbQIZwMcBcEOuIek/ajv3lSDz5TrDNJc9TLOodziyQ9sEcpLcf10SXR+sTd1/p8Gm/rsusLwMOS4LhuhkocHBawIrhMikMl8fB8jgsQwnPdBjRqMhh27Nih6667bkD3B/MmUjCf+vPzeqMiQZFttYpuOe0FCcF8anD7Tk+K1Xtvu1kLFywYUK45CpsMh22lUmaCdTnAm3Ah5kVcA5D0nKy3QY3EKRDLkBTzjquCPsnTr2uzfZ+ot8GG+MRRUsFmdTx06JCeeW69jhSfNuWWw7m1Z8xWZFebCmJrdOftN2vWrFl++fMBd/AlkBWCxQa+hKS4oTGsNDU1iZiktLQ0paSkhPMyuGMPogRcgBBE4YZa16Ga5ujIqbK5R5tOSjMyO1WU2u2zmTzU5OyMBwKamJjBOZlRoSjzt0otydLcPKvIzyUh6isDrA+QL5EqSVDjlCxpQpqleYYGmdgCiJmIpsc1kX2OCyPY8iRADndDD76NMG6bS2OMfJcXRJpsCbIn/G0mrqRR2nbaUnDDf5GW8JcuJX/79OX6+vp61dbWmkqO6enpvtziXjMKJeAChFG06JzSKdZ04403htysOU2R6pcQbU+zwxW8FXKC8Q4I+eyvkg5UWaZF3AgZCe9+4uce3Acbi61VoSDdxhmQBUHKJFaJi3EXhKo8QmFcFKHCRcDpH9A2AHxgpmFAYKtNg8T1QI0OWDUBdMFqAATcDFlZWS5ACJaQR0C/LkAYAYvo6xSwIOB3nDx5sq+3DNl1MAtuLpFm51pyILedLwEUCXJ6u8wqFeINxqfaeIG+jVMpgXDUeqhssaCAsy3uBupBoHjGJks5SRYk+Mtn4K6NlQCMmC8dl/KTpXn5g3fPEA+yu8KuEZ8BmDQJQPXfLnHxFcLFQFYT1gNKPrvNlUB/EnABwijaF8Qg7Ny5U9dee21IzZpgOcABzZTKDRG2uZASUp/BwMBI/QMUP24CXAjpcTbIEBdCTZtU0WTBAe6DWdlWiRGwiFLDpI3vu9ljYxVIYSS2ARN3KFI7h+o6ANJwiREsitUrECyJkFKxNnwB6AAKWIoCbekBHFDZlVLPuBnc5krABQijfA9waigrKwupLAZesqT14WMnUp/AuoGaakfT8gIGqJ5IUCLKoyhNQrlgNeAkCn8BaYoEKPYnT+4ntuFwjbVKENMASMCiQH0ISJiGOvUuHNcPXgrAGrLGhROI0z6Ao6RR2ksBrChbAAuui0AGkPIuwM2ABcENUgzHnTc0Y3YtCEMj55B4CpUcd+/erdmzZ5uTAy8IophxPSQlJZnqbgTVEURmyyL3mO/8Dtsa6YhUf2trazN15PmenJxsvvN30tio/QU7G3nW8fHxooIk1/KduvPO3+mLZ3V6urW9MkatHd1aNj5SCVGWH57ruJ6x8QJjrJx0CKzCb9rY2GjGTLBbZGSkGSfPZ5z8jb75nf85jZ8ZH9fw3fmZ6xk/L03kgW82JyfHVL7kmc6LlLEwF65njMjH6Yfv/E7fPJcARebA9Xx35Mv/GSt9MD/mwfyIKMfUyxiQqSM35ERfztyctejo9Ki1J0YnG2P0RonU3FiviLgUrcjv0MpJiWprsnKiP9aBsfHlyJY+nXVraPWotDlaxXXd6u6NUnJchMZmJCg3WUqL8Siix47BGZOzFsgHOTknUWc/9d0PjvwZN82RF3935MS+Y4zOXB25sobIHLmw7igz5xnMC5nyLO6lL2fv0rcjJ+TsrIWzn5Av99Mv/fM7a8TacC/30Cf/4x5nPk7tAvp25tXVG6lnDvVqSnaUZmR4lJgQd/bzxJoyZk7rzt7l93P30bkycT57tW0R2lsVoa6IOE3NilBuXJuS4qLMOjp7njE5+4i+2bvOnmV+pDbzf6dyo/OZYM2QJeWeXQtCSLyeQ3IQLkAIyWUJzqB4sfGyws2wcuVKbd261bAqHjlyRFOnTjXxCShIFAGKxFG+/M7LmHvz8/NVXFxsrofLndQufoeNDWXHy44XE5TOsLQdPnzYXAuDI7zvsLeNGzfurMIvrmrVkaZkZca0aUlhgurr68wYuI5Kc6TFzZ8/X5s3b9bll1+u1157TVdffbW2b99uLCHUl0C5oxwYHy97Xn4ZGRlnlaOjnLiOlytK2wEzvDxRdMxr165dWr58uV566SWTCvr8889r7dq1ev311428jh49auZA/zyHlzP9ISeaAwgcOTEH4j3gnnDky3283HlmUVGRWYu5c+fqrbfeMvPcs2ePZs6caeTFvfSVm5vrBUTJqmtsUmd0qsoae9UZkajSqloV5mXowK63lDtlkSK627ViapZO7HxVV6290vSHEkDJoSSQC+NCsfOddUOpMK7Glna19MSrrCVGsWl5io2JUmxvh2I99ZpRkKGyk0c1beoUvfHGG7r00ku1fv163XDDDXruueeMnLZt26bFixfr5MmTZ/eDU0oY2SArh+IXBcx+Aaiy7yhB7gAOxolsGaOz/hs2bNCqVavMs3nG3r17jUx5FnJEGTM3FCLr64Be1gqgxFxZO/YjABm508/BgwfN76wRe5x9xD3sUdabcbG/+Z3xsbcdUIIi5/oNJ7qNEi6Mq9OUwnxzH2N78803zZg3btx4du+uWLHCkJVNmTLF9Ac4ZC8iG2SFTPjsMX/2SUdPlIqbE1XfnaCYjiotKEhSdHeruZZno+SZP+nL9M3eZW22bNmiBQsWmPkxbwKU4Txw5MN68Gz2lttcCVxIAi5AGGV7g5cbih3lw8sDhj8Kt6BEOKX1Pek6LynnNM+pi9MGsQy8MHnp8ALld/4OkAAg0AeKm5cPfTvX8oLi7ygFc7JJTtXrx9vVExmvedkdykmLP3uC5jquB2gwVl6q8+bNMxaQRYsWGVDDmFEMvCh5qTqnZf7Gy4/x8CJ10um4jp9RTigqxgpo4HrGj1KeMWOGUR4AJ17wPGvfvn1GaeOeAUhwPQoB+dAHL3iaY4lgbigr5jB27FijCJAB8uU+Xvz0wfwc4ITiYp6U4EWmPIt7zUk3LV01ja1q6IrXiao29UYnKi4+UbnJkYpoKNa0whydOH5c+UVTtac6Rq3dMao4ulMfvHaBzpw+YRSto3SRC+vFadNZN57BuJzTdmRklCLiU1XeEmUC5hqaWpSekqjWmlItmT5WlcX7tXD+XJMRs2zZMiOnhQsXmv2EYqRflLIDNB3ZICvkzhqwFvwfMAgIYozOiRu5IlP+x/5BLqw7YHT//v1mzyInZOrsM8fS5Jz2HUuVY5nhOtaO/lCofAYYqwNEWSP2BfuIe9ijgAb2sDMflLdjQWL8AASsDhWNPdpZHafJyc2aPyHDrB1jA9wAPgBpgD/mwD4C1PB/nkN/58rEsYA4/VPOvLQ1wRQay0qJ06SUduWlRis2Jtp8jthHgBL6BigAOB0QwvyYN3uPPelY/3gme991L4wyBeDndF2A4KfA3MsDJwHqCUDtOzZVmpcXuH5HSk/4ouE+IFUREqTuHlsoiaBCYgzIPjg3vsAh34HrgP8hV64daCOoEc4EAhvJjCBmhEBG+iSDIpipeAMd81DfRzzHEwdsDA1ZOIGMFXDmwl4ArJHmSqwJz0H+bpzIUK/26HqeCxBG13qHzGxRZBQEIuKeYkBE0LvNSgDZ1LRKxfW25kJ0hAUDBKrlJb07SZIjQ+7fU2nvH5cizR9jFftAG+CkocMqKfpu77JZE6RKTsqQ0uJGt7IiC4eyzgvHSqlBzMIhsBSQAGgjewVabBekDXRXu/ddTAIuQLiYhNz/B0UCpmJghY2ch0I40GlcQRl0EDvlhEjBJBQwpEakMsbH2KwCiJH47u/JlPTRQzVScZ29d36+BRmDibTHgkC/ZJ6Q/YBVAbCQFCtNSLcEP2REjCKT0JoAACAASURBVLbGft540hJQcbIPZiYO8j5cLR2vl7ITbIol8nebK4FAS8AFCIGWqNvfRSUAPe2eCqm0SVpdIKUnXPSWEXsBwAAwcKTWWgxIa8OaAj8BefCcRgcDnuif0yanztp2q8QBCn2rQw5UuFgQ6tuk8mabMok7BEvDuDRrVRhNViGsPk8esAyXM3L8B3P+rgFyBkgerLYlutcUWr4Et7kSCKQEXIAQSGm6ffkkAch8iD1A+VGpcDAK0KcHhthFKG1O4pRV3ndGIhYDWZBWCDDAqmKqKQZo3DyrtdMWZsKaAAiBbpnnBKIxn9YuqabFuowcLgbKGMMGCNAhdmKkt62nLdhjTweCNOli8kLuVa2W7hmwvWK8VJQ++j5PF5OT+/+BS8AFCAOXnXvnACSA9WD/GXtavrRIShtlsQdd3Tbgb3+11NxhQQFBh4b2OD64fnxOnbgFcDtw4jen3ezAPpOTdEO7BQlnmi1gIJAOywVfsGQGCvgMYPsF9RaA758PS1dOtIG3QzVPinNhScBKxHricnCDF4O61KOmcxcgjJqlDo2JopjeLrfFmFYUDN1LdLhnT+T5oWprMeAEX5BqQQGneAIQh8qKwqmzCWtCna34mBovLRsX+BNv37LS+OdNvEKnpXyelWPnPVRzHqq1Z86/3SMtGmuDB4dSSRMXgssBZk1YMC+bcH6NjqGSg/uckSMBFyCMnLUM+ZlwgkVJctq5YmL4+0w5uZFOWNZsRQ9n46RMe4JGIToNRYEbgUDDyRlWOWI5Gc66BwAWTvhYMhgvNTAmZgReaQNIeFaLx9aJoH4EXwDEWdATp/qWlRHym9s7QFxnmP1Xjg886LqYDAAoxJsQ/EtsyNpJljY7mAGTFxuT+//wloALEMJ7/cJq9CgiXl4oTIITw/3FhU//haM2MA9rwPrj0uIxXj98i43op+2qkD613JYFxlrgbzZCsBYZhULdBgoDHa21hZ/IKGGMwWg8j3LGje1SWaONwgc8AJqoTAlo6sOMHYwhBL1PYhD+d6907ZTBZ4wMZLDEm5BZgqWKOhsAFdIhR5q1ZiCyce/xXwIuQPBfZu4dA5AAJ0mUEDXvr5sS/tYDRIBi3XLaFtPhJfztTTZ6v6XDnsyxFJAtQCGfG6cFNz9+AEty9haUNBaP7WWW2wClgg89WI294OmxgZPEKrAvKE5EMOPCfAusQgVEDUQGj+2ycQAAwuGaB6mQWLdYU/YmbqThGstAZOjeExoScAFCaKzDiB8FJ1WsByijyyeMjBMNpvLH99iXMFH6zPHeBTYI8bmjVglCcoRp/Ze3W6a9UG0AA9wA+yot8JmdZ2MFgs1pQNAqBEOtHgsUIHeKipLm59pSx+T3h5ulidM7QbjEAQTLGuPLPiJgFOC3pcSSKV0xITzl6ctc3WuCIwEXIARHrm6vfSTAiRFzPGxzt0wfet9sMBYDhUrw3W/22JRFlOmmU9Z1cqzOBmIyb8owv1Is/fct0tSsYIwksH2iVE7Vy1SIhMdgVaGNnQh2Q4a4agi2o4w1YBL5Tsy0VgWsC+FiJseC9Nhu6daZNktlqLIZ+lsj9iBsmttO28yVyyZKYxjTcA4q2JvJ7T9gEnABQsBE6XZ0IQmgdDhV88KHaS6cm3Mqe+OUtPeMpTG+cbqUk2itBihV8tFxLfxgi0174/e/X2XjFMKhOZkOzBHGxEsnSBMyAkOu5Mv8eT6WBQLtsCjsqrSR+auLhj47wJfxnnsN4//tXktIhZshEKRUAxmHc4/DgwHoIi5hVYG1zrggYTBSHR33ugBhdKzzkM0Sc/vuSvs4Tnzk+KNEt5W9MwTM8fjliZwPh4a1gKJF+HSJOSAQjZM1c2AuzosWxUBzfuc+vpBDuJx++64H8yHj5OUTNs6CmhlDTenLGHqI96i2FhrYGkkjnJ9n6z+EalDjgTPSgRrphimWMjsUGqALimb2MAABsqzY6OG1cISCXNwxXFgCLkBwd0dAJfCVFy0XPYxuxQ3S0welv15oT1QwzKE8KfaDcr1vYUAfHfDOsBaYiPAqe5JNjrFKknRAuAxGS4PxkWyNzh7rx6ZgVPQwzB+wRboo7ht4HBgHYIHsC4BaKIEwYm0e3iJ9ZNHQuGh83YsALqx5uJAAWCsLLBeG63HwVYKj6zoXIIyu9Q76bL/+snT9FJvjTrAWZvavXyZ9/SVpcpaNpMYvf9M0CyJCraGE8IMDDLaWWpMswYW4RnARDLe5eLjkBVgixx+ZrBhn1zeB0+cwaBbjAumQDtdKuyushYH0TMiJoKhmj4UCWCCAdVG+NC07NMbj7B0MXXWt0utUoOy2WSvEeAwlsdNw7WP3uf5JwAUI/snLvfoiEuCl+N/bLQc//mtOKACGBzbYKH8UCjrl2snS51eFhjjPpt15bNQ3SoeqikvGWV4DIvmHQxGGhnTeGQVyIiPj6UOWswBfNgGMw2lNcSpLkj4LQRF0zpjPnXoWZJEM19rBbLjhpHTnbGvKD7WG2+zNUmtRIF6CFF3X5RBqqzS843EBwvDKf0Q9nSj0Px2U1h2THrpG+vGbNs1rbq71Y5ObDfsg5uDZudb8OpwNa0G7R2rosJHz1CgAvPCypCJfDNSIbjtPAviyN5201hUsK5zchzo24dxBsZZE6e+vsimGSTHWFQSnAqZ00vyG2qoAoPr+ZumeBYErjBXo7YhliBoO1EdBXjNz7Gd2uEBVoOfn9jc4CbgAYXDyc+/uIwHy2R/ZJr1/rg1OJLVx40npQ/Nsbjsvoh9ttadOrsFMPdQN8yovRUh68K0fr7MKBUpazNT5KS4w8GVNHF/280ekwnQrO07tw03Gw/oSRMqaovQ6uqXCNPtFhgkUz8RPDJVn5P/2WaZIYiWG6pm+rF/fa1jLUw3WmsAaAt6pKuq6HPyV5Mi73gUII29Nh21GThQ/b0JS1Ch/S80FTm+0s//vE+k/VIPl2SgLQAHsfeT6U2mQeAgsBpTnHeoT5lDNPZjPwWq0/piV6YIx0oQ0KSlEKjay5tQmIMCU4MaMBGl8mgWDgIWhiKHAMvXScekD84bXFePLHsACQ/AicgO8E2w8Gsp0+yKb0XqNCxBG68oHcd4ojW2l1o9/28zhVbxOVcHqFqssyluknm5LwMPJzjWnDn4j9PRIR7w02mQUUFch1IiNSI8kTRWrVkSvHZ9TTROwECxwSBDgj7dJH54fum6GvjsAN+BbpTYWB9fR1OyhAVKD34VuD8GQgAsQgiHVUd4nEeYwyf3VDGmst2DRUIqEExBuBJQCJ1uAASRNmJdhM0SJYdUIVZPvUMoqUM8ykfFYjUotZwQgoQBrAv7sQD1kkP2YypI91ppAVVHGi1WBOAVAAmb1QAekIheCOnMTbYpsOPj2+ezAl0A8BzU5ZmRJ6QnBA1GDXFb39iBKwAUIQRTuaOyaFyK+TEz475k9tMqBZ6OcHFBQ22ozJ1ACM7LtiTFYJ8XRuNb9zZkT88EqS7AEOCSbBb6CUCQ0oqokgZZYFUiPzIqXMhPtPkmNC1w8BW6GJw5Kn1gaXn59spAgVTKluXMssHY/P6Prk+4ChNG13kGfLVkKj+6U3jfLmnGHonEypNgPLg2sBYACIu3zkyxFcDBNyEMxv3B7BrKvbLKMmrh4SD0kQh4lHIoNszqFtwhYJaslMdYChPxkG2w72NQ/XG7/+rr08SWhRZrky1pghaOOA58p0kfhdBjuQFRfxu1eExgJuAAhMHJ0e/EGIRJ7UFwn3TEn+OZUXrwEHfJyJz+/rcsGghWkWvP2UAShuQvfvwSw5jR32NTRskZ7KifmIzuErTjsJ9wOZEAANLF6wJ5JZD9gAdAw0Mj+dUet+4IKj+HWsMpRdwS5jE+xAYwE9bpt5EvABQgjf42HbIacMn6xU7qN2IPU4D2WMsr4kTHdGmtBjz31oYB4kQ/0JR68EY/envFnA+BwOWDpwZIAg2awy0gPVuJYFXCTMXayXwCeAATiFSjM5WTm+PocgCyfjb9bGvrZDBeaE0Geuyqk5DhpQZ6UM8yVKn2VvXvdwCXgAoSBy8698xwJYIrkJXLn3MD7Kp00RdjpyNkGFPDShlMBawHfXf9oaG5J1g4FeaRGqmyxaYbEhBD4FioBjBeSHEyNxLSUNkkN7RLgNC7KAlHSAP3JgvnpdumGqcEFz8HeAVhWAAnEJZDWCiGV20auBFyAMHLXdkhnBjnNozukW6bbXPNANfzZvJgpzkMmAlHgvJx4QRMEx8/hEBkeKHmEcz+YqrH64OvnJI5P29+T+HDNH0CKtQqAwz7kZxrzwJWFxcFbzNOQMnE9MRf8nWA/YhmYNxk+V04KbzCL6wi+BAinsAQRk8D8shOkpk4bd9Lise4ZAoRDNfZkuPZSOD3XBQjhtFohOlZOiJR55gX43tmBeflhmiYX+3it1NgpxXtNvLguxrhuhBDdCRcfFnsFgir82QTAOeRZKJKJ6VbBsPbElKB8sAyx3qEEAnE5UJEUxY/VirgbLAmAVrIiVhdaywiA6HSTrcewbKxlKNxQLH1kcei7WN5tJZn/DzZblwvWoLp2e/WlhdIrxXb9sPJBQnblREtb7lr3Lv7ZCMUrhhUg9Pb2qqqqSsXFxUpLS1Nra6sSExPV1tamhIQENTU1KSMjQ2VlZSosLNTRo0c1d+5c7dmzRwsWLNCOHTs0Z84cHT58WAUFBWpsbDQypo/a2lrl5uaqtLRUY8aMMc/Jzs42fcbFxamrq0uRkZGKiIhQVFSUeWZKSorOnDmjoqIi7d27V0uWLNGGDRt03XXXad26dVq7dq22bNlinnny5Enl5OSY/qKjo00/3d3dpi+Px2PGwd87OztNvw0NDWYu9fX1Sk1NNXPlHubJ/JjXpk2bdNlll+nll1/W5ZdfrjfffNPM05kfc3DkxBza29vN/cw7MzNTp0+f1oQJE3Ts2DHNnj1bBw4c0MyZM839zIn7kQ1jRD5jx441sueeQ4cOaerUqUZe48aNU01NjZKTk80zeBZz4jvzYN6nTp3S9OnTtW3bNi1ffbke3xet22bHaMeGZ3TFFVfo7bff1pQpU8wzk5KSjLyRBc9vbm4231taWhQTE2Pk0NPTY+bS2tGtup4UNUbnqq2tQ12tteqoL9fy2UU6dWSPrrhsjf70pz/p1ltvNd9vuOEGvfHGG1q0aJGOHDmi8ePHGxnTF2N31iA+Pt7IiTVAThMnTjRznzFjhtlXyIC1Z6zsC+bPntu/f78WLlxo5sl35jVv3jxzL3uuurrarKezZ1lX5Ma8kSOy53r20VVXXaUXX3xRN998s1544QWtWrXK9M913M/ngXEyjry8PFVWVprxslbsIWTE2vGFPPmO/Lg3PT1dx48fN/voD3/4g97//vcbebMvQrH9+bC1DEHTzGn7aK20dpL0dpnNQCFmgcBGQMPVnLhDsC4GitAp64zyXzpWeuqQtDBfOlZnwQ11SXCLzcuz1gaqgV47RRqXElqgx589QjDw55+31kJcRQQwUmtl2TjphWMW9JE6Si2TD823ActYWdwWfhIYNoDACw7FyMsQhcOLmRcaLzz+57zYHQWIYuRFmZ+fr4qKCqP0uZ/feRnzgkQh0JyXJi9qFBovV5QRz+jo6DB987JFMdFQCI4CRHnxUublzIv7xIkTmjZtmlE+kydPVklJiXl519XVnVWgvKhpvOAdZcfP/B3QEBsbe1aZ91W4XMtYUVz0CehAcaHgJ02aZBQZ80QJMT/m4Chr5uDIiTk5cuI65ER/yBaQ1Pd+nsd8UWQoNubBfLkmKyvLjMUBMIzbeQbz4JmMHzmihA1QKClRXfwknW6M1G2zo3T08EEzdtaG/hwQgLzpg+c764zMGUtPb4Qa2ntV0hytU/W9SkqI08TcJGXGdSsxolXd7U3KzEg36458UKqzZs0y31HwyI21Yg7sExSms4/ov+/YASYOWGPuzAEwgAwYK3NmXfjZ2QcAKdad786e415nTVDqzAX59N1HjIUxsUfZRwAmwAigjf0EaGOfcR33sWcYN3uQvct31pX5MC7+74Ba5MnPfLFGjMH5fABukcurr76qW265JSTfSo/vtsGkS8ba8trrj1vmPkoQY7LGZYWlgUJLD6wN7RM3FUyxdgEIsIzcMk062WBJop49YgEQoMEQMiVI8HMQixBKVhF/NgkWhO9uslYeUpmxphAHRDrr/7xtq0KScoz7CAbJNYWhWc3SnzmP1muHFSCgwHgRo3h50bkt/CRA0SNekFdNstHp/rz0OIHhz4XVDmVA6hSkOvgzedkONv88/KQZuBEDihxLW+B6DVxPr5+S3i63ZmpcDZjoMc3/aJsUG2l911gVFo2RPr44dBUMexgQUNEkTcmUNp2ynwViFDafthkQ+85YZsnrp0pzcqVf75b+bln41jkgUPPxXdJrJ6XbZ0nPHLLpm7gb/ulVCxQOVEuFqdL9S6XLJ4bvXAO348Ozp2EDCJwiOfkBEDCjuy38JIApETIcMhd4+fkSjMQ9vGCoQc+LE4Ijgg3xM8NilxIbvmlgobaC//7v/677778/1IZlxgPbJgoGCwJAgEqg75klfeMVW3mRvxGPcONU6YMhXOiIDAdqFxAbA0CA9+FMswU8/A9XCX8nuJGgPUi7+LwwV07d/gDqUFlIQM/Dmy0oAPC85Y0/oqz77w9gSrUAD8sQrpXrproAIVTWzt9xDBtAwCyK+RWggK/XbeEjAU5NEMoQRPbbPTYqm/z2dwtEAhhwquLlSCAXL0bDW5BizcjxMdY/67bASYC4EuJEQrFR6ZM2N8+CRH5fOMb6swl2hdYXhYov/575oQsaUYKMn/1L+iO/E8HvsA0Cctjf+O0BQez/nRX2s0NtBj43pAqGE1AgSwEXAtY+MhkIxiQ7A5cK1iBiSMh0wN3COs7MdrlJQvEz6MuYhg0g4HPFn4t/FX+p28JHApRyps49QIH2/nn2ZNRfo9IfOfAOExs+WIfQCJcCXAYuLgjO2j/88MP6zGc+E5zOB9krSpUYBJQqDYpufNbsKf6HNQq6ZkpJXzXZmq3DSYmeK55HtlqA7KRDrhov7TljQRDBmAQ7EvA3M8c3S9wgxR/024khcT7zs3NciuagCzxIDxhWgEDQGQF2BG+5LXwkALscnAflzTZSefFY6b2z3nmxYS3glAGpCuZXThsU7YHHndgCJ3c6fGYcniPFhUcgZLg2TuOkub54wqYIEqMQHRGeQGHaI9If7pDau6Wf75D+ZrF1sznEXxAxARBunmbTAmO9wClc1w5OCOpaYDEBKFATZX7eyAA/4bomAxn3sAEEXAxkH+BiCOeX2ECEHs73oPzxs/7GG7mNeZQXN1YBzMWcAElxwsfMKWJevjQ92xIaASbcfOihW/3vfve7+sIXvjB0DwzCk8gAwEz/0nFrviZFMNR4EXyZ9piHpHUfsp+J/9ou3bdQeuKAdTEQtIi5nkBGPifEJgAWAArhXmiM9QP84EIiIJVUSOYUztYgX9Z7pFwzbADBCVLExUCeuNvCQwIAhI2nJPLYedkRpATLIeZhopX3VtoXwdJxNtgMa4FbG2F41tbhuBiepwf2qZxGCWrdUmqVzKKx4RWz8o+vWFcbfnrcKZ9abkmFyAL6332WF+GSQhuXQBYPc8XCQGoksRkE8oZrFUXeGZApkblCHMaqQksq5YKEwH5GgtHbsAEE8rghGcKSQL48Od78TCMX3Pmd9EeHZ6A/AXAdzeE06HsN/yPWgZSv8vJyk/9O0JaTOw5IYRx9G3nnW7duNQGUDhkN10BqQx48pDzETMAVwDgZG5wC5MnzLPqERAjiHjgL+L+Tv06+u8PBAIEOOfkQ2TicBvALHDx40OS+k90BhwH58OTKQ9DDz+S7M35y9LkeXoChbIibFxoWAl5euBvaOqXeCGnJGOnmGVJWgg1ecmMLhnJlzn/W97//fX3uc58b3kEE8Om4raqaLfkQsStwCQBGQ13RkMJ7zx+ljy22AXuffV765HLLPvr8UQsI9lRK10y2aYFz8ix3AoF/ZEEQ1IjLgYwPuCKIzwj1Ofe37MRZbDktHa2R1hRZ60m4gp4AbuuQ7mrYAAKxB0RZAxJWr15tghX/+Mc/GuKee++91xD2PP7441q6dKkuueQSAwDOBQEocBgOr732WqOsHfIjrkMpo7gh09m3b5/p12FNhAHPYVVEodNQwih0nvfKK6/otttu0/r163XTTTeZ/wEAGDNAA8UOa9173/te4x7ZvHmzNm7caBQ9iptxQIYDqRBKnWBMh8ERawnjoM/XXnvNkOHAfgfRDwyN3/72t813SJLoG/BEGiigA94I+uI5zBdmR54zlA2A8JNt1mwIBXJXN+jMjmBWjvTp5UM5GvdZ7yYBh1BqpEkJyxX0xpyySbXDhRXKigarGpTL1062K1HRIu0osyySje02U2PFeJvdg3uB1MC+zbjt6qxyxQqB+wHLHbwD4QbEeX8cqLJWSDgucEuGemXPkfb58Wc+wwYQUKKAApS8w36Hst+9e7eh0YWpD+phlD8nZv6OUufE7bAaoqjJ9b7rrrsM2RI0tijONWvWGAUOsxwplCh17uH0jZJfvHixoSJ+6623DIsef4OiF8XMqZ2TF98BFih0wAqgAgXt9AHgQKmj3AEZXAtjHn9nXjD9oeSxXjB+/sc8mbeTwcF8AQv8H3pi+ob9DmAAIICRkPscil+sCo7VhT7e9773GavGQBp2F2Ol6elVNyyHPb1ni828W3+eLumZwzaFCfpUeAuS46XUWCkrUZqb37/lAAwR6TBXwiAZFakoNyBhIEvn8z2/+tWv9KEPfcjn68PpQk7YKE2IiWDzW1lgrQnhtKVgIKToERTTxB5crKFcCfzdXSEdqbUBvwvyLdAgGyScXHkwTz5/xFohAUfhYAm62PqMxP8PG0DgdE2tABTepZdeapQq5vudO3ca5QpwgHKYmgSY3LE2QCGLUobiFhM+YAGA8MlPflK/+MUvzPqgbLmekzyAAjM8p3sa4AEwAL0uyhflzM/0y30ABH5/9NFHdfXVV5uaCNRhABgAWKBsxqQPbS6KG+CABQBLBdz6gBGey5xQ6jyP0z5jdqwYXEO9A8DA888/b8AC99DP1772Nf3kJz8xVgMi0AE9gAp+B8wAUnCRAB54BjS6zK8/98qFNmtnV7fau7rV1O5RcU2TthZXacPRMu0tr1cLDkIfGtHlNF5Ihv/yAr4EBxTw0o6PiVZuSrwSY6NVkJGke5ZP06VTxvjwNPeSgUoACxW1PUZqA+TCx0EAHMoWkMAJPFxSZ6lFgV+eFM5Zub6vkil93mWDhWGjxHTPSRxLSlK0ZZ0MB6BELAa1G5jLFROl7KTwiivxfcXC98phAwicpFGsnLBRggAGCuJgeudnTvAoTxQx1gN+J+gKwIDChtP+zjvvNMCAwjQvvfSSOXlzPYoZ8EEdA56DNQGFCp89ypYGAKF//s4Y6B9zPbEFnLywKOD3B4gADlDO3Isyp0gUP6Oc6R8LAm4GFDX3MS/ABvdhxXAKKwEWHPADSAAMAQwoCrV9+3Z97GMfMy4T+sGVABgBBDFurgW8MFaACYAKNwgposzX1/b4m0e15USltpdU6/CZBpOO+G6NU38cdkz1qqOrRz1O+T0fHhgdGanCjCR5ensMIKlsbFObp1sLC7L04C1LdfWM8T704l4yUAkAQAG4I72hIDFbw+qJssX8zok01E/UfPZI49xRId0+c2Dj5eNb3mjjGXD7OcREKFuTORTisUC4TwB40K2vLpImpIVPCfCR/rkyZ79eJ8pviGfLSZ5APRTkypUrjbLm1IwCZEgoRa5BYeP/R9nSUJgEEKKwCRak4iEKkmp8WCBQ2rgFUMz4/wEAgAm+Y3lASdMAEhRhcooHwVvvAApO6LghnnvuOeOuYFwoZPrjfwQeAmoAM5zo+fuuXbuMS4FnOEV3ABG4ILBo8D/cHPPnzzcxDMwdoMM8GQuuhY985CMGCAAweB5zBCzRDymhuBgACcyBgEuqA/rb8r70mLr6BGZi9Y8lkFK96uruPQ8ApMTH6Krp49Tm6dLrxyuNou/bABDRURHGfdDumBa8F3DvbfMm6Iev7fuLe1yA4O+qDez6J5980rjrRkMDt8LLQfAsjZx7zNehXs+DTIVXTkg3TbP0xANthqnUG9R4sMaexKdmWYsKbkACG0PVquCkTuMuAtzNyZGSCD4dqDDc+wImgWEDCOdmMQRsRn06AmygSPnOyR/FjbJH6XI6B0zQiFHAbYCydyrj4U7A8oDrAYCBYgccAEQcKwQneb6IA+A7Cp/noNx5Bu4EwADPZRxOvAUWBxQ+4IcvCKOcyoJci2vEqVhJjASyYjxOFUSAEz8PJP4g7jP/Y+IOnIbJf/aYDEVHRqimuUMVTa1q9ViQRpxAYUay/n7tXJU3tOrRLYd1pqlNHrhUxUsnSnkpCcZ1wLWbjleaWAanpSXE6gNLJusnGyFof6e5ACEYu/38PgHMZN+MpgYLI1H/JQ2Wm2NKllWQoWpNIOgQMjHid4gnGGx2Asq2s0cqa7QERVRcHJ9qLSvwD1AjgoyIwT4n0HuKcVe3Sc8dtlkdpLGSDRWq6xbo+Ydqf8MGEFBwKGBOxZzW3TY0EjgXICTHRWvVxDxNyk41boTi2ma1dNgyzPkpCRqTlqArp41TXWuHdpyuUXVzuyqb2v4/e+8BHld5pv3fGs2Mpqh3W5bl3ivFYDA9mN4TIJBC8pGQDST7z26+3SQk2Wx200N2EzZfAgSWhJoQICGhd4MBm2Jcce9Fvc+MNE3/6/ceHSMbyxqNRs3S62uusaRz3nPOe855n/t9nvu5H8Fl8Ltdhk+A96Ax1K5HVu04BHyMAoSBuafdHeWBBx7Q9ddfP7gnMQhHB6OiUAhQQHcAASLy7tHqGGqNwmUbayzFwYumpbbmBOMAACH8iYKyBgAAIABJREFUsrvJknWmqBQGGMlz3xDUKIGP8MJ2S24bwFSRM3QreQ61Z6k/zmfQAAKresIAhBaSWQn3x2CMhD4BCHAc8nxuE1poRMTA6Egwefh0zXGTdPHcChX4M1SQmWFAgJ19gG8gFI4aMABQWLatUre/vF5VrSHZ1IRsj8t4EeqD7YaQOOpBGLynCl4M4buR2mpbInpzR5sCcbemFbuMRyESbFROdpbx2BGuZA7CI4iHD48i3jlCiLwjzFGE81jMEApkruJv/L5r2rWdVs0483e2Y3tChXj+CI/iFcTDyLE4NqFIwquEHzdXh/V+tUtnTehQvrfDeO9ofNMfnkf7POAz2efD7wHyHJ9j0hd9ckw8mngn+fb7M1XTFFRNu0cbqyLqcLhU4O1QeX6GIQb6nTHFI20HSdz0w7kzHoRm6Y9+CaXiHbV1avBsdh0f+7z45vd2BlfX549z7bofZG0WiZwr48L4VFbVamc4X6t2NmvRpGxVZIWN58PWrLH76ErO7nq/GAvO0dax4fjsy+/sUDH3m3vAN8fmOvH28nfOiT66XgP7M9Zckx2W5l6wPfsxXowbnmN+b4fK6YNnij7Ztus2tke4q94Ox+BY9nPU9RjcA0LbPE/2uXNvODbb0Y/9XPLscF40+ky2DRpAsAWFGDTi9KOt/0fAcDr+5T5le9w6eWKJAQGr9tQdPPC04hx97ey5WjyxuMfMCB7AmtY23XDfq9rXGDjYx9yxeSYb4vVtVYp1dHQLEH54yQmGpNibDIz+H6Fj6wjHcppjT3eKiRrjWFldq7qOfB2IZKvQn66mne/prBNn6b13VpjwC2EYsqggJE+dOtWE9phYmdgxXBjFrhMyf6NvJnAmXt4DW/yM/2MIOC6AgLClnU7NMdBV4futt94y5GdCl5Cat+2v145gjrLdcc0uCB80rBgZJn6MF4aBsCR8JThY9M9x+LvNSYJDRZ+QrcmaghCNFgZEZgjeHKuqpk7RjHxtOBBWelaxcv0uZaaF1N64XxNKstXaUKPx5WXm3NmP/bkGBNzgbNk8K4wR8wnnxfnAjeL8OC+b/2UbLlsozgYG7IdhY3syvDhnSN0QtQG0y5Yt06KTTtYzb6xXa84sZaUFNTUvKl9ayPAobFBiG3CeBdv4c38Yl64AzCaSE/6Fz8Z1wBnDcw3ni2NznWS2cX12ujr3nnO1+XCMNc8EfRP6ZTv6I5Rsq5ZCLmcMuHaumz4AhiyC6Zt7wDYlJSVm3AAnbGuDEq4DcMLPgBfGFUI7IXEy+bCVnDNZcpDluceEzSHZc248l3ywqwBgnlGOlWwbNIBgl3vmBozWYkj29iW2HxMaDxcv/dUv1sjncWtCfqb8GS7ta+g07mlSea5fn188XR+bUWbSEvEGWBkMH7ZwLK7W9ojaIlGt29+gW//2tmpa2g5uUJrtUzgW0466FmP8j+hBGFegry+ZpEVjssxLZiPdxK5mdKtER2D58uVGhGwkNowNhgEDxEq4KZyutXUZ2r2vUsdNLpI3tFfTJ43X3r17zPzDpM3qlVUakzQTK4sYewVnr/zslWlXD4INFBhnjBbvG880wIKJmwke7hJp2xwLQ4Exx5Ca1WsgpC3NHu1sSNMFkyJypMXNu9N1pW0bJwyOvbrnOByP4/N/jC59YlQwSrbRxlBwLhwLw2G8EJGIOlyZOhDyaHdDVA14ObLcyogHNWVMttTWoOLCfGPE6QeDaHtaMF620i3/53y4XgwUY83PtseF87MBAt/2St++Hs6Jc7bHyTa2ELQrq6rl8BdqVbVL4bY2Tchq07jsNGW4HGa13HXcbXVcO5Wd87I9GRyXsbSNbleOF4AQA8p4MU4YZcaRceIaAGmHe3Hsa2Y72xNhe4VsTwRGnuPa12lvC6ACwNj3kb/b3oquXgrb88C40ifgBkDBuXLOzJt8c2+4t4w7/di6OjzHHIfxABAl2wYNIHAxvDjciIFWA0x2sIbTfraSJMCAFQs6DawIfhWeYeq1283tTNfEgkwV+DzKcDqU681QWa5PmRkujc31qyjToxkluQqGo9rd0Gq4CBAWAQkHmoPm/5AW0VZ4f2/dIVkQ3XIQxhXo01P9iu1cZx5wUleZyPviChtO92agzvXPf/6zUfsciQ01VCZylFHtzCXi23Y8njRIdAMQWRoK7P7tDdLqSmlJhVRkeYYHpDEVMC4IF8FTQN4ZEmOOx+IqUEQKpcPBIjVyfpwTapS1QUueeUqn3PSADNAwPQjzP4ACYAdASHZuHTSAAAIEteFBGOh6AsP0nid82iBnVlAoUTJR4kYFNT/++OM64XcrDyESAgROnVSi4kyPmtrChohY2QynoMN4D8bk+PSV02drf1NQf3xvm2oDbWqPsMKRirK8Om5cgXJ9boWjcT36fuIkxX9aPEEbnn1Uf/3rX41k9CWXXGLcrrjvRsMOCd/qo27IvUehcyQ2VuusnnDpdp0cCe9XBaT3D1j1DkgDnF5kKREOZkM0CR0HjDE1FwbDIDMeTe0WwZMxQlqV9EgUGykWRRbEYGUVtEWlLXWWemaR35KbHq0KefQnFq8YGXpI9R+tntHRehk0gGDLDeMaI71wtKVuBHDx/eAHP9Bdd91lUCQrqO985zv61re+pZyv/+EQHQRnOl4DtyEWBiNRtR+mZVCY6dH1J05RQzCsJ9buMgTFrprMHle6vC6nSXOEk9BVViPb69a1x0/Wr5dtOOTiSHP8z4uOU9uWVea8yGbhIb7wwgt19dVXGwXJZBFv6kZx+Pf0t7/9zQCvkdhQR8V9292zhMFhVYq4EAS4+aVWbYPBamQccD5ImFPSerAzLqh3ga7E3iYpFLU0CXxuqTy7U19iEAAVGR+cDwWs8HLgAQK4DAUP0GA9N0c7Lgtw5n/s67ADCLYHgdUu8bnRlroRYEx//vOf69e//rVBkGg44G5mspz03YcPE0pKk9eZLpfToea28MFsBPtsAACQFyOxuOEVHC6GRIYDoQRCDhEEmLqELxBKOn9Wuf775XUfAQg/vPRETffG9B//8R+69957TYwQd/BPfvITQ+QaBQh9fx4Q+rrgggv63tEw7AFRMmLIxLK7e5YwyvtbrKJPAIYpeZY3YbAKP5HqSAjk+LGWER4KDaVD5Kyp2oqmAqqVkOLH+K0aEFkDXP/CVPQMSB/UWqWyJ+dbYQcAw2g7dAQQ8gMkQGQcdgABDwJkHTwIoxyE1D3aAC/S2zAOEKv4vummm4wcNS7Xsd9CSbGzRLbSlOd36/yZ41SU6dX9b29VXeBDwiFnBQfh8nkTDAB49oO9Jn2xa5tenGOIjX9ft9soLXaVYs7yuHXJ3PG6/ZUjKymeManYSGX/8Ic/NAQnlCG/8Y1vGCXM0db3ERjJAAEPAgAB3k1PYBNDs77GAgtwE+YVS/n+gVfyI8yAdgNhhhPLhtbKmNAMIIoxqmqVWqnkGre4CuNzLL7CQHk9mL2a262Qw4EWy4uANwFP0Gj7cAQAB3ywr8MOINhZDKx2Ya6Otr6PAGOKZDOxZ7wGkP+QkKbWA+xZWlehJNyGef4MffrEqaY+wlceeeMjUsqkQt563gLtqg/o7jc3GaDQtU0qyNITNy3VLY+8oWVbK3skKRKKOH1Kib534fE6ZVKpqZlBzQC7BDahBla9sJtHW99G4Mknn9RFF13Ut06G6d7dcRC6uxycX7ubpc2sTCNWjHta4cAaaTgAFF9ihXzmxMQqPA7G7QEYUBwLYiNCTIAFpJ1RbKzo9CoMxHkBWHY2SFvrLU8GMs35voEHdgNxrckcgwwUPpQk6Akkd9f/oHEQAAbkbxIvx5iNtr6NAB4ZMhUgJOKqh5yGkbVTZ2zi3yEAIU1GLfELp8zQlOIcff3xt1TdJWWRMyrL8ekbSxeosjmoO5dvNDwDuwEwFowr0L2fPkP/9uS7+tu63R+RWv7UiZN11/JNRpL5uPJCnTSxWAvHFej48kIVZFqpSHY6DhkXEClJzTv77LNH0x/79kgY79FIDTGQKw4HgfgrvBieMzstzpY1t7Mb7GFmZcoqHlc/NRIgwc0tiipD7SadjQ/57LZQEO+cLd5j94HXjrx+0swgYLMt7x6eDIjCAHZS1Ehzw8PBOQDsSVVjLtzd6taaPUF9bF6pCtwh062dWmnvw+/g7ZDaRh8ck3PhZwyCnYPP+88+eGk5J47F9pwzCwayPEgvTLbhiAQc1AakupAVgsBow+WYlGeRCfs7XANlCqACLwHgMrfYCs8MFpky2bHsj/2GdYjBVlLkxSXFbbQlPwJMABgDxF4Qf1myZInJ5T1Su/g3z3QJMUA8cmpWaa4IB6zYWf2Rks9ZGS7NL8s3aYwfVDaadEebZgBAKM7yGmGltfsbDEeha4jBn+HUpXMqVN0aMvUeJhRkaWyOX/TpcKR9pBgLEyUlirkWSlmffPLJZkIbbcmNAIBx6dKlye08zPdi8YFhJW+cUukYd/Lc+RnjilfNrsVy+KUSZyfmvqkmrv01DXI3bFR66x61hULGsGJU7ZorGGYagIC5jHgvlWUR4eH7vPPOM+5d3lHmPAw1+5PDftJJJxmOBHwJRG+MAJM3V1sCOZo7c6ryg5uVnm4p6xGC450GoJAbj0AP4kWAEDhcpAvzfc899xitBbhHfKNdQJYYHhUIa5yvrSGAtw7hnWRXlweBVYcEgRCuQk3QAgx4FsiAwKMAsZHKkv2VmQFQ4dhUhKwOWOEGAMpAhTyG6qtCeMH2IAy7EMNoLYbUPFZMKk888YRRBsNrgBJZdxMfR9xQ2XAIkZDfYawhG0bxcR7WWgMBpXXE5fP51dRZGruqslIFnQWleOlnE+NyfrTkNP0W+j2m2mNWhlvpCdCN0cXAsL300kv64he/aOJnfZ3AUjPSw6+XkVTN8fC7Q+l4Vsi4Vx9++GFjlPFU4k3AGGOYWWFhLDG4dioYBpwV/959+xV1Zim7YoFWbatVoGqL8sK71VRbaZ5JPFx4AzDU5JoTJgV8oMb4u9/9zngMCPXBq2FyJn0X3ReACseDf4VCIQaa39kl5CMA8Sa/xk6arYyqFXIpai4Nbwh926p7gBz0TWzgccYZZxjw8sgjjxgOD9448t+5bjxyKP1RbI73iz7YD+9SX9zPR3ojmEJaI1J90AqVkC4J4CrLskI2eGUSmAaSetnwZuD92Vxn1XCYUzJ0wzRJXWAvdwIc2FkMyc6hgxZiAE3jWgbR9sXN1csxO6Y2Z1Xx2GOPmcmAlSKrolSrEvKAMbEw+TF5slKhxLZN/rJV0lgxsWJLRWM1BujBTfylL33JrIBGtRF6P7IjsZqjPUoYfwwzXgNW6HjXeIZZZcN7sRX7eM5uvvlms6LHcGJUCXOxLeDh1DPO0fK1O7Un6FN2Tq6cNWtU6u/Q0qXnHqzQCimYsAFSvaza77jjDuP9QuMDoSrOg75teWZbRQ+PAIYaLwB8EdQVmQv3tjiVVbFQ/vZ9GuuPmj4BF4QS2NbeBxBEvygRAlo+8YlP6PbbbzdAAulgfsf18/7gReH9xMNBOMMuF08Yoj/eLVb17TFL5Ai+Ah4ZVvdoKswssopn9UdVSUSfIC6uqrRIi2hKQKTsL1DS+7dy4PbAi8RzDWAclh4E3F4YOQzbaOvdCPCCAw4Yw4svvtisgFgxpboxGbESsic1JliIkKRM2jFY3Jjcw8Njun05F8Aj7lJWZ7fcckuf9MT7ch7DeV8yRD772c8O50tI+txfe+01Y1B5L5Cq5X3Bo8JqGtfrihUrjEbEL3/5S/3P//yP7rzzTmMoP/WpTxkPwOWXX26OjRF/b9Vq7asLKJ43RVFfqbKilTppUo4CTXXGg4A3AGOMIcaY0xcA2g7xMDnTDxwEjDTPNIaedwjjzqr+73//uzke51vfHFCs9AQFmhuV07pRRYUFJnwBgOCabEllACDXgjeE95TKnQ899JDZxq6dQPgWEACoB9zzHgP6GRPCH3A0+juMBzcAXQXCDgCFXU3WbZ2ab6kiZqY4VRJwguriqgNWtsOScqlkBOolAAT5AIaHnQeBuBpGAJTOizPaEh8BJjt0DVjRX3XVVQYh9tdLjoeAyRR3FQ8akxFuTBsg8DsmRcIaqV6JcMxf/epXZlL78pe/3C2vIvGRG1lbsopkxTgSG0REJkWeSzxRrKYwlDy3eBcA1rjt8S585StfMaAXXgHvEq579scrwPPOz3v27FVZxSSFvSWqcYzVmMIcLRrboWxXxABlDDUAGeVGwAmqoHfffbcx2nhLeZY5PvcEY06/KN0BJAg/wFegVgoeDFNcqHih0jKydcr4NJXkZZpt4VUAQggL4DVcs2aN6RtewubNmw0YBMwzr3KNgBb64hh4IPAE8r7adSIISfL/VL+33T1vpEriVSAUQPhhS73lVYCjsLDUIjWmiqcAT6q1XdpQY2lLnDJepprnSCIv8rwAYAk7DzsPAgja9iDAuh9tiY0AKw5iqtz8T3/602YFkCrXfndnwDGfffZZMzEx2bCypwIawI6f+2uSAZww8X73u981K79rrrnGTOqjLbERuO222/TP//zPiW18jG31wgsvmOcSIqBNzOM9sSsAYlgxnnyzIrfLPNuVAu3SznwDFtiGZ2/P3v3aXd2sQPZUhdKydPyYNPnDldq0cb0JMQBm6ZN3g2JZGG80GTgP5jsABG5/zoXVna2VjxcCXgF94C3YVhtRe2aFFpRnakJempqbm0w4AZ4BoIfteT/4mZAcffMuAj4AOvbPeGjZzi4BjXeB82M7wMJAgYOujxfGG64CGQ+EIOANIFaFJ+G4MZbwEdLXqQALhByQjl62S5pdJJ1QJrlGiKgSzwsfPLzJ3udB5SCwEuYF7Es5ymNsXjvq5fCisxLCc4DrEHd/ssiwN+PGcbtOoLhE7SpyHD/Zhy+Rc7BBAqtAdB1GAUIio2Ztw+qBlepIbBhfPAgYxr48nzx/Ns+GccS4xuJxxeXU1oY048Ye649rfnFUef4P3wWObVfXw0uKh49v+72hL/qlP7tctF050BRaC3fozX3pyvGkmTi6I806D7uKpJ1eyXFsoGO7kfnu2hfHYj97f1sOPVm3cyqfJ7wKhCCMpkGjtLrKAg0zC6XZxVbKZF+Bgh1yeHarlOWWlk62ZKOP9YZXCQ8ZoaRkw7+DBhBAyTBrQTjE3UZ6s91/AABcmldccYUZEiYVVhm2K9F2j7ISOVYFpljd2GxtUh5haOOGtVd/kMggfzEmPEO4X+268rhgWUn1xSgcK8/i9773PfEZiQ0PAivtRYsW9RuIZhUMAe+13RL5+KdVWDn4qSDEYTjf3GO55FFVHAkqgRhywALhBwpXIYBU4JNOKpMmEB4grzrJhtcCHsRLO6Q9TdI1cyzC5LHcDJiNxQ5qcSRzrYMGEGzDB1AYqasc+4ZBGIJcRNoT3gHipBhDJjfGiXQqeACME25TXEbE/W3vAW7DRMIMxEEBIMRZiVMSK4W4xHGJaQJESLvCo0NYgWPDqrbPAVcmYQZQKW5X3Ka4Uvk9vwPo2SsaXKCcH8QqVnMcm/gq2+I5Yr8jkSp5oAFIACb6wvDT1/nnn29AAquyL3zhC0YnAW8C58P4MB78nf2I/3anA5HMSzJc9+Eej1RFSpuD0F8s/a7PBEDhnf0WKQ4XNmI9qcjB390obaqTphVYegIjqdlZEBtrpLf3WUAJTwphAlQTk/UqUOp+TaX03FbpyllWLYdUALqheG/gqBDeIrslEftwpGsYNIDARE8KBqtF0nJGcsPlB8sYdjEAAQONGx8mNT8Th8eNiPG2WdBMgBhDxpH8boxiTw1AAJeAVSV514AQwAmeCIwtRCbioBAf0VXg3gACSBHjHDHwHBcgwTfxVe4d+1A58kc/+tFBVyokSoALFRox4KRkYdghYpFmBvjpLrQEgIDMhfcAbwD9Q8ACMHDs++67T5/73OfMsXmG1q9fb+KuhEEAM6eddpo59khv3//+9w1/YyQ2QCYAlHdmYMJw0v5W6fmtVq7/kvGW7G9fjA/6Ac9steocLBpitRkG8pnCq0D2AzLU1IKA1Ej1zb6kSqKU+dgGq5/F4yS3cyCvaGCOhc3g05cw8KACBAwSRohV4EhurNZhPJM7zQ1lNYzRY0X+4IMPGnc6hhzjh1FlNc7PGExuPsYxkZLZuO0x4v/+7/9ugAdiRAADqifiKcBwAxoAG7jtASmcC/nc/GyLzTz//PMGTNx4442GVMWqn6qM3/72tw1AAEzg+gfBstJnXxQSP/nJTxrPBbFxPBdHAghcIyCG7QAGlH9+6qmn9JnPfEZ/+tOfdM4555jr5vohewGQQMn0hVeCfvsadz5WnkXGHRA3EhvPH2AaD9ZAxtqJpS/fJW1rkM6YIE3ItYxPst7x13ZJrKap8DgSwgxHe1YZh8aQJatMcS2IjBh4SI0oNRKC6I1nAWloABj9wEtgfHuz/1B/r7AhpLtedtllw4+DgCHAMBJiIJ4+khtGjhACK3QEUwAJxNIxvhhnjCQGkRUyLGluPOxkDL6tApcIQMDVD7P91ltvNcACoMFKneNi8DkGYAEjz8+EAwAIr7/+ujkuq3fiuhhi7h3GmPOk/fjHP9bXv/51sx0AgZADfeNB4DgABIAOoAMvAn0QPjh8dce+GDaeC3LD+RkvAmCJn+mPffAycC54XQAipPJwLsm60o7F5+8Xv/iF/umf/ulYvLQer4l3BPDLOzSQAIETgz8A4Q5SHHn+GPdkxXoQ/VldackHE4dPFmj0OGDDaAP4BOGoRAgGr0JLZ9lndBXyvFZ4h3TGRMYKXsLyPZaH4qwJFofkWMlyYA7l05cU9EHzIIySFD98IzH0TGgLFy407njc5qx8MM7Lli0zAApAxcrYLo3N9qzc4RMkSsjD0L/77rvmOPAOACWsvDkW7ny+yf0mOwKAAPok/IAxh7vA8TDW8BUw0IQfABXcSwAA3AnqQHCu5HUDYgAfgAZCDByT/jkuXg9+PrwOB+AI9i08C7xLgAs7vIIaHJM+18sx6JtvXoBUK0gOo/my21PFs0I66khsgwkQ7PGmKuQL2yyBoMXlUnmOVcq5N41Vsx1mWFDa/8WPenNuQ2Fb+B+QGtdVWwW2AAjoHRB+gKuQiFojYGNdjbSuSppfYoExT2pEYQd1iPDA4klj0TfsshgwNqNpjoc+Pxg7jCM6A9xUlN66M/4YT1p/qCcO6lPdi4MThmCVDGiBNzHKOzh08O69917dcMMNvRjRY2fT3pZ77q8rx8Aj1EMe/rwSS2YYb0JvGPnLyZKIWxoB2aMyIEe8VXgVbE0Fijbx88RcaVyOlJNhFY46mlcBnsOuBmnlfqts9dwSa6z7wiHpr2cq0X5ZvPFhUZasF23QPAi4y0E4o1LL1u0GHEAGhIvAypyJPdmbmugDNNy3w7NAKOOnP/2pIXSS79tfipLDcaxGci0GSLh2lstgv0eEHPAmPL3FMlyoBpZlW0YrkVbZYrnSZxVbRYiOpTh5Itff223IVNjfLK2tttJQS/yW94a0RsAZIYgjhR+4T1SjXLHXAgbwG0oyJZejt2cwNLYn+4twLXVykiXqDhpAwINATJz4OwhnJDfGANb1H/7wB0PCg3Mw2JPacLkfACvCJmRRoCyJ4mKy7rThcs2JnudIruaIa5XnAJLmUHmX8ALAJyB1b0qBxU/AaPW0SjXZDFuk8TnS7JLha7ASfW5TtR0Gv6ndKgONmiLcAqpKIunMuOMhOBxsAeCa26T3KyVIjAg2kWKaKJhL1bmnoh94Ynz6wsMZNIBA3BqyGvF3YuIjtXH9rPTQQUAciRKsyaK9kTqGhFvgV0DoJNsBxDxUjMJg3hO7WNBgnsNgHRtvHB6EoVYuHKNV2Sq9tddiz88osoxWT7oJiCYhxrRgNMzQ60fKrgGxr0naWGeFIvAqQEiEs0Ba6uGZJpAXARY7Gizvw9SCIwOKXp/MAO4Alw1hPXhIydqUQQMIeBDIpQcojNRULOJDTOKk9VFngBrziRIOB/A5GxaHYiyfeeYZoycBSIAAOdLHkvFAYGoktsFKc0x0rINhS1YY9jzZCcTLMVbdeROqWi1lxePGWgYrEYZ+oucyUrYDKNAa2qRNNdKeZovIWOC1FBuRdaYehM0PMbyERqvgE9vNKLS2cQ6TkAMEbz5kuA07gAAwIB+etLeRyLSGoEnaHsz8K6+80rjGR1e9fZuqSHnErU7cjbK9uNZGciNl9qKLLhqRQ4DQFx4EMl2G6nuFAdrdZBUqIrsBVT9EgI6UZgdb//EPrJUsNQqGi5Eaqg8fYCHUWcgJEED4hzoNuV4rA4IQBBkQbFdFlkSVtQ2qlgA0/jbUGwJ7AIS+eNEGzYNA7JiTByiQzjeSGtcNOECY6NprrzVKiMkivJE0bj1dK5oJpGc+9thjJiUTLsfhaZQ99XEs/R3PFMTNkdgQAoOwSorwUAUI3Bdb/IdVKitbwg0T8y3m/eHehJX7pEDYIs8hDJSqiocj8fnoes2EbkiV3NkkNYQsjgf8BLwFxZmS32WFJbhH8BLgJCDOhBcIMJfdy6yUgRpvGyAgRJisfRk0gAAxD5Yl8WM7t3+gBm4wj4OeAKtcDBnggGtP9uYN5nUM1WMDEjAOSD2jtEj6IzoOI7E98cQTRslyJDbEs/AgIMc9lAGCfW8oS7yj0Sp9jDdhUp6Vbmd7EwAShCMoNkQooshn8RG8vdRVGInPQqLXzBgDwHY1SQhU4bWBGwJHYQxAwW1xEvD6EIrY22R5HU6bYN2ToRb2gX9gexCStTGDBhDwIECiIN0RgZ2R0ABEjz76qFEoJC2P2NAo4z71dx7vAQYC0iIaCYw1Yk0jrY1kgIB3Dg8C6prDASDwbJKex0p2S53FpIdER0gBwIBRosLhu/ulQMT6/XVzLeM12lI7AlAVAGzVAStdEu8B4MHrtsiN/PzGHktOm1DDZdNc1/ylAAAgAElEQVStips9EU1Te5Y990bIlU9fwmyDBhDwILCahoOQiExwz8MxdLdgVYvmAwYL44U2NqAoWVQ3dK906JwZoSsIi9SNoLbEueeeO+KElLh2rnskNmS+8SAMJ4DAfcI44bpGqhlQQBgBgR/qD7CybWqzSiLPKpI+u2AUIPT3s81YA9YOtEq1QatkNMqYtsYC94t6G9fOsUIPPaWs9vf5du0fLhaL8L6EsAcNIOBBwAWCB+FYJpMBDlBHBBxQJwBwgJTxcFnVDOQDnepj8WwhVc2HDBGqPI4kj81I1kFAJhwPwnB913BvQ47DY4DngNUsq1V+D7lueoF0w8JRgJDqOaO7/iArUoiLbBKkr5F2hrRIAxScPE66fIYlxDRUmu1BIMyW7GJ00AACHgQQDhyEY9WDgNIfKxnAQW5urmGUl5eXJ32zhsqDN5zOAzlmUkkJOSBdfeKJJw6n0+/TuaINQW2MVDSALg3Rnub2uFojHQpGOhSKxNUeJ0e/Q+FYh3GTsykuWdbDjrQ0M4GSOuZKT5PbgSs2TV5nmnxuhzJdacrOcByiVpeK9NThDhAYPdzcz22zeAcoMZK5QMVBVrGsWj+30Ip9j7bUjoD9rB+pV0DC01stwSvuCfeId4Iw0JWzrNLRyWSYpOKZP/x8yRIkrL1o0aKkbc6gAYRjPYuBhwxw8Le//c0UHkIAaSipuqX2lRravaEmRjyel4WUUoih/fFCDrVRePjhhw0RNtnWHu1QVSCmnU1R7W+JqSYYM6AAt6sNAGB8pzvSlJ7Gp8OMK+p0FmErTR386wQMsY4OxeNStMOKt9urL8CDz5WmAm+6SjMdmpDj1JisdHnS6Ss56texABBg1xNaWHXAysevC1khCAAXJMWbTrRy+EdbakYgFu/Q/vqQ3t5Wr22VLWoMRhXFZdOl8ezj2Wlut0I9fNgkzZGuMdkOjfFFzVOfSOPZ9rodGpvn1byKXM0cl60sjytlUtroDKFWTJZgsh7rQQMIeBBAOCgJDoYOgl0YiZUlq8xUNwACSpFkK0CUQ0462cnu8HOjn5ycHFMC+VjjMmDEUcEjRQcPTCoa94L+qChJTHrWrFlJvzDdnQ/hI+4F1TXxFg2FlqwHAeO/tT6i1/e0a19L1KzuszIcymLF705TttshvztNHmea3OlpBiA40yzDdShAsAyaDRDiHR1mMgUc4G0IRTsUiMTV0t75HY6rud3yTBR4HTp9vEfzSlwGfPS2DYVqjj2dM8anMRhRY2tY4cMMEfsybqxOIcUR94bACA+BcAPA4JIZvSve5HSkKcvrUn6mWxnHSk3jngY5wb+HwjG9tblOj6/cqy0HWtUQCKs9EhfPbCLNeu7TejVn8VQ709OU6XFpTJ5Hp84o1CXHj9X4Ql9KbMUxUYsBMhllhge6UeTnjkdf1XObIwqkZSaI+Xp3lpFwxKygXE6X0lLIXgGhZnW06MJZXt145ZnHDIeDZ+HXd9+vh95pVr3yFU9l4lBHh8keIRZnqj4mYXS6v/sdSldck9L36/9+8jSdc+aSlLzgvXvaPrr1gw8+qOuuu67X3aypCutvW0IGACwsdassC3CQblb5hAksrwFhg94bbvtkmHYBIqzaiOUSogAwtIbjqgnEtL4movW1EX1ipk+njLNKfPemDZVqjkc6Z4DBB/ua9fzqKm2ralVTMKLIEQBC132xU4wTbm0+3APEfLgPiTaAXKbHqQlFfp02s0jHTcqTf6hR7xO9mBRu1x6JacWWOv36ma3aVhXo8V6k8NAHu+LxzvO7deHCMfrkkvEah7RjHxveAz7jx49PekE0aB4EjAEv8WBVc3zxxRf1/cc2683gFEWdWX28FQO/uyvSqFPc6/Vv1x2vM888c+BPoB+OiFzyN372v/rD1kIF/RPVkUqA0A/n27XLtI64iuqW62efmqPrrzgv6RcylaeZjAchGI7rgfUBhaMdOm+yV+XZTuMl6KV9TvoyAA6Ahqb2Dj23LaRXd7fph2flKt/bO+k6vFCUQkckJln3atIXcZQdMUZ/f3e/Hnp9tyob2xQMxxSPs4wYmAZIyHA5VJLj0dL5pbpyUZlKRziR4UBDSLc+tFardjaaezGYrTA7Q188Z5IuPmFsn8Eb3mt4fmRxDTuSIul+uPZx9RcVFQ34PXn66af1vb/u0TvRWYqnD79AXnq0VcfFV+o/rp13zKjlIT/9L7fdp/u3j1HQP2HAn4k+HbCjQwW1r+u262fo01csHRJGCXIsWTO9aW/sbdPTW0M6Z6JHp5V7TPhgsFpjW1xfe65e18z26bxJ3l55EQhfEvYpKSnp1X79ea24q19cU6Wf/22jqhrbBwwUHOma7BXr9aeN19WLxysbacYR2PDcLNtQo399YI0iEAoGuXFfzp1Xon9YOkWTqDXdhzasqzmSggaRCLcvdQgGuiUKEJgeP3F8rv6+tkmfWVygu1+rU6QXKJNQ37kzs9XaHtc7u4JihdZdczvT9LnFBbrjtdoeh8MGCN+/Zu4xU5BnFCD0eNt7tQHPOOTY3rRHNgS0ryWmq2b6jPdgMBtrubvea9YHdVH9/Jy8XoEVKqTiQehLDniqr701FNWNv31bG/c1Dyo4sK+LuW1GWbZuuWCKTpleaDJORloLtEX1m+e26r5lu4bMpc8Ym6WvXzpdJ0zO7xO4HdbVHCGgkeKIJyEra+Bd/L0BCP9yXokaAlG9tSOoLdVtWjI1Ux6nQ69vbdW4XJemFHu0uy4sh0MqzXHpQGNEB5ojmlvmNUzY4yt8aot0aFtNuzYcaFO+P10tbXHNK/PI607X8xuaVVGYoePKvVo8ya9/eHBPjw/rSAYILGovnput5ze26IypWWb8bFZ8jwMHMciRphMnQASSVu8NKUCeXjfN73boyuNydd9b9Ufvegh6EF555ZVehZ/aoh36w5pW5WQ4dMUMnwktDHZ790C7/uP1Zj14eb58vSDWsXoitACZt7f8hf66ZoDBp29fofAQWKna18j88+XzJuuaU8aPSOJicyiiHz22QU+tquyv297rfkty3PrmFTN1xqwSOfrgwbOllvtCyh40DgIeBORQiTsjYDPQrTcA4d8vHaMcb7pu/ct+TShw66bTi7Sxsk0el8OwuxtDMeX50rVyZ1DRmEnsMoBgYqHbGKOKAuv7nZ0BNbXFNXOMR9tr2jV/nNcAjeXbWnXtonx956/79d2LSnXTA6MA4WghBohZv7qm3ACD2kBMb+8MaEpRhsmt23igTSXZLhVnObWnIWzuEfemLhAzRLjx+W7VtkZ0ybxc7a5v1676sDZXhVWY6VR1S0SzSj0mj/md3SED9hZN8Otzi/N1xW+3DzuAcP/995uqlok2MhZ+vyag6QUuXTHdNyRU4aoDMd30VJ3uuqhAhb7EeQhwjHw+X59ywBMdt0S3gwj3xTveSXTzAdvupo9N1mfPnCA/yfwjrEEQ/f6f1uqFdTVD5spzPGm69apZ+tj8sUpn1ZlkG9YhBlLP8CDwzYs80K03AOH/Li3Wq1tatXRWth5b1aiPL8zTY6salOVJ16lTMrVsS4u8Tofy/E4zqZKyNKkwQ/l+p/EaTC/xyJkuPbSyXpfOy1VLOK41e0OaWJCh9fuD2lUf0X9fM05ff2Sv/uOyMn323p09DsdI9iAAEB68caIaAjF95eE9BrRdNCdbW2vCysxwqDzPpZ11YZXnu7Whsk0Ffqf21IW1vymsxZMztbs+rJMm+A1Qe21Li17Z3KpPn1SgR96r1/xxPgMoHnq7Xj+4fJweXFmvWy8s1QW/2jrsAMKmTZt6JUK2rjqs+9YGTNbAZdP75500IjSkhPX4hFsbROMd+tRfavXDM3M1KT/xODkS7ngQkFseKu31D6p1892rhsrpHDyPG8+ZqM+dOVGZ3sTHd8hdRJIn1BQM698eXqOXN9Ql2UPqd0MM69arZuu8hX0DCLt37zbaLyeddNLwIykCDmwPwumnn576Ue6hx0QBAt2w0segzy/3an9jxBh8wgQvb25RaZZLc8q8qm2NqijTaSY0vAuIzEwryVB9INaZHy5tqmzX2Fynqpqjxutw2pRM5fuceu6DZhVlOc1q9UBTRMu2tPY4HiMdIPzmunIt2xJQTUvEhGs+fnyu3t0dMuN25cJcvfBBi5pDMW2ubrMSytPSdPJEvyry3Xp2Q7NOqPBp1hiP/vvFGl0wJ1sHmqL64EBI58zMUmMwpgdW1um2j5frO0/s1x3Xj9dF/7Nt2AGEH//4x/rGN77R47Nkb7B8b5ue3RbSuZO8hqCY6sY7sbs5Kp8zTWW94Dfc8kydISleMi1x0IIwFgW6zjjjjKQnx1Rf/yvrKvWP965Odbd97u//nDVRN5w1cUQSFQEI3314jV4ZigBhwVil9yaP9bAnAY0hsgQR6ks2k2fQQgxwECAowkHIy8vr80Pe2w56AxAS6RtvQWm2U3vqw2o5Skw7kb4S2WYkAwS8NJ87tUB/fLtBnzguzwC182dna19DWKv2hDR3nFfZnnQTMsj3pSvX59SafSEDxghFrNgZUFmeS+Ny3frLqkZ9bGa2Xt3cosrmiG5YXKBQNK4HVtbr2hPzTAioKMulHz3dQ4xyCHIQWD2MGzcukcfJbPP8jpDeOxDWxVO9ml3kTni/RDYEo72yu03v7G/XBVO8mtOL/r/9SoNK/E595cTEuUpMjEyKRvNiiLRRgDBEbkSX0ziWAQJl75ESOOecc5KuQTNoAAEOgq2DMBj6+KkGCAjIELuGLIcBY7WE5rytRQ9tGcPTgx5Kwm/QkQAC3IeYYorIEmjyyCOHEothAdhIOSU1DNDG/+1GgSP+zu+ZdNkGJUx+R34tP/eWCMb5He5oTnUWQ1muy4Qctla394rEmPBN6LrhEAQIP/jBD3TrrbcmfDlPbA5qZ2NUV87waVwvVvg9HYBsBPq9fy0ZElHdMM+vk8cl7qH46RtNqg3F9ZNz8hIOTTz77LPy+/1avHjxqAehhxs06kE4Nj0IaA0xTxPC7+38bD8ygwYQMDaQKLgAahQMdEslQAAQLBzv0/SSDBP7JtSwfGtAp03N1OQit0lxJATx2tZWE15IRbMBwveuma1zzj9H7WpXgxq0W7u1SZsMULhSVypf+QcPd7hBtn8mLrxn9x5T0Ojkk082EtGUSgYYAAAWLlyonTt3GmlsWOEIM0ECA+Rx784777xe8UhCCimooHzyyS230mWRz1INEABo5PHbQjTI+9rSwNwzslXbjJxqCu7IEAQIvfEgsMInxbGuLaZrZ/mV1wthIlvcCHAMACbf3x5SuAYoAL6wPaSHNgRNhsRn5vp05gRvwsb+d6ta9MbesO6+OPG0r6GYxTDqQUjBe5biLo5lDwIyAlQSvvDCC4efBwFgwAQGmYg0jIFu/QEQphZn6M3tAc0oyTCGCWAAWEDf4L09Qe2sDRvPQiqaAQgdb+qr1+Sr/LxJWqdN2qVdalGL4oqrTGVaqqXKUY7xItj/AAUYZH7m//bva3bX6J0X3zGy17hn3333XfN/XLTZ2dkGPJSVlZnaEjxwf/zjHw1QINb7/R9/X3klVpjIBh18d/1/179t1Ea9rJfNOc7QDI3RGAMW2pra9M3bHkyJUBIpjGdNy1RxlsuEDuCGrNnXpoXlXk3IdxsDBj+EVFX4IH1uQxAg/Nd//Ze+9rWvJXRpjM8fNwSN1PEnZ/tNhcWjNQOuosgjW7UU9rZEVRuMqSYQNyTc9phE8ig4Y0ym08g0b6iNKBiJ69TyDJ0yzmN+R3ZPTw3g8vctId1zSUHCWghvvvnmQR2EZOOvPZ1Xb/8+ChB6O2L9v/2xDBDg+fHpS6rvoHkQcGGTp8kFUORmoFuqAcJx432GFf/k2ibDkD91cqZe2Niid3YFDMnx5El+Pbm22RAYU9EACCe7XtTN11Qq/6zJ2qgO1ahFAQWNNyFPeZqjOcpQhgEMeBT4Pvz//Mx6Lz+QL88rHj3//POm4BBhA+pV4EXgZwACpBcaFRF///vfm/tGmOGML5yh+px6048NPgAeXf/f9WeAzDItU5vajAdhnMZplmZpfHOxfvnzV/Xw9kl9VlLE7kBWHJPj0ts7g/JnOIy3gJDPGdMytXpv0PyeNElSU/vchiBA4P5RCz6R1h7r0B/XB8Q3ACGTusxHaKSKNrXHRfrh2pqIVleGtb0xZoou4Sk4vBF2WzrRq5tPyDSemtpQTK/tbldzuEPzil0qz0pXrtchT7qjWznnp7cG9dD6oH53cUHC2gx4u3h2U1kkLZFxPNo2AwEQOjo6b4IpMkTt7c4zMjisE4yZLBJTWcv8cTTE0H8hBnM/8Kh1flv3pPOm2MJUaTz73A9r0ebPSNO3yWLoI0kR7wE8hKVLlw4/DwIAAaUn4iSTJk3q67vX6/1TDRDmjPXqpEl+rdge0Jgcp6YWewzxDS8COfloIaCTQAgiFQ2AcHz8DX3/2kadd16ZQpqhXcrXRu3RTvO/fF2my4wHIZGGocdrcNddd5m4LVUPSZNzu92mOiEZJ5BJAQmkzeA5uPjii83/WzJaVKtaRRU9CEQAJPzjdzYosX/eq71ardXm9155lSW/CYRUtAb00M8D+uvWc1IGEMbmuvSHN+uNANWiiT49s77ZpDmePT1bmR6HHl/VqOqWFIR9hiBA+O1vf6svfelLidx+hSIdenh9wKz6AQis7rs2Y9yDUW2tj+m1PW1asb/dFA3qqZVmpuu62T4tnWSRBfc0R3Xv6oCW720XafezC11aUp6hWYUujcmy6j4c3l7b3aY73mvV3RcXGF5PIm316tUmxXHatGlyMB8zASNQBGIBPdr/58I+rE/dfddsxwdWeWKn8JG++gcgdCgei6ojFlE8GlE81q6OeEwd8aj5xhhZRbepp+FQmsOptHSn+Xaku5TmdOkL507X586eMprFkMiDlcg2lDWPhRWLtiseabM+0bAUDyuNEnQGH3BPHFa9Ge6JM0Pprgw5nB7lZHr0nWsW6ryF4/qkg8BczSc/P3/4ZTEQYsBdjQeBgioD3VIJEDh3yHCQ4ojBNoUsUZ5AOC6f22EAQktbTLWtMePqTkX7kKQ4U+efXyjpfUlnKK6pau70JBSrWC4lnttMSeT333/f8AogtvBwAQoo+EE4aPbs2QbQ8SHHdsmSJSos5NiJN16LD/SBXtALylSmKjROFXKqVNsUa2nQN35eoz9sOzklAOGCOTkm1ZRsh3NmZGlyUYYefrvBeBIQUPrYzCw9sabJAIY+tyEIEAB8xx9/fEKXRonlh9YFjK0EIHgPAwi7GqP688aAVuwLqyWceHGh40rd+tqiLBX5LZ7Jqsqw7l3Tqk11H4IywAhA4drZfiPShA3v2lbsa9ev3m4xAIEKk4k0vCd4wcY7cuUAyZRmSh/UWnWSS7OkDTXS2CypNSyDVHI9UlVA8nWKBfGaciLFfspWSnUhEJJEkjrbZlnCXIc20pMbJfklkXHBNX+4UX8AhEioUdFAvTIUkt/VIb9bcqU7TFiTFDmEdvCaReNxxWNUzowbJcf2iFVWOxh16cZLTtIXLjxOWb7UZq4kcp8Ge5v+CDFEgk0Kt+yXpyOkbA8VNNPlcbvkzXDLk+GS05lunopINKb2cFRt4bBC7REF22MmXOfPzNJ3bliqc4+f3CeAAG+MefqUU04Znh6EmpoaQ3SbMGHgC/McDSAwSVLKFmPOjfRlOEyFOdQRWcGQsUBNBXvxwYLEzk5gBUSNb15CeAjEWOEd2MCAn2PG5WS9GnYIlr74P65wKumxD4uV7rIeDs1iOBeeuKRsSRg78sX5f+LKcwP1omJaAp3/cpUjt5qVplcktaupaaH+5baXdf/2sX0GCNy3SUVuo1Gxtz5iwBrAAJ2JiYUZRiJ7b2NEO2rbU8MLGYIAoTdKioFwTA+tD5gJCYBwuCEmw+HB9UFRQCnRhn09s8Kjf1yUJVfng/7MtpBRa2w4rB/u15eOyzSehsPBCXLLv3irWXdf7JHnIHABRWDQ2JOwnQ28eeYz9MEH64RG0oSnW+Ro7ZBOGie9vc8y7gtKpf96Szq13NoNUEBhnCc2WX+zu2LbMyqsFxOlvS11UqFPmp0vzci1gINpgAqO+66kpyQVSJouCfJ1cee76FaqAUJHPK6c8C5NyE/X9IpSTSwrVGlBrvw+r/GeOBzpxjsShzhqspAABhEFgkE1twZUVdeoXftrdMq8KTr/lHnyeUYBQqLP9tG2c7ds1bRip2ZPKtOMilKVlxYoy++X2+0yjitIvOaeGO+OFI1G1BoMqbahSTv216ixOaDLzlio+dPG96k+BqRvCiLCHUuWhzNoHAQ8CMQJISmyMh3odjSAgDIfQkjr9rUp25suyIe093YHjWofefUNuFur241ELx6C9fvbjHFHyhfj39QWVa7XafohrIDAEtuy/8bKdjW3WQJK88q8pq/d9RGz2qVvgAHCTBx3/YE2AxgOb0fWQYBs96qkBkknSCIHfuiBBOtaAp0TezP5CwQY1NTkGK3mmMIXYfny5QkWQosrGNmjh9a3KD2tQtfOptbIocvj3U1R/fLtFm2sjSScMlrkc+iaWT5dNMWqxAgIhnB437qAmSi7trKsdN1yfKbmlliy5F3b+5Xt+tmbDfrdxevkddlxDUIWkJsBCqgT2h4JKsNO04YNr8jt3qtJKyrk2JVleQlmFUst7VKOR/rRa9IFU6XpBZY3YFu9RMGe6+dJe5stZH7cGOtvVa2Wx4E2u1gqa5Ym1EnpNrmVBQ5g4O+S/ldSNT5FSVMkze18F4/TK+uaUiqU1NER05fPLNZVS6Yr3enWtqpW7a0Pqba5XQ2BiFrbImqPxM3ihEwlZ7pDXpdD2V6X8rPcKs72qCjbpfEFPhXlevu0Wk3hYzugXfWHB+Gy2S7dfNkJyvL7tKPznlQ3tas+EFZLKCpKflNFkuZ2pivT41R+pkuUei7N9Ro7MSbXK5+n9+njXQdvWJd7hoOASxsPAvHugW5HAwhLJvt16tRM/ebVWs0vs24Y6Yp/eKvOsOLH5blUluvWvW/Wa2ZphhaW+4wk7+yxXpPauH5/yDDjpxZlGLc2yogrdwU1pcitTxyfr/tX1JuVKx6GT5+UZ1Ign1rXrKuPz5U/I93UALj79VpdMj9Hf3qn0YQsEgMIAIkDkl7snDCXsI4eYiCBc8QNy6TO/xd1umOPnuY4vdSjUDhu6ivketMN0GJvil9R8wKPD1yC+kBUBZlOZWWka3ttuwFtpdkg9w7j9SF9L8ubbmphNARjBtCxDZLYADFME0W2IJOyD/ePcASpkgC9ycUZZrtddWGFurLyhqAH4bHHHjOE0qM3RnGX2qKv6eH1rHZPOSJAoI/ntoeMFHNtEGJrz21GgdN4DybmWmEuyKAPrg+YdEfbg8bvvc40XTvbpwsne01tk8PbewfaddtbAISVXQACXrIFnQDhrS4AoUTSHG3aBEDYrorI6XKs8pByITW0WQDhlHLptjek6+ZZoQeWc6Rd/HmD9E+LpSe3SLUB6cbj0U2XtjdIze1SKCIV+aSJNdKCyi4AgQUOYOBRSQ92Pt9wf8Z0AgfA+rl6ZV0wpQBBHTHde/PJmj8hT/e9sFZ/XVWrqpa4qFBoPcndNxYhiImV5zl13WkTdPb88hFZrKk/AMJ/fmKaLjlpol58f48efmO/ttcE1RSKHrWcNLbAzP25Hi2alK2rFo/XxJLspPULuPN1dXVGSgAy+bD0IBDXhoMwc+bMnmebFG9xNIDAqv8LpxXqt6/WGl1/DMwJE3y67606QzpcPCnTVABE1wCW/PxxHiPte8a0LCOfvGJHwJSELvQ7Nb00w/yN3xGa+MrZxXr0vUZjkGgnVvhMH5STvmJBrlFjRLnvZ89XGWLdOzuDR0zDO7qSIivy5yWReniKJERpEovdpniYD+sO1MzqaoUkSlovlDSv00V7dICAHDI8j8dWNems6ZlmcoOACJAigwQQh+F+bkOz5o3zmjDCX95v1IJynxaM82pDZcgsCqmRgdF//P1GfXCgzYw/oA6wB7hg8XrNCXmmHxQxv7Ck0PBHUMq89406c088bodW7T6McDoEAcJLL72ks88++yi3FDOPQuQLCoSdemj96UpPyzFcgMPd/HRCWiMA4amtIYV6SNclvLC4LEP/fHL2QW9EY1vM7P/k1g8zeRjv08dn6NNz/Rqb5TziU5oMB2HDhg3GzT6xPVOOfa2WV+DVnVYo4aJp0p3vSDedYPEM4BeUZUn//Zb0nTOkD2qkPU3S8WOlDKcVWnCnW9uVZ0tT86SKrC6vlM01APT+pROQk5k1rRM4WOG+V9ZVpR4g3GIBhC/+5CG9vK5aDrdP6c4Mi4zocFrMePvV72TTxyExxiLqiLZLkaBZ7f6fixcp0zt06lb07zz0Ye/9ARB+cPU0Xbxoor511zP68xu7lJ6RKQf3BFKoKb70YQq4Ke3XEVdHLGqIjfFwSGOy0/SdT52mMxdMSjit90jjRRIAn7lz5yYtFjZoIQY7iwEPwlBLc0Sj/3OnFBqPAdX+ls7MMu7/u16r1dJZOSbs8NTaJtUHY8agkzb30sYWlee5zeoTjwBcBeLerDjf3BbQ2n0hUxHyS2cU6dn1zXp3V9CsQC+cm62xOS49tbZZp0/LNK7AaSUe/fLFGl06P1ur97RpW237R7wIPUstMwkTaiA+Sq1zDPFgxxhxD2+QtKbTc8AE+iFwOZpQ0oQCl86anm3KLp85zW9WSNwTvDxZHodOmeQ3HoLXtwaEt2FKsVvPrGvW5QtyNakoQyt3BEz8Os/n1IxSj/78XqO5J3gUbjm7SHcsqz2YzQCgoFw3HoZ/OL3IVH/EY/Sz56oMmFtQ7jVlovc1dqHxD0GAQKbJpZdeepS5Fs8U5Nb1CkbO1kPrc83dOBJJ0e6kKhDT7Subtarqo6EGDBF1FvAI+N1pOr7Ura1YzsgAACAASURBVEun+UxGBJ/NdRHduyagNdUfjtv0AqduXJCpWUUu4wU6Ulu2u0139jKLAZEYMnAmxLLlqAlZHoSagBVqKPRLa6ssvgHzdTgu+V3Sin3SDXgleGUaLUAwPscCF8RE2GZCrpTXnXwzJcEJReCJwYNwqDck1RwE40G45WTNq8jT4y+/o6ffXKtdlQ1qDEbMAgYiIhm8B1X0CDM4pAyXtVotzMrQxLEF+vjZJ+jU+VPldo3Eao6pr8VgA4R7nlimO//yuqqbw4o7yFBwW8AtjUwYnvUOdZjwj52FElamu0MnTi/TV6/5mBZM7xsHoba21ngRSHUelh4E0A0ehERztVOJKo/mQZg9xmNWnusPhIwrGoMCKxijfsXCPFNvAU4B3AFS5agAiEeAl5JVLUaeAkKABNzd/I0CQKxCKRKEmxwXNt6IUyb7zWqYQk4ZLinH6zQkR/gOhDpQXtxeG1Zd4NBUvJ4Bgj1arNQfkTRe0jmd3oRUjmQifUGc3NvJOcAFzM+lH/Fq9AQQzp2ZrftXNljGp8KvM6Zm6j+fqjRj6HLIFG9qi8YNwELVkpRGajRUFGSoPRyX25WmyqaIARB/eb9J6/aHlONx6B/PKdHvXq81BEbi5HgkKAIFAPzq2UXaVNmmWWO8+s2rNTp9aqZqWqJ6a8dhcfQhCBBefvllnXXWWd3cIApbwf8wvgG1Rcv18PqgsYOfnOOTnwHtpq2qbNcvVrSoJhg3gCI7I02Tcp0al52uYn+6slwOtUTiJmOhwJOuTHeaCnwOoWRJFsTWhqgxXAVeCJE+nVXhkb8b3QVOwdZBIIsBL1wijRxwAML48eM/Ojm2hIl3WFyErnyH+qCU77PSGRvbrG+yFggtkB6AF6EPrb8AwtzxuXr2/f1qDwUUbgsoFAqqORBUMNRu3NqxDu4TqqIOuV3p8nkylOn3yuf1KT3Dr1kVRZo2NtfMOyOt9acHYd2OKq3ZvFPb9lbpQE2japta1RoklBkzIUswgsuZLm+GS3lZPhXnZ6m8pEAzJpRpwbRy5ef4++T3xb6iNTRnzpzh50GApHjgwAEDEMhVHuhmAYTdeic6W/H0Q1cEByV6OzqM25qf+Wa+8HZOZGQ12FkObqfDMFLZhliSJS8LWqcWgxV7paWT4ZBmZSUzWdIfxYB4UOiP1MgMp8P0y8/EvonV8vvD0yMTBwisEtdJWt65qrla6kXqY9/vC+JKsLs3EVChNma3XR4NIOClgbT5/p6Qtla3mewEgNWbOwKmYNO26nbtqLNAGkAMI//2Tlj5MgCB8SQzhPEEtAHAAHjwRJZMzdL7e4LGK0A44cI5OSbjAe8R3iQIpX53uhFXumR+rvFG2ADv4MUMQYDQPQeB8BaeA0AbHIU08zz+cUPAZOoQYjgSF8C+Vp7bv28NasXesHI9Ds0tdmlCjlNoHvhd5NtLa6sj+t6yRkViEl5VSI+UkUYcaUt9VJWtMc0sdOnsCR6TAnk008R5Eda45+LElRTXrl1rQgxTpkxJevXU92f/0B76CyDMKc/Rl+58x1wnMeyCTLfxcvoy0i0XdWfWFAE+AAOetpa2qOpbIzrQENIFC8fo0hPK5OkjAEr1eA1Ef/0JEO58fpuZ/0uynXI7YlIsoghaFaScMhGRuZbukDM9XU6XW/E0lxpD1jx16owiTS7J7FY8LJGxwXvApy/vwKCGGEA3hBgGQyiJWgLff2yz3ghNV9SVmJhQIjdloLZxhRt0inuNvvfJ44zk8dEbAGW7JMhcn+gMOyRWxKlv1wM4IIVxRycwICe/++p6RwMI8AZY4USjHdrfFNbYXLf2Nlj6BRMKLQCAccfA8VIWZ7tMuWd4Bbm+dAOymkNxw1UANOAd4AWlzDbMbvbf3xQxYR9ErjBYDaGoWtvihjRa2xI1IK08323AA54dvocyQHj11VdNueNDG4ARsPaMpJMknWr+TOrtnzYEjUriJ2f5jWflaA0+ApkNKC6OyUw/ZCILRDr09NaQ7n6/9SCZkXty+TSvbpifaaSYm9riyvemm9oM3UQWDh7+zvdatHJ/WHddlHgtBhTk0EEoLy8/5gHCrHE5uvJnr2lvvcVrYmFBpkJFkV/zKnJMKAHWPBkOG/Y0aU9dSKFwzKRis1z50tLJ+uyZE+V1j4YY+jbfWXvbIYbP3v6WdtYEVZzrUWEW2W9uZXmR3k83c1ksTup1TKH2mFrboibzpKa53Wjn/H8XTdcpMwr7lOaIfg2L8AULFgxPDwJpGKQ5DgZJcfv27frtH5/Tk6sq1RpNTEyIiSwnJ67c3A7t3Hl0d6NZ+UcIN0guV1QOI+eWqtahrPSwLl9Uri9cvVQVFRUJdMzx4SQg4gKBEXEqiFT94VY05Xs6QwrLOsMb5IUffZxTXawpgUFJ3SZD0IPwwAMP6Prrrz/sGqs6mfakCAIsPySmPbYxqP0tMV09y2dCBcm2fS0x/fytJn1Q+2FYjNoOV8/0mkqRCPf0plHNsb4trh+fnXhZ+Pfee894EJhbko2/9uYcE9m2vzwIM8dl6/KfvKYDjRZgZnynjsnUDWdO1Jg8jxoDYeMd8OEF29Wkv6zcq22IQtE64p0AYZJ8EDJHWOtPD8J1/71c6/cinmU1PDrHTczViZMLlJfpNumOm/e36M0tddpXHzqY2cOC5JtXzNLps0rkSKBWSXe3rLGxUXyOGGZL8D6PWA8CaoC7du/Rtl17FQjxYiViwOPKzNwkv79OVVWkEHbfGhrievLJsDZvatdppzt18sleZWWlatWepkxfhqZOKFd5+TizUkq8Ybhfk/SOpI91khdTdV5mxpG0r9NzcFUnSMhNCIgAEP71tvt03/ZSBf0Dn/qa+BgeYcuODhXWvqafXz9Tn75i6ZAwSitXrtSiRaSR2s1OMV0piecXsPhhY9X/QW1El03zanJ+b56pQ8eDOg1II7+5t91IN9Mm5jpNFceTyzJ6nbp168sNQifhyyeQDZBYoyIp7wWqoCMNIHhc6brxnIm66uRyPb3qgJ5bXWkM0jlzijWpJFOPrtirx1fstaqYjgIEfffh1NZisD0I1/7X6/pgnwXECEMvmpKvG8+ZZP6PpyAvk3L0Tr26oUaPvLlX+xvgBcno6nzzylk6Y3Zpn7IYUFFEa4gKvVTlTaYNGkCAg4ALBA7C9OmsLgenUXaaT2ItqrS05+RwhBSLYfy6b3v2hPXQQ00KBOIiraiszKmLL87V2LGuPqFC+4jc8GRvugSqBSC8J2lx5yexETj6Vsw46yU93pmlAABJ/MHEm3Trj/5H969zKuCr6DGXOxVn3GMfnTVt7Bo43W2f1hFVact7+tHnl+gTl13YayPY43kkscE999yjz3/+8517MlG93hlSABCiI3Boe3VXm6mzcP5kr04Yk3zKG+GczfURPbklpHU1ERX60rWwxKWPTfSYegu9bTc/XaeLp3p1wZSPnnN3fY1kDwIAgbDBtaeO16odDXplfbV21UBAjRsZZngH/GyVBBj1IAwEQMjzu/Tl86bojFnFeuC1XVq+qVYTiv269ISx5p78/pWdeot02hQChJaWFvGhYFmyIHlQAQIsSzgIkCiGRyM960+dAihHyy+Xduxo19//3qSpUzM0ZoxLzz/frLq6qK66Kk/z5/vkOkzrfuCvnzTIrZ2pWIQbWOv1fvL+8LxtcMD4LO3UODh0hdrTNULeefvdVXp2+WrtrWky2vGpaJBCGxs7tH6dV15vXDNmhuX3JebmTnfGVVHRqkCrR1VV3aWJdpgUsdmTSnTR2YtVMX78kAAIEPXIgZZ4bp+TtFnSzd2muyJp/OcPgjqzIkPnTU7cGB/pHsHXICWyLhg3WSe5GQ7Da0ikvHPX/iD4fuaJOn3v9BxNK0jcqzEUPQgvr96nf/zD2tQ9G51pjkcKMUwu8eu6JeN1/GQK9aQp2B5VXUtY7+9s0NOrKrWbuhKjAEH9GWLo6kHI87t1y/mTdf7CMXpzc52eX1OlndUBw0WASEqIgfuTSoCwbds28R7AUaOyaTJt0ADCYCspJjNYVnreXzslXo8uD71lS5sBBQsX+rRokV9VVVEtX96iV15p1WmnZeqCC7KVnU1ObHJnkpq9bJ7AFkmrJV3RqRvf294hRwEwWjrzwCkxnJzmAqEf9MPb28MmXbSvjfTGd98N6m9PNKmx0aH58z26+OJMjRuXmLFJS2uT1/e8YtGT1N5OfvuRG5Ow3+9XZmZmHzw7fb3aQ/e/4447dNNNX+xUrSTV9SYjad0d72RbQ0R/WBPQghK3Lp/u6/OzaTzY5OF3FlNM5uoIV3zp6XrdeUG+CnvBi6A8ORyEvuSAJ3O+R9tn2eoduvl/15l8+JS0bgACRmdsnlesWmll+T7NGJel4yfmqyQnQ4+/vU93v7RDbahEjnoQ9J0H39erG+FnpaYdKcTAPZk/Ptd4diaXZqo9GldTIKLt1a16YU2V3tpcpyD3I4UehEAgID4U1BuWHoTBrMWQ3KPAlIdKIcqEfLpv69eHtGxZi0480a8TTrBW0oQb1q8P6tFHG4wH4YtfLFJ5OTHZ5M4mNXvZanpPm4JJEqGT7g3hocdkX3Lp75NEhgJpjLivU8lpSP4qq6sjeuyxRnEvTj89U5FIh9raOnTuudkqL090kgb03C3pCx+J2Sd/ZgOzJ2qCs2aRQvyzTvBHKK/7h41CTH9Y02oUDa+Y4fuwFtHAnO4Rj4Lmwr8ta9LDlxcadnei7ag6CIl2kuLt3v1gt67/xQtyZ49NjRehG4BQlJWhH14314QUfvXUFm2vDsif4dSZs4v01Qun6bUPavTzv25SE/oOIxwgNAba9O3fL9dr21NQ8r3zeTkSQOBPcA/G5ns0fUyW5lXkan5FrsoLfdpVE9A9L+/Qsg01hheSKg4CmTyQ8VFTHXYeBOL+DQ0NgoswZgya5cOh4UGgGNLph7C/j3Tm770X1MqVrTr11EzNnfuhuxYjheF68skmvfJKi774xUKzjesowjT9PzIgVySQSUmEnwDzvScXM+Bgv6TfdVauO18SZMTBb+FwXO+8E9Qf/1ivggKnrrwyTxMnuvXyyy2qr4/q3HNzTNgnsQYg/H+S/nXIAJ/Ezlv63e9+qRtv/AdJKPwB+o5uYMnNfnBdQKGodNUMn/K9iRvkRM+pt9vd836LVldFdNu5eb0KT2zatMkIJZHhk+zqqbfn2tP29c0BXfTPv1Gjs0wuX17fQUI3AIFshZvPm6zLTxqnPbUhrd3dZLRX0EvI9bl0/2u79Kc39ljaKiMcIDQHQvr+vS/oua1pRgo5Fe1wgMACsCzPq5vPn6rKppAeXr5bofa4SX284qRxuvC4MXpg2S498PouU1wrVQAhGAyKT0FBQdLP2qCFGOAegHBwgRzKtE7FLeqvPjAW35T03z260N94o1Vr1gR11lnZmj79UG8DbtdQKK5Vq4L6f/+vWrNne3XLLcXKzk6c0Jf6K8Tgs1qGSYuhJ2RwtBoOkN5+08k1gClP9bpBdYUYd3ZtbUR//nOD3n47oEsvzTXjn5npMGI9jz7aqGAwpgsuyFFRUaKTAaAQeehOCd7UD3w/9RjTzp0f14QJP5FEyCexe/P0tpCW72nTFdN9Om5MRoJ79c8lRGNx3fR0vS6b6tUl0wh5JHYNnM3q1atNiAERtqECECi3/OjL7+jWO56UssrkyS5VWrq7V9d1yEh3xHX3P5youRW5uvzHr2h/E6tgS6gKIHDqjEItnlaggswMAwb21gX1xqZavbu9QQGKU9HiMX1p6SR99qwpIzLNMdQe0QPPvq2fPL5W3vyK5O9FlxtzJA8CIZ+ffGqeSnI9JoPkpbXVyvG7dOVJ44xWxd0v7tBf3t5n9FhSBRDgH+zatUtLliwZfh4ECGmgGzwJOTnDRaiIwjb/JumOHmfEl15q1ubNbTrvvBxNnHhkRngs1qEDByK6++4avfdeSD/96biPgIkeD5TyDQAGCOnAeEf1sGuaHAdjYkH4iBUp5LesHsFSyk/xCB1GInG9/35Id95Zo+Jipz7/+UKNH59xkAyKtOn991ssYbJJ8vMTJe0AnJh4EwUUA3G1PR2Dc/6FnntuhZYufahXmST1oZjuXR1QnjfNgIRcz+CBViSWf78moF+dl99rXQYKweFWLSkpScmk39OIJ/r3YFtYDz+3Qj+97xkFow6lZ2TL6c2Rg0I+vQBA1vE6dPykfH33+sX68s8f0a6mNLl9eZ0Fm9xyGkEex0E1aaPWGo0pEm5XLBJSrK1F8bYGffWKk3TjJYvl8yQadkv0aof+dvCctuyp1vX//ns1O4qVAWjr9X049Dq7S3M8ZXqhvnrBVJXle41QFRIHZPw8teqAyWyoRN47hRwEMhhaW1tNFkOy1zRoHgTSG9evX28Iad3rxQ+1BwzWPy71H/d4Yk891aTdu8O65JIclZUd/cXDJb5sWau+9739uvHGQl1/ff4ghxww/G93hhxQ20OND0PBA0y1uj2SrpM0rsdx6O8N8BrU10f00EMNeu65ZhOy+djHspVxmEIfAOGuu2rl9Tp0+eW5CXprMLSACsr4QvAbLu3Phpj45psXaPHio+t1HOmKXt/Tpkc2BDU+J90UWypHKjbdEuDp78ZKt7ktrud3hvT4xpBumOfXeZO9vZ7gli9fLo/H0ycVuf66Voz0pl2Vuu+p5Xr5nY1qaqXSaGIltA8/J4Td/+dfrtcba7bqT8+/rZYQPCK8CA6lpTvR8u30HlEYKGY8Bh0dMaOgmOFK16yJY/WVqz+ms0+YaQDFSGyBULseefFt/eD3zyieUSxP3jg5XB5rDJN45r92wWR95qzJuu5nz2p9ZUwO7gMzqCNNuX6Xpo3J0phcj/HibKtq1Z66oMIRS36Ze1SW3aFvfXy+lswe16eUeDh+iBGeeOKJSROnBw0ggNzgH+BJ4EUeHm1np1zxtT2e7mOPNaimxkprLCxMbLW6f39Y3/72PjmdDn33u2MMsEji+ezx3BLbAONIZsPLkk7uLF37cOdqGrnmsYl1049b4TWA6/HLX1artNSlb3yjVMXFR17pAxB+9atq4zngnvj9icTX8aYACtGMABANh8Z9o5z2fD355Eu66KKLen3SvJvrayJ6YnNI62sjhoswKTfdiB0hWJTXWYCJ+gpeJ6mLVsXAnuCDnZNi6pbEOkzJ6GCkQ83tcVUH4trVFNW2hqi21nPMdF07y6tTyz1JTZLwmwgtZGdnJzXJ93rQerkDY8F4EUZpaA6osSVo6fMn2No72uROIwSUprLiPPm9GTpQ06BVm/Zo864D2lvTYPptC0cUj8WN8fd63MrL9mtcUa4mlhVpSnmpJowpkDdj5HkODh/m5taQ/vjCCv36Ty+ptjkoh9svh9MCCT0+2Id15nM79dOblureJ5ZpxeZqubIK5czIUbqLks+d1RxNhg+1YSi9HVUsHFKsvUWRUKOmlPj1vS9coiULpvUJlFOHob6+3lRLTjbMNmgAwfYg4AbpuZZAgm9Nv2+Ge53Xumfj8tBD9Wpujunaa/OVk5M4MifT4eGH6/XEE4368peLdeaZmXK7e9ar759LZ8IKSHFeEuLwrKaPk9IKLcFE0IvJY+vJNKT27OJxqbk5qvvuq9MzzzTrK18pNpkJFMPqrhHO+elPq0x649VX5xkPQ8+N+42xJcQAMXUoN7veBjwZSns79fjjj+uKK0hdTa5RfOxAa0wb6yKmAuPu5qhIO6SYDFUVM9LT5DbfVjEmPvzMbTClm9MoSJZmKjfi3jagINKh9hgfmW9qOrCapegTNR0AIXOKXJqc5zIlopNZwXG1L730knw+X59WT8mNWs97kc1GtemsDKkiVzrQIrW2SzOKZMAWjSJXla0ScgXFfuv3sbhU4JOijoAern9Yl+RcrkBrgdmmLIt6GhJqyWxvA5Ajnc3R/tbz2R+7W4QjUW3YsV9/eeU9rVy/XZV1TYpwIw5pNoj76FwTl1U1k3//esOFyvZ79etHXtTWPdWdBZp4J+xSz+wfN/NnGh8H9zhN5aVW+e0rzzpBJQU5fZpaq6urVVNT0ye58UEDCHgOAAl8kzs+PBrFjkhZRHzm6O2ee2pNYaHPfKZAnh4K3xzeUzQKgTGk22+v1pw5Xn3mM/kqLHTJ6ewHQwyTuT2K/8sy9lDYKXFL3V9mJP6+u0nyuayfsz1SlluqDkrZbqk+JBX5JJ/7w9mtp8FJ8u8WuTOmtWtD+sUvqjVhglvf/GapcnJ61pMAIBDCmTrVo+uuy09wLAEGL0lCyGtSkmc9ELvZGSUQEr/c6e1xaMWKFTrpJEJEfW+sdqKdhh6j3tjWYQo78cELgDeA3wMCeExiHW3q6GiRI63QgAUMHODBi9fBlaYstyWclOdxKNNdK3d6ptIdPgO9kwUFXa8S2W6URtGmSEV/fR/BD3toapd+8Yb12lwyXXpqC2BJun6u9ZrxnK+rkfY2S6WZ0r4my+CXZEoLxkjL2v6qb+z9hv6r+EFt37VAC0rSVJwpIcRX4JXmlVqAw9UZXWDa4J7wM/YuHLeO43UOOLZP5TCmtC/GHOAGLyBNccMRIOxzaHIZYIHMLezVh3VBAGZ4fza3f6DJnslydmQoPd0pl9OhSCSsDTsrtXX3fu2tsr06YbHIcbnSlenNUGFulirGFGra+FKNLco1XBBKc/e1UagJMcJ58+YNvxADWQzkKkOiWLwYud+h3nhFSXc7rkdpYh623/62RshfwylIpuAGfVRWRvS//1urffvChpeAAqO/F2IxCY1oXUh6bqs0p8SaVd7eL505QdrfIu1rlvxuaU2lNKbLEqUiR3pzj/U33qqcDOmCKdLUgn6bcUgPJQTz+OONJl3xq18t0VlnZSY8toC1b31rn+bO9epTnyLtJ5HR4Z7XdE4GQ5mk2Cjp9s5QEHwRy2V8qNRyItebqm0YN0qMPynp/yZAkvzPzrogEGL7PjFyFUPZgwBAuH2FNL3AAgDv7JeQJJhXYnkBPM7O18ojnVouPbNV2tdCPQvp+LEduq3+2/pNzW/0g5LblV75cWWmZ+jU8dKGGinfQ0l6aeU+CwywD4EyXm1ez7XVUlObNKdYWjK+E0Sk6rYP434a2qQXtkljMqVZxdLKvdZ65/QJ/z977wEfV3Gu/z8rrXpvtqxmufeKjRs24EKNKaYEQgJJHEIgJPcPN5BLLnEMCck/3OSG3IRAKAkhzRBMDaYX04077r3J6r1rV7v7+3zn7DFy1UpaWTLe8ccfSbunzJmZM/PM+z7v82INsx7M4SiWw7FUDk2UxzvVWMcY6UyTRQ1uPdh8k+7I+r5aKsepuN6h5GhpXF/p/f3SRUOsvmXeYYTbBljb1AOAM5a34Ax/U1/cbADlUzJZE9ELuBdQVETpqfcXunSRJLTtT5xICH/3gw+WGUIcAKErpa7OYxQZIeCddVa8MaUT2x80awJ2zL9/Jo3pK9Va6WLNDLWxxNrGMGtVNsrECQ5Pt8AANuWPCqwt0PhM6UCtNCFTGpZuQfAgFpB2dXWrCQnFpTBwYJQJCQ08CsGqDETQRYsKDci69trUAGvIjoHsh+h0BPe5AqxAAIcxLok4wbUAOCCqxCqoCbJ7OPml5wECvlcsCL2Rg8Br9thqaXqutKVcSo2RwOlj+kgf7LdeKXaujW5pVF9p1UHr1cS9kJ1aqTvLv6p3Gt7UpYlX6sep/6eC8nSxwPF9cpRU3iTVu6Q9VdJlw6X391nfjciQ3txt3W9IqjShH1adkz86euMdS+qlx9ZIWQnSmdlWOwEQ5g60+oIRnRD5sZKiH5YzbJ721VyhupYYNcDn5l2r2acfu2ZqUfYdat51s2bmOtUvUYpzSv/cKH19vLS9wpoeU6Kl5lZrf4Whls/Yj2Ehyk0MHmiDpEg0DzICnc3b02MuBiR1UXki1HHiRHblvb2Aw38g6aftKuq5XD49/HCp4uPDTbhdVwu73y1bmg03ISrKYSIjhg6NDo41ge3M8j0WdMUpisuAUcsMw6g9o5+0tsgazdgk+Qw3w95qazQDk2MipLF9LOgdRIDQ0EAsv8uAo88+a9K3vpWmqVORMu74Yt3c7NXPflZkAMJVVwWaNhi9+oclfb+LeSq6OgKOdz5aFAADdCsg+h6+/XjooYd0880IJZ28gsuQ5GRO51ZjQfB4bhe50BAtotiJ0Q6fsIJvQXj33XcNB+GMM87o9OTYXa3GooLRjgV6U5k0NFXaUWnh7W0VltUAF8BnJdaigtuAV62oXlrZ8q7+6rtFRdqiJF+2fhTxivLCRmlcZpgaXJanjx0t98BtMWeA9NF+Cxykx0rrimWOA8sPSg3q69pdzXVSrgtA+McGCeMoUxgRh1h1BqdZHJHMBLeGpj6l9Lgn5fVN0Ss7vq3YiFztqbb678mqR/Vc2J06N2ma7ox+SpsKE5QeZxljn9ooXT7CAn9Mr6P6WO6ggckWCCHzNl5cLDyAxoyOpbA5bvsQIcgmHCHCU46kyEQBy5JIhuzs7JMyCLp2EwACIX6Qvk68QLW0eM1uF+Gjq68OdLd64trhcigpceull6pFnoezzkrQ1KlxhpvQJXcVW5OPDki7Ki27JI5KYDO8BGYYZibeFEYvsxe2t7mDpNIGa4bbX22xqwAK/O/42n3Ug2OBwb2yYkWDcSegIwGXA6tBYK6Bo9uysdGr++8vNgDh8ssDVXxEOApRrP8Omum7a2Ow7dlYe1C+LPcnx8o46tKIBY0bh5bFySnwFJiUysvLNHAg5tQPVFQ0TyUlZaYecAEweVIO1z4hdBiuBPlNgmNjxf+KDgLWyd7GQThWb/Aasnjz9JOzLbIh7zyv3N4qi8w4IMWnP5T/Ro+UP6L97v1KDEvUY/0f0wVJF8jpCCxS6uSMhFPvLmUN0ms7LUCwrVzKSZDInQS3Y3OpNDWnVCMyHlKY4xXVu3K0fO+dio+apM2lYRqYDmkRYQAAIABJREFU5tLdlV/XOsezSnTG6k/pHyrfOcIAM4DBi9ukSVnSioMS6TFwO+DqwZKDm2lLmVTvtgy0Q9OsvVgwyt69e0XK5+nTp596QklYEOxcDKNHjw5GewT3GuyiWSTZHQO52V3zxjZ7JMRjYPpgam9TmCABPi6XRaSDnDhqVKzZwQRrkkKB8eOP6/XWW3XKzo7QOeckGLN7R4mQptomzL9Bem+v1OqWttVYloTRGdZzMmvhJKUdcDtgF6MtGMEACdhPTS4pGhp1jjS2X5e2JDRvfb3HCEwtX16n4uJWzZ+frMmTYzv3fG36huv+/velRvb64osDFeZi8f2T348eBOQTtBGK64PQy48kzfMnDzt6YX388ce1cOHCoN3VvhDjvKSkxIB7RFjgE8ElYscOa3rlypWaPXuGEhMdWrNmn95773194xvfUExMjCEmk9abhRtrQ0REhKKi6uRwQPyKCVpdIWgSPk02y87unoJWmQAu5PZaOByTP68a/upGl/U6QfPh+6Qon5Y3vKEVDSv0cu3LOi/xPF2UeJGGOicpPsJpXlNe0US8gCG8EECrf34I7pzdlZaZn10+PG1+YkhlGpyctVopMX+Qw/GZvL5o7av+nqqavqRPD8aqb9/turPqSu1q3SSfvPpe9EO6JvE7yozD8iBtLZeyE63rYxni96omi4+AxQIvL4ZZplq+syNZOvQAxzgYsM7/rKysTr8DPeZigHvAZMLkkp+f39W2CO75OL6x/dGLA1MtaI+DkJ7j9wEp1nc4rLAjwepHpLipSexc+MlkCFhA7jUjI8P8HazCDnvXLiudNByFadPiNXFibCd22NBvvZIbUzUhjFhywqy3glHLTJOV+DlLx34A2E+MbsCEAyfcLj/LnzwOnbOYQEIsKHAZiWSyLwJ6EDRC16CzVoO27Y2LAWtETk6kISoes9ghm1hOTBhktdS6RnLOsaI5upKWMFidb67DLvw5fw6MScdVeVy9erUxsQe7ABAw4ZNOmoUfoL9jxw4T1z1y5Ei99tqrmjx5iHJzSXser2XLXjEJY5KTk807AbOaHAmYPyFQ5eaWKywsVxJWkOAAMXZOgI+uqMgFu906cj1ewTWFJPiRchKtcEeMeSxc+1sK9IvSxfpJ1iJlhOXpw32WC4FdKBEP8A3G9QtWS3ak1l+sYwEIOyuk1FifBqZ8rDAHpNsiv7txnjze8/RJQZJKot/W4zW/1srGlcqMyNQlSZfoZ9m4zXq2nNIWBHYfhYWFBiCgl96rCpD9oZWWiX1QirSvxgIDfWKlP6+z/PK8uQCDKdnSUItngPn0gw8+MBNgTk6OIWACDoYPH27IUsEukPewJKxf32jM8KSRzs+PCpDAiMsEUECSJoABPwnn66iJFzME1yIk8Fm/qRgSZ+ATfVVVq9avb9KqVQ3CFTB7dqLOOCPWkDy7Wsj1ARBlt4olh58pKSmmPw7bWeIUxPkHKII2PiLd+h0nMNCeGZvC78FyEnb44ex8GQA6rAhpJ9x1/+Mf/9BXvhJ8gSeAAEqF6LxfffXVev3114314IknntBdd92ld999R9deO0ZNTUu1det8rVixUvPnzzeiLZCmAM2Y/2FZAxxycv7st4QEL4qhN+Zi6Eh3s/94a7dFXsT0jHUBNwPYfE9zgf7pWqzvpy5SpCvPGAAvHGIZNNfDqZVFTgwGsO5Inb/Yx9aqyV2l0oZ6JUZFyhmWoubWZCVHO1XhLdYB1wHdU3iPrk29VmNixijJNdZwPjBAw28wU0dCR2bFrrcm71d1dXWXEpb1qAWBhRSAgNJTryq4F5ZslLaWWeF9sITYQbJgPLXJig/ic8ztOJQg5yFu4nYb8yrscUyoAARMnCNGjOi0iae9dmHnDUAg9wNl+vR442eHIHn8CYLFZZ/fRI1p90tBIOGxgKK0SD0QFcJtdOIFHjLn3r0txmWye3eLsRrMmZOorKzIrvEq2jQaY+z999834I0dLAABZv/gwYMP98sRd3bBYGtWhXY8PE3KT5YeXiVN7GcRNMFBqNBcQtrknijEYG+SxPvSvi4Dzz1z5sygVxSLAQTIiy66yFgo7rvvPiNI9OKLL+rOO+/UO++8rblzM5WS8om2bLlYy5e/r7PPJsJCBqzhZkhISDgU4pyX96QcDlwlwQMIJIKDGAlQPxVcDEd2EgBhTZFF9TGaU0Tf+1nvB1wFesO5WHPcizQ4Nk8biqVLhluL0ScFFhWIoRwqwW2BkvoWfVZyUAmRyYpyphrXA4RDQhRd3lbdVbZQt2bcrmyN1Rs7HTo33zIwv7LD8soC4oLI4W734QDjSC1PmjSp00TdHgMILKaY45ksep0FgaYnKJbdY06SBRQwpxPy99wW6bIRVjAxNr/cJMtx5LcgbNy40XQKkxL+nwkTJhg9+GBxEI41KmwC46uv1mjfPpeGDInS2WcnmJTGR2swsAuFYf6eX/DjfEldj7SwCA0Q5173g48v+xM6HV1jK39Cq7EYrFvXaCwes2ZZabE7xaU4wauCBWH58uXGDA5og/tC2M/AgQMP75O/fiYNSZEqm62ZGIsCwOCON6TzBllsIsbA7irp+8ERH2r3DT/sAPJgIHtdJelcf+jlia+wdOlSXXHFFR27TQBHk0qZPCqwowFbABEsMrzPZI5bu3aNcnNrNGzYLhUWXqf16zcYUiLtj+WA92PAgAFmd8Nn2dl/ksNxXlABAu8hloquyMwG0BTddgjTC7oGLCyFtdZ0g38c42aBu0AvabEu9i1SfnSeGao2rxhXBIbP80MAIeh9U9lUpeqmV7SzcpQaXOOMEblvnEVmrGlp1SOehbo04nYNiRirlQcduny4Faq6qdQyOF8x8uQCBCx2/Geu6yxI7jGAwO4aohMWBB6gVxXesGc3W0wfGEOrC61gWFQzsOedO8CK/YdyygjhzWXvXFtrJj+eCZlLJkAAwpAhpNvt/oKfnd34J580GJGmuXOTjL89IsI297MFpnzqZ7/PlhQb5IrhaoBAB68EcSFidj7PtYHVYNeuZr33Xp3JVUG45syZFpjpjkI/rF271vQFCwZ/s4jhKz+sQF0mPgzuCQX3Ef39o7ekW8+U6lqYBawg5mDNvkZ732Gx0dj+0U2w0SCAYrECdB1STiENN1wPdA76B9RUb775pubOnRvQscE9yFZ2/EwSALQ9VxG+3RF+fZHAXVMnqjOcCDgIXRGJCW6bdOxqTEHIjzAsmt0WvwBDJmx7XAx/aVqsOzMWydGcZ/jSg1OsMEhIihi+YMiHSnBboKqpQh7v8zpYN04rD04yBmXD1Q6j7Vv1pBZqfOPtuip3rD7c79CCERZljVcYEHH9uOAREAN5Mqyn/MeKfcrpIGBBYDHFgoCPvlcV3k5gn61iAVPfsV2KHCK5wiypslaP9fa2AQj2M9TUtGjTpkKFhTVr5MjsbuEfHK+9IDDu2dNiuAkHD7o1dmyMEVdKTMRvjWzwDP+CTQrqIMXTHFUZFggbKBw0/mWfL0kVFa368MN6bdjQqJSUcKNpMGpUTNCtBnZ18JWDoDFrA0jhvEDcwdw9bFgbNwGL8eoiK2Tzha1WhApuBNRkHl0tXT/eAg9Qjc/OtywLXS2ElKIdAWZbutlimeFEZpZHjIoVAfk7HM+AVD7HlslsBAciP8n6jFWDQGo4Elg54qMOOTpfeukl4/vvmYI1iTGH5kR7i36ln0sRvFUNCwIuBlxJnd099Uy7tX/XAleBFhcu1qKsRcqLzGv/hNARQWmB+pYKeX3PKyxsnFYdnGRcP+wXEKmqcbXqEfdCXRR+u0ZGj1VhnUOz8qSyRgsc8HqePyi4SontPRTzHlICWOg7+w6ELAjttbL5Hqb+/0meb0phye2yf1ig2ckPHx6tiRODpHoRUD0/P4iwPlJIY8YfPLhSCxasUFSUSw4Hpv/ORRp0rArwHPaYWH2PJ1J7987USy/FimRUo0dHm8iLjIzgRCicqF6ABHgH9fVuFRQUy+2u14ABuYfH4bOT31llcUoAAuAbNFcpbAGm5lh2W7ZyRHWwRetqgdvwlTHW/Zbvk2KdVnTMyzss2joB01gTcFrCUkOYH3tlfIQFEPhPoDVqNyYmzi1Ny7E4En7yyVtvvaU5c+Z0taadON8I0EraEKAF4d/+UM2OkVtPVDEsCACE3NzcTk+OnXjwE56C+R9XgU02xFtF9/I3Q4/AIXb+0JsoiPVASjTyIg5rCGAhCI8p0L3Fi3Vd9CINjclTfoqFGxkCcBYYAnZOBz7jOlzD7HTrrHQrcG35G6MYeJQo7lA5cQt4vHXyaYXCHQNU7xpkXjuoSbRhq69VPyxdqO+m364cjTX5R1JiLMxPn/Gfv09mwUKPxRRr6SlnQej1OgiH9SQ7oR9Kug+Jl3b7+LPPGk1I3ZQpcWaX3FOFBEVbtpSqtPRxFRYmKCNjts47b2S38iEOf1aPamsPaM2aN+V2x2v//nN15pkJGjYsRpGR7e0qg9tq9ElRkVvjxxO3HIg7A1GGGqnJvyAHtzrSe/ssKxSzCwCFmf3MHD8pMlOKjrAsWMzuODNZPVBXQdIa2yZbkpUHLWq0EbNqtSIviHHzM6EgDV5yySXBrnkA1+t5qeV169YZlxKWos7ungJ40A4dQtgiYjmYmgELKwqshZrFmZ94t+hyyG0UjJh4tkiTwvA4UCMlx0gJSQX64b7F+lrMItXX5OnKkdY1wJpv7Lb4CGBMFjDCHhk25F4AZKwrsjynDCGGzpZSK5IbZcWT+0Z2qOl6ycFseiBh4zI9fLVv9bZq4b6Fur3v7RobO9ZkdOzpggWhvLy8S+9Aj1oQMH8AFED5vbtADAMg/DYgMRdi+bEgzJqVYBaknimY+Ovk80XI5VqtFSvytWxZmEaODFde3najy2ATJ2GUE2kRzGLJQzfphReqlJRUpy99yavExDSlpZFYCE5Ge37pYNZGeuWVGpP06oILkowWQvsFUPi+pAvaP7QzR0BTf3uP9NouK1QWAX62ec9vleYPlfbWyOi4IlqFxYLt5jt7Lf4DmrwQaNleQpBlVUGOjYRZGfGHZnrImXb0QGeq2Plzeh4gEIJp6yD0FoDA7v2hVdId06TiBmsxR0zHGW5JIhOiSOw9nFjUxCEpggtJkwINCuuDsThkFuinxYs1z7NISd48XT3a4tWCGf+0Rrp4mBWdbeNOgAgAAIvBh/utz1FLn5ZraS0AFBBF7fklrfMjrjNnAqB4bcDgGAnhd5CGG/CEYQ7XAV5HwBZCsl5fo+pdG9XgzlJqTI4JPSWXRmSYNCyjVd/Ys1DnOW7XqJixmpnnMO2M1YcoeQAarzevKkAOgIjBkDpAf+JY+gxD5c5KK6qeOuBd7GyBf4AVASHCU9KCgJgJuRh6JqFMR5odYZrHJf1HAJnpZPzsa9Y0aN68JONmOPkFxvtb/qgCSGJRcrvDtXFjo/btq1Vx8QsmNpbYdczvKM5NnTq1w5YFzPe2zoCtsc+zpqVl6YUXGk3+hHHjYjRjRrwGDIhUeDguhzf9IZBEAnRh9HewUf/1ryrV1np0ySXJysgI5L6oKGL6/noH7xTA4cwG7P7JnPnuXgsc8B8uBDMOYbTMEnAeEGdn5oDpxN9sAxG3shlp4KyEaIsLA2m2zYzy1FNP6ctfxqV0skvPAwTCjRnXo0aN6jUWBDDhbz6WbplsKSYSxkioHPHy8JxZrKCi2B6sXVXSvmppVIYFHljAWWyGZBfofyssC0JFZZ6xSNjdThIoaDIjM6yIB3Iy4InimgRkEfFAEqekaMtgBXjArYEUcLAU/E72aOvs/VicyUnHK/itiZbFBsV5XAFILGcnWH0EP31mf8BZpUob/q2ShjHKT55gUtRg2eG4MZmt+sqOhTo/7HbFt4zVtyZaAIH+Qs8C0EfAGwAB8SXAH6AMfgL9znjAigQoAKRQoDp1xS3BBhwOVlcieXrMgsCCQuUhKyIF2bsLu3F6jXq2j7NxL2ze3GQkfREuOrkFE9hLJHhFFcHPDrcWRAZsVVWjnnzyEcXHx5sdFiCBGPbOqFkCEIg3J+QNIgwhbACG5uYUvf12pAm1HD06VsnJtiQ1dVorab0kxLEI1wvE3N/1FnziiXKzrl55JSJJgaSw2yFpi6RuMtEzs7A64HzGnWCkrN1SZbU0AIdyijWbsDXESQwhlr/ZUkKSYKuBBYHzsC8zkxwxw69atcrEQPdMgXiI1sb4AN6Z1ZJy/GGx7b9fgTxPb8zFwGJMAiY8QbgNoLegVj4gVSqoscAAAAHeKYs7Ikn2ZxZT3hoi6WkF+lnxYl3htJQUSe7ErpShwGIHh4EdMS4JwiTBoSw+4EeuBy+BNNAskNQBg9S4zNOTh4DV4Il10vemWOCAzJm4YOCFDE6V1hdbrxb4PcxRoZL653WgbpwGJk8y+gaAK6w+Z+e36qYDCzVHtyvFPVbfnGCNY1xEz2yWZg+wrmmnhwZc0NcU3D4VjVYeCIAa/YUVA/FeXvvOFnQQIGZ3JWFZjwEEXAswyrEgoBPQuwvhZUhsnhVQNdEjQPhnwYIUZWZ2oYcDulvbg/CRoUMASGBhgOF8+P2Rgd6yhYWPjajXyEKTLIu49I5qNQAQIME89thjxk0EQAB0nHvuRWpsdCo7G6vBkRM+4XroMAC4SEV8csAheRhiY8N03XWpijIyyu0VdCKw/iDec5KKp9mSdo4CQPmzMDKjMK1gOQDhQVy0f+crtjfHUcR69NFHdeONN56kyh95G6IYyIYJobO9RR8XHj7d4FnbUDTFjcbc0lnzarAbDgsC3cdiD6Zj8eB3CIUs2nbKEzvKlaAVyG18z2eYtOnqKl+BflK4WLelLdKgmLxD5+N+wM3AK4eFgOO5Pp9xvh0yyTW4pm1hwEQOkDjdLAgY7DaWWoFLXxtnuQpWFVp0HiwwLPwY7Vi0sfLIUaH6lue1tXycBqVOsnb68DzqpIuGturG/Qs133m7VDtWN01yGPxPHzy3lVwO0ngsBi3WdQGL5LiDPoSLAdyPIC/9DbDDJYFboysuhlM6F4NtQQAo9P5sjq/5ZYkDk6198cVqFRa6dM01qUpODsSc3dWpiFi5/X7hI0ACPnbEm47eKWN22rNnj+F+bN261RC5hg+foYMHk3X++YkBLp6f1xeAgVCOXVCRvO2229qZlFFdxA3CbhhOAkqUwRBrOn47/s//FCs93akbbkg7hnjUsc5DtZBZIQgRCwF1L1aq7ZKekURo4oSAzjrRQYT69UwiNFDNTj+HAxdNe4DsEUlTA1LfDLRR8L0CDNLS0joMfAO9R08dFwpzDE7L2/7/8gbL/YI1AEsOYAmrAeCgttmi+bBQO9Sg8LBNKqzLUkpMjuGDcC4ckpxEi6S4IPJ2TYgfq9xEh+EwAPL2VkvJUf4UPs2WJxGLD3xigAd8BEAdbg2AAvoXRKJw364k3WKeh4uDmmpnQXKPWhCoPAtM7+YgMNn9wx/PfVG7I5NN3rPPVhkRoK9+NU3x8e1Nju1esp0DAAQIH5HZDzW6E6fMRQ8AcIBrh/bHT+twZOmhh6qUlubUt76VHiDLX2po8GjNmk9UVVVhrBGU7du364477ghwUmbnCPiCEEjbBkFf4BitRdV++ctiI8b09a+Tv6C9Qp8Xo54ewO63vWsF+j33+4MkxKvQqui65enXv/61/vM//zPQCgTxuJ7nIEDQxH02ceLETk+OQWyQoF4qBBCC15x46pizWaCh+eDF43esLPzOYm5y0pmZwCeHw6VWb7jCHE4DEGypHJ9a9a19C3Vr+u2aEDdWYQ6HOZc3AZDA+Vhx+J0/+Mn53AugYv/e6rO+43MsOl3Jp4HGEKJ9qJx21Dpst3CPAQQWKnazPABqZ7230KP/J2maPxHRiWtKaOHSpVWqqvLoa19LM2bt7ivswhE/2ux3f+CqCcxMa6emZuB4vWHat69FL71UY1ItX399miZPjjtu0iciFD79tEGPPFKmu+5KVU6O0+jqMynTlxAeAyu0LSABtwjJogAJaMS2Z5IO7Or2UfTJ/ffbACEQSwX1+v8l/ahjN+r00UwjgKR1kiYbUmkwCj5IchGc/NLzAAHXFy4vEnN1dnI8+e0W2B1DACGwdgr+UZDVP/DPUYfnY+mNYY64kpFFv/jii43rtzOlxwCCnYsBC8JhqnadeYpuPYfFggVsjD/r4fFvhoohyZMACHV1XmPODnZugcPvzq5zo9+PT+hg5wYB12SXDct/+fJavfxyjc48M05XXZWqpKTP3RQg7fLyVkH4g4R5xRUpJrkSWRcBHIA9JmX+B17sDIUr/Tt2wi2DA6qo74EDLVq3rklLllQqNzdSV12VoiFDog97rs/rSl3gZ9DnT0i6y++2Cc6Cfew2AeS96idsIqrVkbY7cSv/8pe/1A9/SHjuyS49DxBWrFhhrGPIzPaWMMdg9UIIIASrJTt6HbLfvujnTh2eRr03AgTWWP63DWnv6BP3KECAYYkZpPcChGX+BDlIm/X1x+9jAj522bq1Wb/7XYleeaXWAAPSL994Y7omTQq2miK77b3+BRWzPIt4cBZVciVs3dqkv/ylwmRUvPnmPibLIuDno4/q9dBDZRoxIlrXXpuqvLyoNnkeOjr0jjweVwkLMy4HLEp2rgSeq/PPhpLk4sVFev31WmOuu/TSZP3kJ/2MxPPRhYXtaUkfSoInAc2YTJfdlZyJZ2aMrZC0KOjS1+yi+/SxMo2e/AIZlR0X7017FiGALu+YYYIFpaok5wKoZmZmhiwIQWnR0EUkAMLzksb5SeCft0lvBAhwkIgwW7BgwalnQYCkaAsl9YwZNJABz0LBLpLJjonrJkkLj3ticbHb+LofeKDULK6XXZase+7J0ujRXdXY5P6QEAECLGIv+El9ZOrz67IG8jgBHoM1AGvCkiVVJqnSRRclmfwOmzY1aeHCdJ11VkI3WUZ4NsIgl0oiPTCpjVlgCDXsnCIlfbJ4caH++Mdyo974s59l6eabM0w67GMDhDWSHvODFVQzWbg7d+8TN7f9rLivHvQntQqwgwI87Kc//al+/OMfB3h0sA/rSBQDIZGAg8DcY4HUFLIsBFwSpYUsCIG0WOiY9lvg1AIItsw847+zbrYesyBAlNu9e7cJc4RI1DvLAT8gYAKD3AZZ8fgkN7Ip/v73Zfqv/zqo6GiHFi/up+9/v48iiZ/pdGFXTVa8X/kXLXxfINgLg+arPl7VICE+9li5fvvbUgNyFi3qp4kTYwOMAujsA7NwbpP0gN8nj/WFRbRzrgcsIr/6VbHuu6/IkBR/+9s8o09x/EI460/9bX2OpGs6+yDtnIf1APB5h99SEfzbwGImfPXkl553MeB/JRcDzx8CCCd/BHwx74g7EG0Pctn4RQz8D9obLQjwD8hJcsEFF3TQ7ft57/UYQLAS6NSbLHupqScjeVBnhiw79+v95vwr/ZP58Rd7zPAvvFCtH/7woNmt/vzn2Ua5r/OFiZb0w/jD/+XnGAAMvtet4XeQEEtL3Xr66Urjvz/33ARt3tyspiavvv71dAMWSCHdFYbt8duEZ/7YDwrQn+Bv9CfYyXd8nMBDeOqpSmNFIEHU3Xf306BBJ+IU4FrAb88CDlBoP/dGx/qX5yG8E6sS9+o+Ke4HH3xQ3/3udztWvaAc3fMAAXAEMQsRti8UQPB4ZTgIJfdoUeQdVjZHRBVMFic/LZ5ge7SUocG7CJ+Flu/vWJsaz4tBwD9Ue8S4bKp+UPr/i3oRNmu0J9bHwy2QvREgsPmG48f6espZECC0gXAACdOno/jXWwsm2k8kEavd/m6MVMb33FNkQgYXL84yu9bOF8y07/gXKgYmCxsKhICWmUHz19r1A+DgWli1qtGEamZlRegb30g3gkctLV4991y1yWmAywFyYmqq07hSglt4CTHzowaJu4EoB56dxZodfcdJfBs3NunnPy/SOeck6MYbM9oBNgCDX/sX7luD+2jmavjleRb6EKGo7itr167VhAld11PoeA07CxAgfrXlIPA7EzF9YhSj/IVBx3eMFftz/rYHo1erV68yJMURI0YqLIwxw3FWKK5VTnRtrtP2nlaQ2/Hv2ZVrU5cTPc8R195UoQJPkRZH/kaLXrlEeb4sKS/JUuQpb5IQAUOum9TfswdaMoEE8QMeUEca29eSakStB4SPUhC5QMZlWAIApi5HPo/NA+poP3B82/bu6LWP1Q+f9/HRfd/d/YAlGY7UaL8V9/On640AgTB2uDjTpk3rdKhvj1oQ6urqjAUBMZPeW/D3ozPApN7+alha5tYTf65QQkKYWYycaKl2qjCZsYO+XxKuDoh7ACl20/27FLFwrOoAAPbtcxkAANly/vxkzZ59ONcAALFhQ5NxO5ARccGCZA0eHN1NmRmZXJA7BiDBBQmXq/WXamxJVUur15AmAy319V5j2QHwYA05ceG6z5l2DnP0VYQzTLGR4YpGLL3LBcvBn/0iVgCEzo6NwCryzDPP6MorsXyd7EIbIvpECC68nfbem9/5x3WKJCZhe2Hh70H+cQCwotAPtrAW7wdqjRT4C7YUeoGammqMKywqirBWksEBNCH32tfGGkXaRK5hX5t6wnnh+gg9EXpKAZhDBmYBhQuEqZkCN4UwUvoVoiVAlsK1eV85lvvaYxVdDeqIkqhdb67JZ9SfXCVsCii41rL998LtRcp5vG9xKmhs0GLvb7So6EblFSZIcwdJz26xAuhR3jkzS3prr3TpMAssUMhLzHirbrIkvlHkQcYPhD/MKQ1qkhLt50EiEH+7Dagwp/M8uP54VgptRb15Vt5TrK12P1BvCvMWVjIKljjaiv5t2w9cm893+xVgaSveC67Bd9zTbiv6gc/ZdEHSttuKd5pr1B3RD/Q9x1MPBNns5+Ez+oKIJfvaXJNr0A/Uxb42bcJz8jfHE22FRHzvj2KoqqpSdXW1ybvTWStajwEELAioDHaHAAAgAElEQVSI6mBBAOH0lsLwbHF5VNvkVkOLR+7WnfL6mChAje2Xlhaf0RLABN+RRE3kD4+ICFNcVLiSYiMV6WRAknAJlULcCvAOeMnam2zbr2PbI9AIqKxs1dq1jSb6gkRG6CBgNTiWCwHiS0WFR3/9a4V27GjW1Venaty4WBM2GHxrAjX1yuMtV1ntv7VhX46Wb+6rrYX1qmtyG4GTQArHwUWgfvRL+4UFIFrx0U4N6BOnaUPTNW1omvokRRvA0LlCZQmX3SAJy0TwCHnHq88bb7yhefPmda66XT6rIyRFpMGZ/AGCTML+xdBoYqCNAXOcxZbCRI7eB5wUwkNZbCi48og2AUB8oPr6QjMpxsQMlsMB4ZUFHy6PPfHD5Zkj6WW/X5lrcC4TP5YdEnWx6FNQJUVym0V7uX+x4XNAA4D9oN/qZQMHQo6xdgFuWWzshQmuFXVELRPXIYVrohsCGLJl0vkckIJgFgCDDYp/IWuaoYLltVrs/T8tqrlZeQ0Z0vB0adlOS+yfFOKAZ9R3LhtuJRggtTjHYGkgvThpBfkZHW7l9OhfJfXfJMWy2PM8WO7oBxvwEOJNGz4rCYVRCoCDZ+FZCf1j4adwDXs+p61sQMGmhucBONIPNnDg2nxONA8LuQ0Q+AzRN+5ptxX9wCYJtxxzow3sWNj5nLqtagPgiITic2TTAYI2OKR+9PMSSX4AZfqBezKOGFeMSQpAgmsAMHB9Mk6JZDtcu6c3WhDIR4KiKKG+p5ySIhyE3mZBYFdaWtustXuq9c7GUm06UKOy2hazY+3uEh0Rpr5J0RrTP0lzRvfV2Pw4pcU3yuEARQeyqHWshsYF2eQ1YObdd+u0Y0eLibpghx2I1YO2IsLhr3+tNKJKc+YkmHDIo3MvdKxeRx4NINlRVK+H39ip5ZvL1MrEd5KLM9yhcf2TddPcQTpjUKr4u2OFBY/JlkkXF1F3REUcXaOeBQhMqOx8h3fL+G2v/Xtjsqb26hzQ982tKnjubS32/UqLkn6kvL5DpZJ6CxQMTLGSMDy2xkoZyWcI/eNGIDsTLoSSBikh0nI3kBiCdIPj+1quB6T+QqVTLdAbAUJZWZn4P3z48FPPgmBHMZD9j2xTPV1YMHeX1GvJh/v12vpi1ZA9pYdKUmyELjszW9fMyFNWV/J9Hqf+LO7Fxa1asaLeaBv06xdp8kZggu9IYfHev9+lP/2p3OzQL744WRMmxCourrO77KPvXlTVpPue3ayPt1ccBg7a5iviLJbs9qAD8qcc1dY7EWEWe4daPd5De5djXSc8zKGROYn60YKR5mfghV0L2QrZ9bBr7VgbB36fo498/vnnddlll3XlEp08t6MchE7e5gSnIZSEQAy5KDprXg1+rYJwxYJaFaxcpcVRD2hRw63KC8+1si5BUhySaqWAJIkAgIB0gWxuSAVO3mdSSdqawjXNFmDAskCqR7R+Q6XTLdBbAUJ5ebnJtHvKWRDQQcA/gtITYiY9XWoaXfrdKzu0bE2xGkirxrLhkOKinOZnk8tjFqioiDBFOsPM73x2ZGERwhoQFRGuVrIltnjU6vUpyhlmTNb4RRuaW9Xk9hjfNotVs8tz1OLGsVdOzdEt5w821wpWIXRx06ZmffhhvZFXvvzyFE2fHmfcG50pgATCO5FpfvPNWmOBIFogLy+yy+GQAJkn3t2jP7+z17h87JKRGKXh2QmmbVfvrlJibIRG5yaZfttWWHdUvyREO9U/I06p8RGm3/aVN6qirsV8lpMWI2d4mEqqm7WloFYTB6aotKZZu9hpHVGiI8J1/vi++slVowVgaL9gecJqgImchZrddPD6sr37v/fee5o1a1Z7h3XD9z0PEA4ePGhCuxCK6iyDuxsaJiiXPEpJkd0NwIBsQ23HJfKoDEHcYsxpbHrI/oMVjtBreDXdE4oUlOc8lS7SGwFCcXGxcTEAkk85gIAFoTcla1q+uVT/+9J27SVBuL9ATLt0UpZYYNjBsvjMHJ6uAX3jdaCiUW+AyNsU3rXctFhNyE82i5ar1autB2t1oLxJY/snaWDfeAMwiqub9dG2cs0Ylm4WvnePYTpn+cnLiNXPrx2r0fgOu1hYbNntAwzWr28yssOkPiYSIRgFoLBlS7MefbTc8BgACuPHxxoZ5s6WFrdHtz6+xoAAT5tt/3nj+ureL49WUWWTrvvdCk0emKpfXDdGO4rr9esXt+lgVZOxACXGRMjr82lMbpK+Oivf/A6AW7O7Up/urNTXzs4382lslNOAt0VLNuiRmyfr1bVFuv8FyFGHF/qXvv3V9eOVRmhZuwWfKP5m/Kz4Pbufd9C2SkuWLNE113SXjsOJHr7nAcIX1oIgWWGOhYu1KGuRFeYYKj3eAr0RICBEyP9BgwadegCB6AXMHwCF3pCsCevB0x8dOGynmhofqb9+b4qS4yL0wqcH9YfXd+n3CydoUN8Ebdhfrd8u2yF3q1fldS3KSYs1O9cpQ9J0yaQsfbav2iw8B8obtKe0UQumZBtg4Pb4dObgVD3+9m5989yB2lNar/9estFYEY4suBpuOCdfCwlX6kJpaPAad8KKFQ0mR8T8+Ukm10Lw+QJSTY3H6Cfs3Nli3A2EFmZmRnRqowIR8Zt/WKntRbCTPy8XTsjUPVePNrv+xf/apCmDU7VgSo4qG9x65uMDiowI04odFZo0MEXldS71SYrSlVNz9e/VhSqraVF0VLhwLVw6KVsPvLxdHp9PP7tmjPn9x1eO0osrD+rnz7HzP7oM7Revn1w1UqPzIJW1t0iiBAkJCnJaR9wSXejsNqe+8847OvdcGNcnuwAQIJzhWrk06MTaQJ7mC6uDEAIIgXT/ST+mNwKEU5qkiGuBbHMIOYwcaevun/R+NTdkd82C8NKqQjW7P1+obYAAUTEy3KG7l2zUH2+apNLaFgMMsAIkxETovc2lunRytt7bUqaMxGhdNKGfsEgACCrqWzS0X4JmjcjQw6/vUlldi+7/6jh9uLVcc8b01bbC2uMChNiocF1+Zo7uvBTTdMcLgke7d7fogw/qtXNnswYNijYJlpKTu9fM7XZ79cknREXUqE8fp2bOTNCYMYRDdsyaUFnfohsfXqWdhGQdARDuunyEVu2qUklNs/okRqvJ1arB/RL02roiTR+arlW7Kw1X4MOtFdpdWq8FZ+YY19Ce0gYD7rDmfOmMLC1+eqOqGtx6/ObJenZFgRbOGWjA4PEAQn56jO6YP1hnjSL06XjFDuWCiY71p3vb+3i1WLp0qa64AjnunihEC2CNA0gF4o4Jbh3RgEBquSsEreDWKHhXC1kQgteWwbpSbwQIbMCxIHRFbrzHwhyxIJBMBgtCfj7xyD1XMF/ft3Sz/r2mUC0we/3FBggfbC3XzBHp+vPbe3TltFzjhmB3/9q6YmMteG9LubEK/PZlQnikeWP7GnIhO9ONB2rM76Nyk/T7V3eqpLpJD3xjotbuqTLuii0HTwAQcHFMztJ/Xd5xAFVV1WoIiJ991iSAAgTC8eNjuswLCLSXcIsWFLiM/kBFRavGjo0xQCE9PXCXRllNk77z6JpjAoQfXDJcv/n3NmOFwdLw7KcFunp6nv66fK9mj+6jzORoHaxs0pPL96m+2W3AAp9NG5Zu3AwAhYkDknXPvzYbq9EjN03S39/fp1svHHJCgJCXFqXbLhqo2eOOZ9olHI0QLBZIQt0CSS8daKt27Li33npLc+YQyneyCxYEQgSxwtAGHQOGwajtrl27jJIieV6+UCTFkAUhGMMj6NfojQABCwI8hLFjx556LgYsCL0lmyNaAD97dpNeXlN0TIDw3KcHNQO2L6z9ciseOSUuUo+9vVv/OX+YGls8OljRpAdf22F2ptkpMcYHfsGETOWmx5pzMpOi9ehbuw057udfGat3N5Xq/HH9tLO4Toue2mjcE/jI2zLsITECQO5aEDhAAAxs29ast96qU3V1q9FisFUPe4KPVFdHCuk6rV7dqNTUcM2bl6ShQ6MCAionAgi3zx+mWx9brb/cOsWQC//0zh59Z94g3f/CVo0fkKKF5w7QsrVFhng6c0SGAXDr9lZrQn6Kxg9I1uvrSzRjeJpxJ0Bi+/bcQfrxko361Q3jtHZ3lf71SYEYF2v3Vqkehri/nBggcBy6FQjhEDdO1ELPWA+o7rJly3TRRegInOzS8xwEMtmRi2Hw4MEhgHCyu/80vF9vBQhswruS8rzHLQgIJvVMQpnPR/HxAAIg4I/fPkNLVxQYQHD5lGz99uUdGpefZAhw+KxvmjdIZwxM1d/e22sAxsUT++mcUX20tbBW/dMtPz8WCPzh1YQaocM1uo+eeGePLpmUbaIXPtxWbsLsIEJu2G+Lf8hEOQQKEAyRucKt996r1+bNTUpOdmrWrHgNHx7TTUqHgc8CLhd6Cy1655061da2mvTXM2bEHyej4ufXPR5AmDgw2bh0frdsh34wf5i2HKzTJzsqTNs//fEB09ZEf/xl+V7988MDhliIVQdTNxoGhE7SJ/BFkmKdpi8RQ/qfF7cat0NjS6vRv8CNtHTFQcMxCQwgoD4HQECpDWErVPJ6rrz88su6+OKLe6ACPQ8QMK2iJJeRkWGAAtYEUssjv4xGfVxcnAixjo2NNUxv1Fz5m+/RaMHCiYsCFyjhknzH31g8uRbHUOwICX5iqeA8roEAXEpKitnBkQ8CQjZcK3Z11Im6JSQkiPmP+hHV1TbaAtIvhetxPzZUHMfxZY4y3Vd+n36U8SPlOHPMudSxpqZG6enp5nm4B4sDz0W0GPfiWXgGrsU1OY9ID/setA/tUVtbq8TERHO95ORk85PzaTfO59mpn92mnMPz2m1KXainfQ/ahXNg0vOTe/K9fS9yBVDXvn37mk0j7UX8flJSkrknz839+G9fy/5Jm9lZC+1n4SfPxv3s77gG1+K5KisrD92Le9rtxHPzDLRD2z6x78s1eSbqTh8zJuLj462xERulW4pu0ffTvq8hjiEm5tpuH65J+9CG3MM+x24n7kUf2O3DT/rIHn8cTx8wnmgXInP4Sd9yPa7D+RT7XH7u32+JixHF0NlInh4DCDQAoUh0Bn7CnizHAwhEHJw/LtNEL7g9Xk0ckKJ3N5VpUGacYiKd2l/eoGtn5GlAn3j94vnN2lPSqLz0GHMcrHiXx2e0FfChD+wTp/w+cSZscnBmvLEgcExstPNQDP+a3VXmXnYJFCC43UggNxrBo+Zmn8aMidFZZ8UbkHAiq4FHHjWoQQlKkMPvJ/bJpxa1iJ8xJqEQwrLNClOYItsseHzPP87zyqvwdnbKzHdlZW5TRxI/5eRE6vzzE83P49XxeAAhIcYpQh2xzBA1wg6f0NGMpChFO8N1zVl5Sopx6pE3d2trYZ3hHuBeIPKAfiyoaDQWnqSYCGWmRCvKGW76BG6CrePGc2PNIVqlrdvpcAsCi4QtDUxUA9YlLAYQErua4rvrb8Trr7+u8847r+sX6vAVug8gMGarVKX0Nq4bxh9jse0YrHHVqK6mTskxyWZBMpN1S7OZdFuaWxQVbf1kIv3kk0/MJMrixKTLZMtiyoTM4sFiy3f8bS8izF82KLB/ch8WIRZpJme4VR999JFmzpxprDkXXnih3n//fZO9ljw0SOCyWLFoATzahqKxGFGoh70As1gDLBriGvTrul/rB0k/UL+wfmYOZdEgc9/48ePN86Ats3LlSvO3fS+AA89AHblm20WIOrDosGBC8Bw4cKB27txpYuhx11BXwA3nUzfaiAUPP3e/fv2M5j8/aSfaC1DCwsZiai/YLITck3vzPceT0Zd2+vTTT42i7rvvvquzzz5bq1evNvcGYFE3ewHkWrSVDdZsoGADOtqCBZOfHMPiznfUhedjM7phwwZNmTLF9MWZZ55p7sUum7oATuw+4Ro26KDu/M0zAz55RtYvQB/PnpmdqR9U/0A3J92szPpMeT3eQ+2TnZ1tACKudNo2NzfXnEtb20DRBiU8mw1i6W/6jOPpW9oJbs2kSZO0Zs0ajRs3zvQNdaFPGYfUE8BCPREiHDFiRJcsaD0GEHpTFMPxAAIvKIsLHAWDmMPDTOgiVgFi4kflJGrq0DTjz35lbbFZfKBjcQ5Meq6LCiPn4/cGcBA/z+JGzH5tY6uZ2OxCjH7bcL7jAQQSKuFKSEkJN/79N9+s09atTWaxRYNg8OAoRZG05TiFCXW/9qte9SpTmfqqr+IVrzjFqVSlqlGNmIgzlakkJalABXLLrUQlqklNGqABBjC45DLnt6pVwzRMEQGIANXXe0TypA8/bDAJoMj3MHFinIqKQMwO9ekTcUiy+XgA4XjPBdBAjRKLQUlNi+F/0F+BFPqGY9uTbz4cIAAOXsEr7JdeRaIXedjeUZ577jldfvnlPVAZxjTRG8gMI1HcdZIiY3a3dpvxt0d7NERDFKUoxSpWJSoxoDbZyOSiUxmvYhUfGrOA2BzlmPHKuGUs8z1jNtwTbhY1FnV2eSwubS0I9mLKd0zcR+74j7Qg2AsgQAKwwbVZIOzU2xCzWRjaLkIsZMezINi7fXsxZyEpDys/zILAXGovuiwWLOTcg8UV4MC92I3bFhKuxcJn7+Zt6wRghN0uizeLEz8BBPxkkW5rYeFcFiP7HBYjFmG7De12om4s4m13//Yu3L4XbU+dWZxZbFkQqbsNZriPbbHhWrZ1gM/aWhAAWG2tIjbg4jjuSV1pB4AC4IRFGg0e2+Jigxrb0nJk3W0Lgg1CbKsAzx4TH6PvFn/XWBAGkT/Eq0PtQ7swHri3bY3hXPrseJYWG/Aw/ljsARKMJ9vSYgNX6myDvbZWLNtSRBt2pfQYQAApgbJpAEgUPVlOBBCOVy8WekiMWAEwQdeROjXI5VgAAfLh0qVVKi1tNaRDSIgU5I7RHUhJaT/DIqCEXVid6rRDOzRSIxWtaDPh1qpWB3XQTLhDNdRYDwANRSoy1gYm2lEaZSZproP1AYAAoOA6TMDtFcANBEaiK0gMlZMTYVwQaCZ861vpGjDA0hjoKEDgHIAYfQNBNNCETpY512c4JoeKWdMslcW25rnPAQIJgNB9/60fICChfJ1fy77neAdt2/7NN9/U3Llz2+uObvoetwzRJ2jzdx0gMNbKVW7G5zt6RxfrYgNIWey3a7v5CRBgDAMQGNv8Y8wCaIdruFZplZxymr8Z0wBiJvP2rF/d1ECdvmwoiqHTTddtJ/ZGDkIwHrbHAAJoDGQLUABh92TpDEDoUH1ZrDyt8npc8nnc8nlb5fN5JR+mUWsBcjjC5AgLlyM8wvwPC4807oi2HARyJyxbVqOf/rTIJFjCjQABcebMeOXnRwXMNWCyZed/QAe0V3sNEMA6kKpU8xkAgd3WYA02P9mhMdkCBHA7MKkyKacoxXzPhMzkPFmTAwIItB1rcU1Nq1aubNDf/lapZctqTQ6IH/84U9ddl2aSP3UGIATSLz5PqzzuJnlcjfK4m+X1tMjn9Zj+OAQS6A/TL06FRUQqLCJa4RGxGtAvRbd/aYhmj4PTQKbPB/yJZ/j7Bklf8ssqB1KT7j3mpZde0vz587v3Jse8OkCLbHukSf9yUKIYGLOFKjTWrI/0keZqrgG1jDvAKmOx0p8wiIUfKxjjlfHJ34CCFVqhDGUYSwPXY9wCagOxfPVAIx73liGA0Jt6w6pLCCAEuU8ABvhPMFvhU+nJ0i0AweeTx90oV0OVWptr5GttlsPnkcPnNa6KCGf4ocyAEBRd7lYjouRzsAMPly8sQolJKbrqnDG6+9opxl3x8cf1WrSo0Oy84aRMnRqne+/tp9mzEwOKCrDbmMkRywAT6lZt1TiNMzsvJlx2aLgf+H6ERpgJdpu2GZCAORfLw5k605hos5WtndqpfOWbXZjtegi0L10+l17dsFn33luo1S8ly+GO1Jgxsbr//mzzTNWNzccMcwz0+kce5/N65aorNf/laRJchr7J8UpLilViXJSiIiMU6bSITS63Ry3uVtU2NKu8pkGl1Q2qb/ZoSF6W7v3WeZoyAsLpH/ykRISsIAMSuYA+QuChnJ19lkDOe/XVV3XBBRcEcmiQjwk+B4Ex26hGA2xf02u6UlcaMFqhCgNqAbOAWBZ7xjJAYpd2mTHL2ByjMcaCwHFwafgHUAAwBGL1CnIDdelyIYDQpebrlpNDACHIzYoFAb8Mvhb8Zj1ZugMgsDt1NBQqM86jEf0zNDgnQ1npSUpLild8bLTR/7f9Zzy7x+NVY4tLlbUNKquq0+6D5Sooq9H4oXm67Zq52rKlyVgOXnyx2vjo4RtgQfj2t9M1eXJ8h5QKWfRZ2DG/stDjNmBi5R+TMCAAk20/9TOTKJMwuzd2XACFaZpmjsEfzAQMl2GgBqqP+hwiOwbSn3WeOv1q3+91/5q/qXlLnrR+nJybx2v20JH65T2DlNXfoZsfW3uUDkIg1z7WMV53k/o4qzRlUJLOGN5fuX1TTF84FKZWMuR6CTN1mHBTm0UOBTPc4TPkqv3FFapuaNKcScM0IIu0zb/3qyQSSoiLgbz0XTend/b5jjyvZ3UQNvpTKd8RlFBPxiNgljG7SZt0hs4wY4+FHvcXnAS+s8mLWMY2a7OxHmBlGK/xWqu15ngsZRwLMG5L0A1Wu3f3dUIAobtbuOPXDwGEjrfZCc+AnAFLFrIGjNKeLN0BEJKivLp0QqrOn5Ct1MR4Nbh8Kq5pUUmNy0gCw1locXnkgtgI+zTcoZiocCVEhSst3qk+iZHKSHDKGSEVx+3RorUP6pOP69XQ6FVKslP98yMNoS8t1amY2LAOLUs5kTn6Qb8fmOgDzLD4ZdlFMZHCJbBZ4XzO7ovJmc8BENWqNhMsOzrOZcLl+2hftG47cJuwCgRaXF6X1jat1YbGjZIrUqqPlypSFVc8VN/MvF4Lp56je5fuCBpASIzy6aY5/XXe+Gy5fWHaWthgUnojqFTb1GrCG1shlfp8pk8AcTGR4UqJizBREKgojsyJV1xajT5q+pNKW9dJGi8prddYDdq2fc9xELAgkOoZqWmEmtrnpbQ3ZhLDE7UgbYEZmwBcrASMTcYhAJW/+RyAwDFwaPibYwCyAAGsYoxxxixjF8D7ZPmTavAenZirvfr05PdlrWVa3bhaD+Y9qP6R/XuyKqF7+1sgBBCCPBRgluJewILQVaZlV6tmAMLSTXp57eFCSV25bv+0KN16wWBNG9ZHz31aYBI7ldW51Oz2Gs0Dk2jN7FStu8DAh1zHf1wQ8dHhGtg3TldMydLwwRHa0bBbbra5JtaVGFvirju3W411xGpkjCW+xMLPpAlAODJcjMmXz+zvOd7+2w6LtNuIHTeLPd8HWho8DXqs/DH9rfJvBnyQeOac+HM1N/oijfSdoeSIZN32lw1BAwgZ8eFGdGrq0HT97wub9N7WKjW4CYOyQIERqaJP/A9gntsh087kbiBL57i8eF03L1mliZtV0QpTP5CkTYG2SHCP+2z9Zxo7rqcIwITpARaDE+6ZEJ6gy5Kt1NVtx6ANaG03AT/t8Ft7jNrHm/fsCCi9tGqpGr2W+NmpUjw+j1KdqZqdOFvxYfGnSrW/0PUMAYQgdy8WhO3btxsLAvGvPVm6AyDkZ0TrPy4cqmH9YvTTJ9/WO5tKFR6dpDBntEVEdFipVg+5GQxY8BqyHERGj7tBMd46XTVjoO76+gXyQqALUrEWPivcC18tu68sZRn3ArutNLMjtvQPIICx08oVrP0TFyaujpR6b73+VvE3bWjaoPMSz9PY2LFKc6YJAON0RKiytiWoHISMhHDddfkoTRqUrO/+zxJ9sLlYzthkOaMSFB4RJYWhG/E56LL6wyuvu1melgbDJRneL1a/vPVSDR2Q0SEw1JF2Cdaxf/jDH3TLLbcE63IdvE6zJDQ9kJruHJBte0PGbExYjBmzcA7gDthWAcYtJEWOYfziPsC1YOt4nKjiTd6mw0KNO/iQPXY4lpHIsMgOufR6rLKnwY1DACHInYwFAXCABQElrZ4s3QkQzhiYrEeee1f/eHWFIbv5wpwmQoGIBSvg3z95GoBggQOvx62IMJ9GDczWLVeco4vPQpUv+IXJFgIipERMs0yyTL7wDjDbEtnAjgxzLAUSGBEPEBkJOYObcI7OMcd1pmB1YIJmhxcVFiWnA9GozxeTYEcx2ABh1sgMPffuGj3z9mqt335ADc0uK5qEPjEkUYdlSTBRDYAen6IjnBqa11eXzZqg6y6apviY3ms5sPsC4RcEb05+wQZDHobXJX0vKBwE+xlwG8BFYOwBbCHIwkmwXQeAWRvsMkYBD4Q48ju8GcYa/AWOC5VQCwSrBUIAIVgt6b9Or+MgBNnFYFsQJg9JV32TSw2NjdpzsERb9hSpoLRSZTUNam52ye1pNbv5yAinkuNj1Cc1UQOy0jVyQI4y01MUGRmhjKTgmGmP7EIAAuIz/GSy3aiNxnc7WqPN7ozf2Y0BImCBAwSwKkD2IqTxU32qeZpnOAndUboLIEwblqF9ZfWKiXDI4XVrb1GF6ZPy6jo1t7jlavUYN09MdKTSEuOU1y9deX3T5Ah3CrmLnLQ4xUdHdMcjB/Wa9957rxYtWhTUawZ2seBHMbQFCIxZIm4ojE+iEwAFecozkTlYu7B8YQmzFUABFETdMMaJwrFFlQJ7ntBRoRY4cQuEAEKQRwhRDKhKYUFA7asnS3daENKTYvTwG7vU1NKq0blJGp6doJy0WMVFO43iIrtVdtIw6JtaPCqvb9H+skZDnttT1qBzR/XRd84b3C3NY1sQcDMwmbLbIloBxjd/YzGwhZMw6bL74ic7NlQWN2iDLtflh1wSwa5kdwGEsfmp+u9/btDOojoN6RevEdmJykuPU0pChOKjcP9ILW6Pml0eVdS7VFTVrF0l9dpeVKf0hCj94itjTRKu3l54v1BvO/mlewECgBVrAIs/4/FjfWwicQizJQyS37GK2bLhAAcsY7gdiDL+6tMAACAASURBVHiYpVnGWhYqoRYIVguEAEKwWtJ/HYAB+tRIkU6fPr3DySTaSnciqWknu2grw9k2ocfxqm+Sefik+57dYrL/tdXd78oj56dH63sXDjYJl3736i5tPoiqnJWAKTHGaTQQiKu3Ff9S4yLVituludUw6ikQFa+ckq3/uHiYARE2XyGQxBtHJjZpK0Fqy6xCLofB3eBoMJMtZld2ZISPEcEAAQxeARaOel+9vA6vkn3JqnfUq9xXri2OLZqt2UaOmYLbqK0Uqt0XR/ZJ22dp28ZtP+c6JVUNuuXxddpVEhyWOSRFUmePzkvW3U9t0sqdSCUjzxylzOQYs6BsOlDrl8aWJgxIEfLXe0vrVePvk6GZsfrxFcM1ur/F0ziyHPkMdrikfRx9F+x2Ol4733333brvvvu6Mow7eS4AYbNfhvq2oLoY6CPGKP8Yo4xZRJGITMCqAOi1c4bwOa4HrAVE3wAeUFDExYCFLFRCLRCsFggBhGC1pP86TJwoKQIQiDFHEwFNaXSwWcDQPUdMic/sTGpMhByLLjgyzSRYee+997RgwQI98cQT+upXvyr05y+55BLzOcks8MNioWA3ZWupt9XlRoc7KztbT3/Wqlc/K5XLHynQ1cdF7HXBmFjlZPfRM+satL0Y0pZ05ZQcXX9Ovlnsv//nNdpb2qC4SKeeun2aySr40qpC3f8i6YKluKhwXTwuVfOHO007oR9uJ1yxs6fZeuO23jntg548x5FIZP369Zo1a5ZeeOEF3XDDDXrwwQd16623asWKFSahC0TRnJwco7duZzCjne3safxOu9E/RJvQZ95srzaWbdTEtImKqItQlDPKaJ1v2rTJJAch4cq8efP02muv6fzzzxeCPXPmzNGqVavMPRHIQj3T1qO3M5yhjY4eO+Gv9N2yN5frqZ3JqvPFdbU7zPlRvkbddHamJgzK0ANvFmv9gQbDePjqrP76+rkDFO5w6JL7P1Bto1vpiZF6+a5Zqm9q1Y+XbNBH28nUKOUmh+k7M9OUnegwbWYnjaG9aCeeiX5C751kM3aCG/oFzXZ05mn72bNn65///Keuu+46/f3vf9eXv/xlPfPMM7rsssvM91OnTjUJWrgWOux2RjfuQTvRZyThIfHP8uXLjSDSG2+8Yd6Ft99+2yShwXqA3n3PFISkiGLA0tJ1kmJXnwFdBAACeh1YD041caSuPn/o/O5tgRBA6Kb2ZTcFKGibeMOSuLVM723Te9qLFouinfWKhZLEImTYIpkFkyl/MxkfmQyj7Q7cTj9qEnKEO/Wrf+/SsrXFJrlSMEpuslPfmZuvuJgIPfzWfhNzT7l2Rq5uOGeAkVH+2dLNentjqXE7PHTjGSYdwGvri/TTpRC8LIBw2aRM3Xr+wEMpWtumBaVt7GJbFew2a5uAhcWFxYz2YeGy083STnYSGo63QUbbXa99vbZpZ9smrbETmnB/+gRwQtvbqU1ZpAAA/G2n122byMVOsGKnKbVTwXKdfUUVumPJDu2r+Dzdclf6JjXWoTvnD9Xo/FQt/tdWrdpdZZauG87O1w3n5is2Kly3PLpGa/ZU6bxxfXXH/BGKigzTXX/7TB9sI6RRGtQnRv91yUCNzks1Viu7zfiONrATutjJVmjXtmlnAVLkH6FPGKsQdAEVgC/+5iftZKedtVPm2u3EPewEPnbKXNob0MxPu085n7bsuUIEQwkt1isAQs+1Q+jOp0MLhADCF7iXu5ODEOl06Pev7tSWNgBhwZRc40og7fD/vLhNX5vVXzNHZJjkT+9vKT0MICyY3E8/uKz3ZAg8mcMADsJNj6wOnovBH+Y4Oi9Fdy/ZoE93Vh4CCFdPz1WTy6PVu6v0yxe26i/fPdMIKE0fnn4YQBjSN1Z3XzFM4wf2LG/mZPZDx+/VfRyEjtcldEaoBbq/BUIAofvbuMfu4PF6de/T6/XKulK1BCkpox3FcCyAcMmkbL23pUzTh6Vp8dObtOiqUVqxo0KXTc4JAYQ2o6CsulHf/uNK7S4jY2XXzdR2mOOxAMKV03P1zw/2af4ZWbrp0dVadtdM/eSpjfrJ1aNDAKHDb2YIIHS4yUInnNItEAIIp3T3nbjyuBt+8uT7enVTnVy+4ISvtQcQHnxtp75/4RC9vKZQXzs7X995ZJX+8K1JIYDQpqsqaxv1jQfe1p5qK9NlV0t7AOG2P6/VH2+apF+9uFU/vGyErvr1h1p6x1khgNDhhg8BhA43WeiEU7oFQgDhlO6+9iv/6yVv618ry9Xoiw/KYtQeQFj8r4265fwhGtAn1sgv3/jwKv3r9ukhgNCmq5qaXbr+F89oW3WMHBFdDytsDyDc+NBK/X7hRBPmWNvYqv98cp2e/2EIILT/9hx5BABhjz/d8zVBycXQ8TqEzgi1wMlrgRBAOHlt3SN3WrFxl372t/e0qzpC4THJCgvvmiXBBghRTod+14aDcNXUHF00MUv3/GuTJg1K0XfmDTLhlQ+9vkv/+I+p+nhbue5/cZtpA0iKpzMHgQyXv/nnG/rHB/vlikxXeESMlbSik+VzgJCsu5dsPMRB+OrM/rp8So6x4lw1PVf8/fNnt+jDbWV66rbpWrRkoz7eYUUxhDgIgTY+EQxE7vSuDJeB1j50XKgFOtICIYDQkdY6BY9tanHpkeeW66l3N6vCFaPw6EQrbwKRAp1YlLJTovTtuYOVGu/Uw69t16aDjSYHw6RBaRqTl6SXVhea5D9XTMnVWxtLtL2wXl8/N197Sur1xmfF8nlaFev06KppOfrBFZNOwRYNTpX3FJbpnkdf1Me76uWISZMzKs7KZdEJl0NKbLj+v4uHadKgVC1esk4rd9fKER6uGcPSzWd/enuPslJjdPW0XP3m5e0miuameYP1wsoCkzDK53VraJ9o/fQr4zWyf8+mKA9O63bXVbAglEraKWl6UPgj3VXT0HVDLRCMFggBhGC0Yi+/Rnl1vZ5561O9/ulW7SiqU7M3Qj6TVKnj6WoRRDpnTLZmjMrWS5/s0Irt5XJExCgiItKEn7V62Qk7jJoi0r5kdgx3+OT1tKrV3SJva4tSY3y68cKJuvGys3p5y3Vf9VikV23Zo8deeF+rthWppjVCCou2LDwdNCYgnzxrZB9dc85IPb5sjT7eXq6wyFhFR0UpMiJCTW6fHGEOI2aF/gF5A6OcUkuLS253i3ytzRrfP0m/ufVLyukTUuI7fq+HOAjd90aErtwbWyAEEHpjr3RDndDiX7d9vz7ZuEt7DpappqFJRDkEWjw+t7w+t8IdUcpMSdbcM0epqKJa76/doaLKWiPC4yL/jyP8kHqkpTtAYiCvYiPDlBQbqdTEOA3vn2kSNY0d0n4mxUDrdyoeR+vsL6rQ6ys26rMdB1RR02BA1ZEqhYE8W0xUhG64eIa27i3SO6u3qqiyQY0un9xeyeNDe8O6CkYjUj07HT5FhfuUGBuhvqnxmjl+iK6/aIbiY61cAKFyrBYIAYTQuDi9WiAEEL7g/V3dLKGRlBwtebxSVZNP3pY6NTQ1CV84he8rmqSIMCkpSiZxT0S4FOUn2Ht8Uo2rwCRRTo4YJK+vn9JTEpQU7VBxeZUOllYJKwXuDHtx869HZjOMCE5ifIzSk+LVJyVRWX1STomsgSdraLB4l1RUq6K2QS0ugJjdeoHXANno/CxLJnnngVLhwqBP6hqb1dzissCgz6HwcCuBVmy0BdYyUhKUnZGigdkZIXDQbnOHAEK7TRQ64AvVAiGA8IXqzqMf5r19UnmDNLO/VFQvbSqVzh8kJceYzL8GNHxaKJFfyeORMT1DT+gTK+X48+HUu3wqbvhI0ZEfKSniPK0tGmfOHZ8pxWAZd0jhDgtosEPlu3XF0sgMKTbC+pypFQAC2OD78DDrvNOt8OwrDlpPPa6vVFgn7a+RZvW32uREpdEtVTRKcZEW4CPlQmWTNDRNAggW1UnD06W0WKu93e5WuVs9avVYrp6KRocBdWR7dDrDFRXh7HCukNOtvw5/XloVFUXItjNDUQyn92A4LZ4+BBC+4N38zw3WogJA2FoubSiR5gyU8pOlsgYpKVp6Y5d02XCpvFF6f580NF3KS5JG+PlqdS0tqm15Xqkxz6q88Tq9v/9LinOGaXQfqbpFxoydnSDtrZZIBpgSLT2xTpo7yFqwPjlgudUHplrHt7ite6R2T7bnXt2jJNB64GOJ1BjXj5Xe3C1tLJW+PNpq74JaqU+c1Za0D225r9pa8LHsNLdKmfFW/726Q1pTLF04GMuQtKZImj/MAm2AiUEpFgDhnGHp0tLN1nmTsy0wUdVs9Rcgbnel1Dde6hfK9dPO+CGCAXlxUoGfhgi3V79docoFuwVCACHYLdrLrrdkgxTtlOEHsGPfUGrtVgEDlY3SOQOk13ZK35tiWRj+/pllGWgLENyeMnl8f1ZU+PPaXHatNpV+Q+mx8YoMl4rrrWtNzZE2l0vJUdL4ftKjq6Uvj5KiI6Qln1mLT36KVOeS4iKkKTlSfGQva6yTUB0bIPDsk7KkTWUWaCPzdWKktKXMAlZEhM7Is9rzowOWxYdFfXCqlJkgDUi2+m1VoTSxn7XIc51Z+VJts/RZiXT5CGn5PikxSrpgkPS7T61+OiNLenK9DOoAINIXb+2WLhoSAggnHgKGNSJpjaRLQxaEk/C+hG7Rsy0QAgg92/7dfnd2jf2TrF0qO34WjKtHSc9tkbITpfMHS//eZpmsWbzhHeAmaHBZLoKxmUyK6+TTA3Jos0rrp2pbxS0Kc4xQTbPFXeDn1FxpV6UMaDgnX8JyMS5TGpAiAVLYFY/pK5HhOBfrRHq3P3qvvAEA4befWOCAPEkT+knksPrOJKudaJt5g6SXt1sAakwf6c09ltWgoMY63gYIr++SyuottxDf76mWchKtvltZKH19vLS5TNpTJd00SXp6ozQkzeqX+z+0XBwAi8Fp0tt7pG9OsFxNoXK8FghxEEJj4/RqgRBA+IL398Faa6HBR43Jmh0/0xzmaXaY8AxK6ixTNIvK4BRrkYK+yM4zK4GMg8skPWBMqx5vpupc35XHe4FaWh1q9lg8Bq4NwGCBAQxwX3zqLFyYyO3P611SbKSUcBpaDxhqcBDghWDyhw9yRj/LQoDZ//9WSDeMs3bxWACw/NAXWAYa3FJRreUeSoiyeAYADNoeXgfticuABb+uxQJiWAuwOmAZOneAtLfKAnSAE9wR9A9cE/oDcIclIVRO1AIhgBAaH6dXC4QAwunV3+ZpAQPwEvB52ztGXBAHaixCIe4F/NhWwee6TtK/JZEamNDECyWND5lYOzl2AEks/nADWNDZ8W8pl0rrLYsOJFE+4xjIn4ADuAmFtZYLwYQphlnn24XPAAss+m5Am8+6tn0MxEa+57qJ0dYxfIfFiHPof44PlZMLEFrVqh3aoeEaLoef0+CRR3wepahDlalSlXzyKdVwH6zCcfY5fBemsEN/h/ox1ALBaIEQQAhGK55i1wAEUI40Jze5rd0qXAEWp5J6TNIcTNZBQMIOAwzc3qEqrI0xbHgWMBYndrUh83TnBwLRCLQfVpu2BYsDizeLOe4JrEEmauQYrgAydvI5x9HH9uLf+VqFzjy6BWr9aoqDukxSXKZlalKTPtAHOkfnKFaxSlKStmu7+byf+ilc4YpXvHZrt2pVqxSlKE1pmqIp2qVdBkRwzjZt05k6U8lKDnVaqAWC1gIhgBC0pjz1L4QbAnIhYXPwD9aXSJcOt0zWB1rWqSFsnXIjZsrnGqS1RVJGrOW6YFGDmHg6kg67u9eJRlh50GpnXAZYEnBBZB0j2uC1HVL/ZCvaAd4BlqCxmRYvJFSC1QKNkmokZXYZIJSoxACB/9X/6r/0X4pQhKpVrX/r34pUpFrUYkDDCI0wAGG/9qtGNZqu6ZqlWXpVr6pQhbpcl2uv9hoLwgzNMOeESqgFgtECIYAQjFb8glyDULmHVlpRDJi1MUdPz5PWFUn7HStVGr5ao8LOVWTLMAMaJmZ9vrPlnCN3v1+QZunRx8AdQegpWgmAAsM/iLHCGOF5QDyN8Uc/ACQuGGxFOsBPgJNAeGvIdRCsLoSDsF3Su5Ju7LKL7V29qwIV6Gk9ret0nbEURCvaAAHAwT7tU4xi1Ed9DADAjUBJUIJGaZRxTWBhyFCGDuqgJmqiAQ6cEyqhFghGC4QAQjBa8QtyDQDCX9ZJFw+VXtkhOcOlM7MlEv7lpGxQbesmuVumKMw3wACIYWmfm7+xIBAJESrBbQEAwupCy4JAOCm6CEZkSlJUhBUyip4FwGFXlTQ5yyI2vrHTIh3iLjodBamC2wv21YJLUqyX9e8X+oUWa7GxAFSoQju1U5nKND/Ha7z5bI3WaJ3WGQDBZ5M0SWu1Vl55NUETtF7rNU3TlK98AxpCJdQCwWiBEEAIRit+Qa6BVYDY+guGWPH4B+ssxjsLVEzEJo1I36yShjO1u7K/8XMjfFTaYC1QswdYC1NoMQruYAAg4M6xCYdr/QqVaFjAW4BoCveguMGyMswdYFkPEGLCvUCYZMjFEKw+CR5AABi8pJfkkkurtVqTNdnwB87QGdqqrYZnAK9gvubrgA5ohVYYiwGcgyEaYo7frM3muzjFGdfEFbrC8BZs4mKwnjp0ndO3BUIA4fTt+6Oe3Mjzeqw8DEj3AwLYrVopGzbpk8bH9HjZBu13Oc25gAGOgUjHOSFwEPzBRNsDEmwCKL/D9WjxSJBKETqi3WtbLHcP7geAHsRGIhdSY61IiFAJTgsMi3JrTkKzHi6Pl7cLSooz4mfozn53mkoRjcCun4Wdf4AHLAPwE7KUZUAELgc4ClgZ3HIbjgLH2NEL/AQ83Lj3Rh10+7W8g/PIoaucxi3g9Xm1r2Wfnhr0lMbFjvvCgE+HrzMp8U7jgdD+o29Sk3eNar3D1OrLbv/w0BEnvwVAeDYYaPv7ya/JF/aOLONOh+Ty2YyAzj1qjCNGqc5Us8ADCCAWAhIIb2wb4ggI4G8bHLR3t5LWErX62sS/tndC6PtQC7TTAozL9PB0OcOsjeEXoYQAgt8asLvKYrWjoIcE78cFlnwvMr64DhDPmZonDUyxrAfwDdiJorZX02KZt9mhjkivVUFtnXZVpmhIeqyJciCMbl+NFQ5J5EOKnxuFrj/iPLgnyNMAn4H1alqOdS1cF2P7WqGUp1vB2oK4FBYatCZocyITEJqCw0FbQg7tn2JZDTgea4Gr1eIZYBlAw4J2RCwJbgICVeRU4HvwAdfE0tA29JSwR47FwoBGApoXXAM1TfgkXJNrhIim7Y3IOkkVkvp3OYqBO2EZeFgP63pdb8IV+btRjSacEWsC5EP+DdXQQyGMfN4WnoRcCu31Wej7UAsc3gIhgIB6gVv69KC16MweaC3ULOyw3S8bYTUYKofI8X5jggUM3tljqeohu8vn+LOn5UkOn1dbK7yqawlXfJTDRDqgkkjWxo/3SxcOtUAGhXu+ulO6faql6AevgdwBNrHx/f3SV8dagj2nW6FPyLNAWu2z+ksvbJXiI6y2/n/tnUtsVVUUhn+hIFpssCBVLC0gzyoP5RE1GB+Q8FAnviYGJ8aRc4fGgTqVxERGONOBOlATozyCGJWARhBtLaIgApHyEBEsYBhgvrP21uNVacFb+rj/TkjbffZd+5x/H+7692P965nFEbEAZqhRon7I2L3ZEVsJSGSjsEhbyFdxpv5YOHfkkqmDdK3bI+06Kq2aJzXVxzbQazsjV8YLS0LrYsv+sEkoJMRk9/GIjHh8dkhtu/wbAtU7g5CtQwhWa3WxPdCtbj2qR7VBG4oDibM1u9hS4FwC1zhzQFmsxcUBRnQQOJS4VEuLSAYXI2AEeoeACULCiayAOARi6EkMhJ4/aYKfmh8O+u3OkPudNT6S9xw4GU5r1Vxp+0+hhYCTmXP9N6q7Ypc275uvqWNbdefEmAGTh4FcDndMDIKAc8EJrt4qPb0wJJtf+SzOKDzSFkmH3t0V2SNxULVWWBHgACiOf8GN0qvbpcUt0lud0otLYoXg0/2BLZhyBoEsnMgxPzRL2nYwSB0rQi1jpPbDoXlAW5IwcSCR1QOSbkECIXH0yarCMxull5bF59/oiBWGB2ZITVfHu7H75yAhJgj/9Vb2DUFYozVaruXqUIea1VwQBCIX0Dd4R+8UBxUhCA1qKA4jUohyIJyRMEmiGvjbxQgYgd4hYIKgUNNjtolDwoFcVRdbAhAGHDQ5AXAcZHesR8HvfGwxUP9wW8xkWUFghtnc0KHmhk61H1moM+daixnrDaOjzaa9kVEQgjCyLiSDX/9aeuyWsEkiIGaqbHXQjhUFcgqQyKnWCs56Z1fkxIBkkRuB8SA3wrN3Rz4McjSQ/hlnj0viOqsyjBlOnC0IrkEmuM4KAmmcb2mKlQm2Ekj89ODMyKI5YlgcYnzuQ+n5+yS2ndhegiAyLnwG4kFmTyJRXC4fQeAA4lqtLbQNEE5aqZVar/UFEVihFVqndVqmZQVh6FJXse0wQzN0SIeKv9mWYAWhSU0eNiNgBHqJgAlC2mJgZogDmdYYEQmsEDRfE3vPOG7qUES8rj5i6787Ho4cx8EyNw6JREDTxnboxNlO7TuxUOPrWwsHhePhPEHXqdgPxw6zUlYoCMHjTAIZA0lJTEHUh7BIVjXoD7JQa4WQRAgSBGHl9MADvBpHhajRy9sCe8gTmgesJGzYEw6eVSC2EHDu6BvQDgLHeQ+2fBgTxgyCwdYPKxTYwNbGPdJXR6RFEyI0kkyQREMwPozx0dMxPmgnOBrlQgQBufGPJD35v4WS6IWzBORZYKsBjQNCFlktILKB3zmPwE8KKoocGCMckvDGdrUXhxvRRIAouBgBI9A7BEwQeofTRbTii/F7SXMkOYrhIoD7W1NWEAo9vPOxlF/+vagOsbzitOGfAQkVdUWAQrrO+YLU/M9+ss1sADuVdvk7byVUXvMWw4VGlwiBc5LYH+u/wxoII7HiMFdzC6VFH1S81P+R/lwtImCCUPVRR4O+uxB6jS9HFyNQawhAvcho+oOkhf1KEGoNeT+vEagmAiYI1USzsPVbIggNkrXeq46uDQ4GBKp/SHEwPLXv0QgMNQRMEKo+ooRYdUpakGLAq96BDRqBAY6ACcIAHyDfnhHoFQImCL2C6WIadSSCwNIqIjEuRqDWEDBBqLUR9/MOTQRMEKo+riYIVYe0vw0iqYiQBfKJxE4Sc0koCvGxZHsaNTxiJgl1IRaS0BREFij4SqQXkYDEBiERxF1SSAIxJEMheGhCcr6StKwqUQz9/Qq4fyNQiwiYIFR91PdLOiBpmiRUlVwGPQJIJyLAQHwj8pnEoyK1ibbzDyek8YksILE5tTGkFhHSgAggqoH4AvGVxMsSg4koBiERxFEO2RSSECQO7BJW2H9RDIP+3fMDGIF+RMAEoergn5W0L5GENFPUuEQYmFWRQS4niZmY6ncm3XpuBpWFKZImSNqeDj1Sf7Wkm6Qih/0uSfRDaUw2jqY+CS2jEGI5tcguGZr4OQYQ4tKM0HM6TElboi1oy8/2ku0xyTaqdDxTto0wA+13S6LfIo1luj/u/RPUJVLdSEnTmS5L+rJQ1Y+C4+BeONRJWGjGBCEbbO+VdLhke3Ky/2nJNljMkISSFM+T748IEmzjpDgPkscB22D4Y5rhZkywzb9tJUxwajMlhHW6t0pbWyLxBskZEKjgo8z+0XxGCattfMhvslJAO5S3EG8gjzRJJUjIAUFAxpHVBQjC0lbpWrDKBfzR9ib5xuel+rEJwyOS9pTqW9K7wkz9eKkeG1xbV6obIWl2GuMtpXqw4zkZY7DKhXcErBjjrtL7A97Y/rj0nvDOzk2ROzwP7wPkgLG/3wShhKp/NQKDCQEThKqPFp4DB/R1+pKkAxwqconUE/qVHRlfwNRvlcSXP5/F6fGFPSk52l/THY6WdHNyHjtKtlmlwAZf4jjatLRdODzaf1HhaGlLv5skkVCHAvmgLT9xTHy5UyA2tIdgfFuyzdkK2uOYDpUccJsk/r1fQT5wTER14NwzscHpYftkIiUZExwT9TirgyXbYIJtnB5hpBQcKY4JfX2eJz87xIY+6QusMvnANjbQqmAsMrHBNo4PGxCWnOLx1iBT5zZLu+dHggdm/xAC9K9ZHUDfGVnFo92xcnBTYyhb7eiKurtaIsvUL2dDmWn6uFB74voTN0tj3iu9geBPnzjzzaV6iA26GhBMCF8uECnIAMSG9yeX29IYv1Vy7EiALkqRNetLbcFuXgpLBKtcIHpgxRizIpbJFHjz/nyQiFp+Z2+XBO7UQ8io577vMUGo+neMDRqBy4OACUKf4IxDwlnlL1WcPrOpLB6TO8XBUc+sOs9yuYaD4Br12Ykxo6UtpWyb2Rv1fB77uc8L2cY+M/ySslBhgz7oM9dn29xDdr7ZMWODusr7xg4E41JtZ6wgDOV0vPRXed/cC/3xmbxiQR33TVvuoXzfl2j73Glp50lp7fZYGSA71IIkb4mc5oRrIuvWlXXSksmRAAJpTs4rzGuK7Qa2H079/ldqzmHDpHsnScPL9w3+OHJKJlL8frHvD5jw/JlIYSPb5mclVvTJOFaOMXaoK48Ddbxb5fcH+9gA92ybfvKY9cl/Mhs1AkagjxEwQehjgG1+CCDAWQJ0nknAceyM1JpSOx7rjpzQJNfY/2scUkTXmRUGUnJCCFhxqB8R19Fzrhsef09pDG1uFyNgBIzAAEXABGGADoxvawAhwHkBzhGQMjIX6iABaDiTpStrOXMugfMGkAUyfJEAgugHkkSQlIMkHBAE6zQPoAH2rRgBI/BvCJgg+L0wAkbACBgBI2AE/oGACYJfCiNgBIyAETACRsAEwe+AETACRsAIGAEj0DMCXkHoGSO3MAJGwAgYASNQcwiYINTckPuBjYARMAJGwAj0jIAJQs8YuYURMAJGwAgYgZpDwASh5obcD2wEYlJ2PgAAADFJREFUjIARMAJGoGcETBB6xsgtjIARMAJGwAjUHAImCDU35H5gI2AEjIARMAI9I/AHYXC4IrFEk6YAAAAASUVORK5CYII=;" vertex="1" parent="1">
          <mxGeometry x="-30" y="400" width="737.76" height="620" as="geometry" />
        </mxCell>
      </root>
    </mxGraphModel>
  </diagram>
</mxfile>
